<mxfile host="Electron" modified="2025-03-18T07:08:25.508Z" agent="Mozilla/5.0 (Macintosh; Intel Mac OS X 10_15_7) AppleWebKit/537.36 (KHTML, like Gecko) draw.io/21.3.7 Chrome/112.0.5615.204 Electron/24.5.0 Safari/537.36" etag="0i6VwZn6y6BXVTtDq_Mx" version="21.3.7" type="device">
  <diagram name="Page-1" id="Xn3DbdXjLMoezKghyugt">
    <mxGraphModel dx="1084" dy="2475" grid="1" gridSize="10" guides="1" tooltips="1" connect="1" arrows="1" fold="1" page="1" pageScale="1" pageWidth="827" pageHeight="1169" math="0" shadow="0">
      <root>
        <mxCell id="0" />
        <mxCell id="1" parent="0" />
        <mxCell id="T9cK2o0Pv88uxt9JjLOQ-34" value="&lt;span style=&quot;font-size: 14px;&quot;&gt;&lt;b&gt;每次Forward进行钩子获取&lt;/b&gt;&lt;/span&gt;" style="rounded=0;whiteSpace=wrap;html=1;fillColor=none;verticalAlign=top;" parent="1" vertex="1">
          <mxGeometry x="110" y="580" width="580" height="380" as="geometry" />
        </mxCell>
        <mxCell id="T9cK2o0Pv88uxt9JjLOQ-1" value="input_rms_norm&lt;br&gt;RMSNorm" style="rounded=1;whiteSpace=wrap;html=1;fillColor=#ffe6cc;strokeColor=#d79b00;fontStyle=1" parent="1" vertex="1">
          <mxGeometry x="80" y="30" width="120" height="60" as="geometry" />
        </mxCell>
        <mxCell id="T9cK2o0Pv88uxt9JjLOQ-2" value="self_attn&lt;br&gt;IMEAttention" style="rounded=1;whiteSpace=wrap;html=1;fillColor=#ffe6cc;strokeColor=#d79b00;fontStyle=1" parent="1" vertex="1">
          <mxGeometry x="80" y="100" width="120" height="60" as="geometry" />
        </mxCell>
        <mxCell id="T9cK2o0Pv88uxt9JjLOQ-3" value="post_attn_rms_norm&lt;br&gt;RMSNorm" style="rounded=1;whiteSpace=wrap;html=1;fillColor=#ffe6cc;strokeColor=#d79b00;fontStyle=1" parent="1" vertex="1">
          <mxGeometry x="80" y="170" width="120" height="60" as="geometry" />
        </mxCell>
        <mxCell id="T9cK2o0Pv88uxt9JjLOQ-7" value="named_linears" style="swimlane;fontStyle=1;childLayout=stackLayout;horizontal=1;startSize=26;fillColor=none;horizontalStack=0;resizeParent=1;resizeParentMax=0;resizeLast=0;collapsible=1;marginBottom=0;whiteSpace=wrap;html=1;" parent="1" vertex="1">
          <mxGeometry x="280" y="100" width="420" height="130" as="geometry" />
        </mxCell>
        <mxCell id="T9cK2o0Pv88uxt9JjLOQ-8" value="+ mlp.c_fc: Linear[768, 3072]" style="text;strokeColor=none;fillColor=none;align=left;verticalAlign=top;spacingLeft=4;spacingRight=4;overflow=hidden;rotatable=0;points=[[0,0.5],[1,0.5]];portConstraint=eastwest;whiteSpace=wrap;html=1;fontStyle=1" parent="T9cK2o0Pv88uxt9JjLOQ-7" vertex="1">
          <mxGeometry y="26" width="420" height="26" as="geometry" />
        </mxCell>
        <mxCell id="T9cK2o0Pv88uxt9JjLOQ-9" value="+ mlp.c_proj: Linear[3072, 768]" style="text;strokeColor=none;fillColor=none;align=left;verticalAlign=top;spacingLeft=4;spacingRight=4;overflow=hidden;rotatable=0;points=[[0,0.5],[1,0.5]];portConstraint=eastwest;whiteSpace=wrap;html=1;fontStyle=1" parent="T9cK2o0Pv88uxt9JjLOQ-7" vertex="1">
          <mxGeometry y="52" width="420" height="26" as="geometry" />
        </mxCell>
        <mxCell id="T9cK2o0Pv88uxt9JjLOQ-10" value="+ self_attn.c_attn: Linear[768, 2304]" style="text;strokeColor=none;fillColor=none;align=left;verticalAlign=top;spacingLeft=4;spacingRight=4;overflow=hidden;rotatable=0;points=[[0,0.5],[1,0.5]];portConstraint=eastwest;whiteSpace=wrap;html=1;fontStyle=1" parent="T9cK2o0Pv88uxt9JjLOQ-7" vertex="1">
          <mxGeometry y="78" width="420" height="26" as="geometry" />
        </mxCell>
        <mxCell id="T9cK2o0Pv88uxt9JjLOQ-11" value="+ self_attn.c_proj: Linear[768, 768]" style="text;strokeColor=none;fillColor=none;align=left;verticalAlign=top;spacingLeft=4;spacingRight=4;overflow=hidden;rotatable=0;points=[[0,0.5],[1,0.5]];portConstraint=eastwest;whiteSpace=wrap;html=1;fontStyle=1" parent="T9cK2o0Pv88uxt9JjLOQ-7" vertex="1">
          <mxGeometry y="104" width="420" height="26" as="geometry" />
        </mxCell>
        <mxCell id="T9cK2o0Pv88uxt9JjLOQ-13" value="mlp&lt;br&gt;IMEGPT2MLP" style="rounded=1;whiteSpace=wrap;html=1;fillColor=#ffe6cc;strokeColor=#d79b00;fontStyle=1" parent="1" vertex="1">
          <mxGeometry x="80" y="240" width="120" height="60" as="geometry" />
        </mxCell>
        <mxCell id="T9cK2o0Pv88uxt9JjLOQ-14" value="&lt;b&gt;&lt;font style=&quot;font-size: 14px;&quot;&gt;Modules&lt;/font&gt;&lt;/b&gt;" style="rounded=0;whiteSpace=wrap;html=1;fillColor=none;verticalAlign=top;" parent="1" vertex="1">
          <mxGeometry x="65" width="150" height="320" as="geometry" />
        </mxCell>
        <mxCell id="T9cK2o0Pv88uxt9JjLOQ-22" value="handles" style="swimlane;fontStyle=1;childLayout=stackLayout;horizontal=1;startSize=26;fillColor=none;horizontalStack=0;resizeParent=1;resizeParentMax=0;resizeLast=0;collapsible=1;marginBottom=0;whiteSpace=wrap;html=1;" parent="1" vertex="1">
          <mxGeometry x="200" y="390" width="410" height="130" as="geometry" />
        </mxCell>
        <mxCell id="T9cK2o0Pv88uxt9JjLOQ-23" value="+ mlp.c_fc: Linear 注册forward钩子" style="text;strokeColor=none;fillColor=none;align=left;verticalAlign=top;spacingLeft=4;spacingRight=4;overflow=hidden;rotatable=0;points=[[0,0.5],[1,0.5]];portConstraint=eastwest;whiteSpace=wrap;html=1;fontStyle=1" parent="T9cK2o0Pv88uxt9JjLOQ-22" vertex="1">
          <mxGeometry y="26" width="410" height="26" as="geometry" />
        </mxCell>
        <mxCell id="T9cK2o0Pv88uxt9JjLOQ-24" value="+ mlp.c_proj: Linear 注册forward钩子" style="text;strokeColor=none;fillColor=none;align=left;verticalAlign=top;spacingLeft=4;spacingRight=4;overflow=hidden;rotatable=0;points=[[0,0.5],[1,0.5]];portConstraint=eastwest;whiteSpace=wrap;html=1;fontStyle=1" parent="T9cK2o0Pv88uxt9JjLOQ-22" vertex="1">
          <mxGeometry y="52" width="410" height="26" as="geometry" />
        </mxCell>
        <mxCell id="T9cK2o0Pv88uxt9JjLOQ-25" value="+ self_attn.c_attn: Linear 注册forward钩子&lt;br&gt;]" style="text;strokeColor=none;fillColor=none;align=left;verticalAlign=top;spacingLeft=4;spacingRight=4;overflow=hidden;rotatable=0;points=[[0,0.5],[1,0.5]];portConstraint=eastwest;whiteSpace=wrap;html=1;fontStyle=1" parent="T9cK2o0Pv88uxt9JjLOQ-22" vertex="1">
          <mxGeometry y="78" width="410" height="26" as="geometry" />
        </mxCell>
        <mxCell id="T9cK2o0Pv88uxt9JjLOQ-33" value="+ self_attn.c_proj: Linear 注册forward钩子" style="text;strokeColor=none;fillColor=none;align=left;verticalAlign=top;spacingLeft=4;spacingRight=4;overflow=hidden;rotatable=0;points=[[0,0.5],[1,0.5]];portConstraint=eastwest;whiteSpace=wrap;html=1;fontStyle=1" parent="T9cK2o0Pv88uxt9JjLOQ-22" vertex="1">
          <mxGeometry y="104" width="410" height="26" as="geometry" />
        </mxCell>
        <mxCell id="T9cK2o0Pv88uxt9JjLOQ-26" value="input_feat 输入的特征" style="swimlane;fontStyle=1;childLayout=stackLayout;horizontal=1;startSize=26;fillColor=none;horizontalStack=0;resizeParent=1;resizeParentMax=0;resizeLast=0;collapsible=1;marginBottom=0;whiteSpace=wrap;html=1;" parent="1" vertex="1">
          <mxGeometry x="204" y="640" width="410" height="130" as="geometry" />
        </mxCell>
        <mxCell id="T9cK2o0Pv88uxt9JjLOQ-27" value="+ self_attn.c_attn: Linear 注册forward钩子(输入, 输出)" style="text;strokeColor=none;fillColor=none;align=left;verticalAlign=top;spacingLeft=4;spacingRight=4;overflow=hidden;rotatable=0;points=[[0,0.5],[1,0.5]];portConstraint=eastwest;whiteSpace=wrap;html=1;fontStyle=1" parent="T9cK2o0Pv88uxt9JjLOQ-26" vertex="1">
          <mxGeometry y="26" width="410" height="26" as="geometry" />
        </mxCell>
        <mxCell id="T9cK2o0Pv88uxt9JjLOQ-28" value="+ self_attn.c_proj: Linear 注册forward钩子(输入, 输出)" style="text;strokeColor=none;fillColor=none;align=left;verticalAlign=top;spacingLeft=4;spacingRight=4;overflow=hidden;rotatable=0;points=[[0,0.5],[1,0.5]];portConstraint=eastwest;whiteSpace=wrap;html=1;fontStyle=1" parent="T9cK2o0Pv88uxt9JjLOQ-26" vertex="1">
          <mxGeometry y="52" width="410" height="26" as="geometry" />
        </mxCell>
        <mxCell id="T9cK2o0Pv88uxt9JjLOQ-29" value="+ mlp.c_fc: Linear 注册forward钩子(输入, 输出)" style="text;strokeColor=none;fillColor=none;align=left;verticalAlign=top;spacingLeft=4;spacingRight=4;overflow=hidden;rotatable=0;points=[[0,0.5],[1,0.5]];portConstraint=eastwest;whiteSpace=wrap;html=1;fontStyle=1" parent="T9cK2o0Pv88uxt9JjLOQ-26" vertex="1">
          <mxGeometry y="78" width="410" height="26" as="geometry" />
        </mxCell>
        <mxCell id="T9cK2o0Pv88uxt9JjLOQ-35" value="+ mlp.c_proj: Linear 注册forward钩子(输入, 输出)" style="text;strokeColor=none;fillColor=none;align=left;verticalAlign=top;spacingLeft=4;spacingRight=4;overflow=hidden;rotatable=0;points=[[0,0.5],[1,0.5]];portConstraint=eastwest;whiteSpace=wrap;html=1;fontStyle=1" parent="T9cK2o0Pv88uxt9JjLOQ-26" vertex="1">
          <mxGeometry y="104" width="410" height="26" as="geometry" />
        </mxCell>
        <mxCell id="T9cK2o0Pv88uxt9JjLOQ-36" value="input_feat 输入的特征" style="swimlane;fontStyle=1;childLayout=stackLayout;horizontal=1;startSize=26;fillColor=none;horizontalStack=0;resizeParent=1;resizeParentMax=0;resizeLast=0;collapsible=1;marginBottom=0;whiteSpace=wrap;html=1;" parent="1" vertex="1">
          <mxGeometry x="204" y="810" width="410" height="130" as="geometry" />
        </mxCell>
        <mxCell id="T9cK2o0Pv88uxt9JjLOQ-37" value="+ self_attn.c_attn: Linear 注册forward钩子(输入, 输出)" style="text;strokeColor=none;fillColor=none;align=left;verticalAlign=top;spacingLeft=4;spacingRight=4;overflow=hidden;rotatable=0;points=[[0,0.5],[1,0.5]];portConstraint=eastwest;whiteSpace=wrap;html=1;fontStyle=1" parent="T9cK2o0Pv88uxt9JjLOQ-36" vertex="1">
          <mxGeometry y="26" width="410" height="26" as="geometry" />
        </mxCell>
        <mxCell id="T9cK2o0Pv88uxt9JjLOQ-38" value="+ self_attn.c_proj: Linear 注册forward钩子(输入, 输出)" style="text;strokeColor=none;fillColor=none;align=left;verticalAlign=top;spacingLeft=4;spacingRight=4;overflow=hidden;rotatable=0;points=[[0,0.5],[1,0.5]];portConstraint=eastwest;whiteSpace=wrap;html=1;fontStyle=1" parent="T9cK2o0Pv88uxt9JjLOQ-36" vertex="1">
          <mxGeometry y="52" width="410" height="26" as="geometry" />
        </mxCell>
        <mxCell id="T9cK2o0Pv88uxt9JjLOQ-39" value="+ mlp.c_fc: Linear 注册forward钩子(输入, 输出)" style="text;strokeColor=none;fillColor=none;align=left;verticalAlign=top;spacingLeft=4;spacingRight=4;overflow=hidden;rotatable=0;points=[[0,0.5],[1,0.5]];portConstraint=eastwest;whiteSpace=wrap;html=1;fontStyle=1" parent="T9cK2o0Pv88uxt9JjLOQ-36" vertex="1">
          <mxGeometry y="78" width="410" height="26" as="geometry" />
        </mxCell>
        <mxCell id="T9cK2o0Pv88uxt9JjLOQ-40" value="+ mlp.c_proj: Linear 注册forward钩子(输入, 输出)" style="text;strokeColor=none;fillColor=none;align=left;verticalAlign=top;spacingLeft=4;spacingRight=4;overflow=hidden;rotatable=0;points=[[0,0.5],[1,0.5]];portConstraint=eastwest;whiteSpace=wrap;html=1;fontStyle=1" parent="T9cK2o0Pv88uxt9JjLOQ-36" vertex="1">
          <mxGeometry y="104" width="410" height="26" as="geometry" />
        </mxCell>
        <mxCell id="PU5UO4druXcTzNWO9ZJz-1" value="&lt;b&gt;&lt;font style=&quot;font-size: 21px;&quot;&gt;输入&lt;/font&gt;&lt;/b&gt;" style="rounded=0;whiteSpace=wrap;html=1;fillColor=none;verticalAlign=top;dashed=1;dashPattern=8 8;strokeColor=#6c8ebf;" vertex="1" parent="1">
          <mxGeometry x="40" y="-40" width="720" height="370" as="geometry" />
        </mxCell>
        <mxCell id="PU5UO4druXcTzNWO9ZJz-2" value="" style="html=1;shadow=0;dashed=0;align=center;verticalAlign=middle;shape=mxgraph.arrows2.arrow;dy=0.6;dx=40;direction=south;notch=0;" vertex="1" parent="1">
          <mxGeometry x="365" y="330" width="70" height="60" as="geometry" />
        </mxCell>
        <mxCell id="PU5UO4druXcTzNWO9ZJz-3" value="" style="html=1;shadow=0;dashed=0;align=center;verticalAlign=middle;shape=mxgraph.arrows2.arrow;dy=0.6;dx=40;direction=south;notch=0;" vertex="1" parent="1">
          <mxGeometry x="360" y="520" width="70" height="60" as="geometry" />
        </mxCell>
        <mxCell id="PU5UO4druXcTzNWO9ZJz-4" value="module_config (一般三个)" style="swimlane;fontStyle=1;childLayout=stackLayout;horizontal=1;startSize=26;fillColor=none;horizontalStack=0;resizeParent=1;resizeParentMax=0;resizeLast=0;collapsible=1;marginBottom=0;whiteSpace=wrap;html=1;" vertex="1" parent="1">
          <mxGeometry x="200" y="1020" width="410" height="104" as="geometry" />
        </mxCell>
        <mxCell id="PU5UO4druXcTzNWO9ZJz-5" value="+ prev_op=input_rms_norm" style="text;strokeColor=none;fillColor=none;align=left;verticalAlign=top;spacingLeft=4;spacingRight=4;overflow=hidden;rotatable=0;points=[[0,0.5],[1,0.5]];portConstraint=eastwest;whiteSpace=wrap;html=1;fontStyle=1" vertex="1" parent="PU5UO4druXcTzNWO9ZJz-4">
          <mxGeometry y="26" width="410" height="26" as="geometry" />
        </mxCell>
        <mxCell id="PU5UO4druXcTzNWO9ZJz-6" value="+ prev_op=post_attn_rms_norm" style="text;strokeColor=none;fillColor=none;align=left;verticalAlign=top;spacingLeft=4;spacingRight=4;overflow=hidden;rotatable=0;points=[[0,0.5],[1,0.5]];portConstraint=eastwest;whiteSpace=wrap;html=1;fontStyle=1" vertex="1" parent="PU5UO4druXcTzNWO9ZJz-4">
          <mxGeometry y="52" width="410" height="26" as="geometry" />
        </mxCell>
        <mxCell id="PU5UO4druXcTzNWO9ZJz-7" value="+ prev_op=mlp.c_fc" style="text;strokeColor=none;fillColor=none;align=left;verticalAlign=top;spacingLeft=4;spacingRight=4;overflow=hidden;rotatable=0;points=[[0,0.5],[1,0.5]];portConstraint=eastwest;whiteSpace=wrap;html=1;fontStyle=1" vertex="1" parent="PU5UO4druXcTzNWO9ZJz-4">
          <mxGeometry y="78" width="410" height="26" as="geometry" />
        </mxCell>
        <mxCell id="PU5UO4druXcTzNWO9ZJz-10" value="" style="html=1;shadow=0;dashed=0;align=center;verticalAlign=middle;shape=mxgraph.arrows2.arrow;dy=0.6;dx=40;direction=south;notch=0;" vertex="1" parent="1">
          <mxGeometry x="360" y="960" width="70" height="60" as="geometry" />
        </mxCell>
        <mxCell id="PU5UO4druXcTzNWO9ZJz-11" value="" style="endArrow=classic;html=1;rounded=0;exitX=1.002;exitY=-0.115;exitDx=0;exitDy=0;entryX=0;entryY=0;entryDx=0;entryDy=0;exitPerimeter=0;" edge="1" parent="1" source="PU5UO4druXcTzNWO9ZJz-5" target="PU5UO4druXcTzNWO9ZJz-13">
          <mxGeometry width="50" height="50" relative="1" as="geometry">
            <mxPoint x="450" y="940" as="sourcePoint" />
            <mxPoint x="850" y="850" as="targetPoint" />
          </mxGeometry>
        </mxCell>
        <mxCell id="PU5UO4druXcTzNWO9ZJz-12" value="" style="endArrow=classic;html=1;rounded=0;entryX=-0.002;entryY=1.038;entryDx=0;entryDy=0;entryPerimeter=0;exitX=1.005;exitY=1.115;exitDx=0;exitDy=0;exitPerimeter=0;" edge="1" parent="1" source="PU5UO4druXcTzNWO9ZJz-5" target="PU5UO4druXcTzNWO9ZJz-17">
          <mxGeometry width="50" height="50" relative="1" as="geometry">
            <mxPoint x="620" y="1060" as="sourcePoint" />
            <mxPoint x="840" y="1170" as="targetPoint" />
          </mxGeometry>
        </mxCell>
        <mxCell id="PU5UO4druXcTzNWO9ZJz-13" value="module_config: item" style="swimlane;fontStyle=1;childLayout=stackLayout;horizontal=1;startSize=26;fillColor=none;horizontalStack=0;resizeParent=1;resizeParentMax=0;resizeLast=0;collapsible=1;marginBottom=0;whiteSpace=wrap;html=1;" vertex="1" parent="1">
          <mxGeometry x="850" y="970" width="420" height="130" as="geometry" />
        </mxCell>
        <mxCell id="PU5UO4druXcTzNWO9ZJz-14" value="+ prev_op=input_rms_norm" style="text;strokeColor=none;fillColor=none;align=left;verticalAlign=top;spacingLeft=4;spacingRight=4;overflow=hidden;rotatable=0;points=[[0,0.5],[1,0.5]];portConstraint=eastwest;whiteSpace=wrap;html=1;fontStyle=1" vertex="1" parent="PU5UO4druXcTzNWO9ZJz-13">
          <mxGeometry y="26" width="420" height="26" as="geometry" />
        </mxCell>
        <mxCell id="PU5UO4druXcTzNWO9ZJz-15" value="+ layers: nn.ModuleList = [self_attn,c_attn]" style="text;strokeColor=none;fillColor=none;align=left;verticalAlign=top;spacingLeft=4;spacingRight=4;overflow=hidden;rotatable=0;points=[[0,0.5],[1,0.5]];portConstraint=eastwest;whiteSpace=wrap;html=1;fontStyle=1" vertex="1" parent="PU5UO4druXcTzNWO9ZJz-13">
          <mxGeometry y="52" width="420" height="26" as="geometry" />
        </mxCell>
        <mxCell id="PU5UO4druXcTzNWO9ZJz-16" value="+ inp: nn.Linear = input_feat[&quot;self_attn.c_attn&quot;]&amp;nbsp;" style="text;strokeColor=none;fillColor=none;align=left;verticalAlign=top;spacingLeft=4;spacingRight=4;overflow=hidden;rotatable=0;points=[[0,0.5],[1,0.5]];portConstraint=eastwest;whiteSpace=wrap;html=1;fontStyle=1" vertex="1" parent="PU5UO4druXcTzNWO9ZJz-13">
          <mxGeometry y="78" width="420" height="26" as="geometry" />
        </mxCell>
        <mxCell id="PU5UO4druXcTzNWO9ZJz-17" value="+ module2inspect=self_attn" style="text;strokeColor=none;fillColor=none;align=left;verticalAlign=top;spacingLeft=4;spacingRight=4;overflow=hidden;rotatable=0;points=[[0,0.5],[1,0.5]];portConstraint=eastwest;whiteSpace=wrap;html=1;fontStyle=1" vertex="1" parent="PU5UO4druXcTzNWO9ZJz-13">
          <mxGeometry y="104" width="420" height="26" as="geometry" />
        </mxCell>
        <mxCell id="PU5UO4druXcTzNWO9ZJz-18" value="" style="shape=image;verticalLabelPosition=bottom;labelBackgroundColor=default;verticalAlign=top;aspect=fixed;imageAspect=0;image=data:image/png,iVBORw0KGgoAAAANSUhEUgAABGgAAAI8CAYAAACtRZ3rAAAKrGlDQ1BJQ0MgUHJvZmlsZQAASImVlwdUk9kSgO//p4eElhA6hN6ktwBSQg9FIh1EJSQBQgkhEFTsyuIKrCgiIqCuiCii4FoAWSui2BYFBSzogiwq6rpYEBWV9wOH4O47773zJmdyv38yd2buPff+ZwIAmcoRidJgeQDShdniUD9PenRMLB03AiDkQwQaQJHDzRIx2ewggMjs+Hf50Iv4InLHfCrWv//+X0WBx8/iAgCxEU7gZXHTET6J6GuuSJwNAKoGsestyxZN8VWEqWKkQIT7pzhphkenOGGa0ehpn/BQL4RVAMCTOBxxEgAkfcROz+EmIXFI3ghbCXkCIcLIM3BLT8/gIYzkBcaIjwjhqfiMhO/iJP0tZoI0JoeTJOWZtUwL3luQJUrjrPg/t+N/S3qaZDaHIaKkZLF/KDLSkD27l5oRKGVhwoKQWRbwpv2nOVniHzHL3Cyv2FnmcbwDpXPTFgTNcqLAlyWNk80Kn2V+lk/YLIszQqW5EsVezFnmiOfySlIjpPZkPksaPzc5PGqWcwSRC2Y5KzUscM7HS2oXS0Kl9fOFfp5zeX2la0/P+m69ApZ0bnZyuL907Zy5+vlC5lzMrGhpbTy+t8+cT4TUX5TtKc0lSmNL/flpflJ7Vk6YdG42ciDn5rKle5jCCWDPMmADfxAE6MAGOCLKRr4jAVJVNn/51BkFXhmiFWJBUnI2nYncMj6dJeRazKPbWNnYAzB1Z2eOxLt703cRouHnbJnGADi9AQBOmbMtzgWgqREAOdGczdgWeY4H4GIoVyLOmbFNXSeAQd4EcoAKVIEW0APGwBypzwG4AA/gAwJACAgHMWAJ4IJkkA7EYBlYBdaDfFAItoIdoALsBfvBIXAUHAfN4Ay4CK6AG+A26AEPwQAYBi/BKPgAJiAIwkFkiAKpQtqQAWQG2UAMyA3ygYKgUCgGioeSICEkgVZBG6FCqASqgPZBddAv0GnoInQN6oLuQ4PQCPQW+gyjYBJMhTVhQ9gSZsBMOBAOhxfDSXAmnAvnwVvgcrgaPgI3wRfhG3APPAC/hMdQACWDoqF0UOYoBsoLFYKKRSWixKg1qAJUGaoa1YBqRXWg7qAGUK9Qn9BYNAVNR5ujXdD+6Ag0F52JXoMuQlegD6Gb0O3oO+hB9Cj6G4aM0cCYYZwxLEw0JgmzDJOPKcPUYk5hLmN6MMOYD1gsloY1wjpi/bEx2BTsSmwRdje2EXsB24Udwo7hcDhVnBnOFReC4+Cycfm4XbgjuPO4btww7iNeBq+Nt8H74mPxQvwGfBn+MP4cvhv/DD9BkCcYEJwJIQQeYQWhmFBDaCXcIgwTJogKRCOiKzGcmEJcTywnNhAvE/uJ72RkZHRlnGQWyghk1smUyxyTuSozKPOJpEgyJXmR4kgS0hbSQdIF0n3SOzKZbEj2IMeSs8lbyHXkS+TH5I+yFFkLWZYsT3atbKVsk2y37Gs5gpyBHFNuiVyuXJncCblbcq/kCfKG8l7yHPk18pXyp+X75McUKArWCiEK6QpFCocVrik8V8QpGir6KPIU8xT3K15SHKKgKHoULwqXspFSQ7lMGaZiqUZUFjWFWkg9Su2kjiopKtkpRSotV6pUOqs0QEPRDGksWhqtmHac1kv7rKypzFTmK29WblDuVh5XUVfxUOGrFKg0qvSofFalq/qopqpuU21WfaSGVjNVW6i2TG2P2mW1V+pUdRd1rnqB+nH1BxqwhqlGqMZKjf0aNzXGNLU0/TRFmrs0L2m+0qJpeWilaJVqndMa0aZou2kLtEu1z2u/oCvRmfQ0ejm9nT6qo6HjryPR2afTqTOha6QbobtBt1H3kR5Rj6GXqFeq16Y3qq+tH6y/Sr9e/4EBwYBhkGyw06DDYNzQyDDKcJNhs+FzIxUjllGuUb1RvzHZ2N0407ja+K4J1oRhkmqy2+S2KWxqb5psWml6yww2czATmO0265qHmec0Tzivel6fOcmcaZ5jXm8+aEGzCLLYYNFs8dpS3zLWcptlh+U3K3urNKsaq4fWitYB1husW63f2pjacG0qbe7akm19bdfatti+sTOz49vtsbtnT7EPtt9k32b/1cHRQezQ4DDiqO8Y71jl2MegMtiMIsZVJ4yTp9NapzNOn5wdnLOdjzv/5WLukupy2OX5fKP5/Pk184dcdV05rvtcB9zobvFuP7sNuOu4c9yr3Z946HnwPGo9njFNmCnMI8zXnlaeYs9TnuNezl6rvS54o7z9vAu8O30UfSJ8Knwe++r6JvnW+4762fut9Lvgj/EP9N/m38fSZHFZdazRAMeA1QHtgaTAsMCKwCdBpkHioNZgODggeHtw/wKDBcIFzSEghBWyPeQR24idyf51IXYhe2Hlwqeh1qGrQjvCKGFLww6HfQj3DC8OfxhhHCGJaIuUi4yLrIscj/KOKokaiLaMXh19I0YtRhDTEouLjYytjR1b5LNox6LhOPu4/LjexUaLly++tkRtSdqSs0vllnKWnojHxEfFH47/wgnhVHPGElgJVQmjXC/uTu5LngevlDfCd+WX8J8luiaWJD5Pck3anjSS7J5clvxK4CWoELxJ8U/ZmzKeGpJ6MHUyLSqtMR2fHp9+WqgoTBW2Z2hlLM/oEpmJ8kUDmc6ZOzJHxYHi2iwoa3FWSzYVaY5uSowlP0gGc9xyKnM+LotcdmK5wnLh8psrTFdsXvEs1zf3wEr0Su7KtlU6q9avGlzNXL1vDbQmYU3bWr21eWuH1/mtO7SeuD51/W8brDaUbHi/MWpja55m3rq8oR/8fqjPl80X5/dtctm090f0j4IfOzfbbt61+VsBr+B6oVVhWeGXIm7R9Z+sfyr/aXJL4pbOYofiPVuxW4Vbe7e5bztUolCSWzK0PXh7Uym9tKD0/Y6lO66V2ZXt3UncKdk5UB5U3rJLf9fWXV8qkit6Kj0rG6s0qjZXje/m7e7e47GnYa/m3sK9n38W/Hxvn9++pmrD6rL92P05+5/WRNZ0HGAcqKtVqy2s/XpQeHDgUOih9jrHurrDGoeL6+F6Sf3Ikbgjt496H21pMG/Y10hrLDwGjkmOvfgl/pfe44HH204wTjScNDhZdYpyqqAJalrRNNqc3DzQEtPSdTrgdFurS+upXy1+PXhG50zlWaWzxeeI5/LOTZ7PPT92QXTh1cWki0NtS9seXoq+dLd9YXvn5cDLV6/4XrnUwew4f9X16plrztdOX2dcb77hcKPppv3NU7/Z/3aq06Gz6ZbjrZbbTrdbu+Z3net27754x/vOlbusuzd6FvR09Ub03uuL6xu4x7v3/H7a/TcPch5MPFzXj+kveCT/qOyxxuPq301+bxxwGDg76D1480nYk4dD3KGXf2T98WU47yn5adkz7Wd1z22enxnxHbn9YtGL4ZeilxOv8v9U+LPqtfHrk395/HVzNHp0+I34zeTboneq7w6+t3vfNsYee/wh/cPEeMFH1Y+HPjE+dXyO+vxsYtkX3JfyryZfW78FfuufTJ+cFHHEnOlWAIUonJgIwNuDAJBjAKDcBoC4aKannhZo5n/ANIH/xDN997Q4AHDAA4CIdQAEI2P1BQCMEJZFlI08h3sA2NZWqrP973SvPiVMEgAEZyRo/0PftHXgHzLTx39X9z9HII36t/FfykUD0CY/lNYAAABsZVhJZk1NACoAAAAIAAQBGgAFAAAAAQAAAD4BGwAFAAAAAQAAAEYBKAADAAAAAQACAACHaQAEAAAAAQAAAE4AAAAAAAAAkAAAAAEAAACQAAAAAQACoAIABAAAAAEAAARooAMABAAAAAEAAAI8AAAAAJ6KrREAAAAJcEhZcwAAFiUAABYlAUlSJPAAAEAASURBVHgB7N0JvHXXeD/wjWrNM6W00pjVUFUzFdFWxBgaEiQSRIJIYp4l1EzEkChBG2PEFMQUQ6VaiZmKoWoWRMypEtXB//2uf55r3f3uvc8+555z7z33fZ7P595zzh7WXvu3117reX7reZ51nt9skyYlEUgEEoFEIBFIBBKBRCARSAQSgUQgEUgEEoFEYMMQOO+GXTkvnAgkAolAIpAIJAKJQCKQCCQCiUAikAgkAolAIlAQSIImG0IikAgkAolAIpAIJAKJQCKQCCQCiUAikAgkAhuMQBI0G/wA8vKJQCKQCCQCiUAikAgkAolAIpAIJAKJQCKQCCRBk20gEUgEEoFEIBFIBBKBRCARSAQSgUQgEUgEEoENRiAJmg1+AHn5RCARSAQSgUQgEUgEEoFEIBFIBBKBRCARSASSoMk2kAgkAolAIpAIJAKJQCKQCCQCiUAikAgkAonABiOQBM0GP4C8fCKQCCQCiUAikAgkAolAIpAIJAKJQCKQCCQCSdBkG0gEEoFEIBFIBBKBRCARSAQSgUQgEUgEEoFEYIMRSIJmgx9AXj4RSAQSgUQgEUgEEoFEIBFIBBKBRCARSAQSgSRosg0kAolAIpAIJAKJQCKQCCQCiUAikAgkAolAIrDBCCRBs8EPIC+fCCQCiUAikAgkAolAIpAIJAKJQCKQCCQCiUASNNkGEoFEIBFIBBKBRCARSAQSgUQgEUgEEoFEIBHYYASSoNngB5CXTwQSgUQgEUgEEoFEIBFIBBKBRCARSAQSgUQgCZpsA4lAIpAIJAKJQCKQCCQCiUAikAgkAolAIpAIbDACSdBs8APIyycCiUAikAgkAolAIpAIJAKJQCKQCCQCiUAikARNtoFEIBFIBBKBRCARSAQSgUQgEUgEEoFEIBFIBDYYgSRoNvgB5OUTgUQgEUgEEoFEIBFIBBKBRCARSAQSgUQgEUiCJttAIpAIJAKJQCKQCCQCiUAikAgkAolAIpAIJAIbjEASNBv8APLyiUAikAgkAolAIpAIJAKJQCKQCCQCiUAikAgkQZNtIBFIBBKBRCARSAQSgUQgEUgEEoFEIBFIBBKBDUYgCZoNfgB5+UQgEUgEEoFEIBFIBBKBRCARSAQSgUQgEUgENpSg+fGPf9x88YtfbL761a/mk0gEEoElRODss89u/uu//mtUzf/7v/+7+d73vtf87//+76jjJx30y1/+svH3f//3f5MOXbX/P/7jP5ozzjij+f73v79qe/5omi996UvNq1/96uYd73jHUsFhLOmTn/70p2WccW87mvz7v/9787GPfazxmZIIJALzRUA/qb/cEfuW+SKZpS0jAnSvH/7wh81vfvObUdX/wQ9+0NC/5i3KVPZ//ud/jir6zDPPHHXcWg6CibF3jHzrW99qfv3rX485dGmPcX8/+9nPGjbDeohnTM8f2ybWo07TXmNDCZp3v/vdzb777ts8+tGPnrbeeXwikAhsAgSe8pSnNLe85S2bpz/96RNr89GPfrS5853v3NziFrdofvGLX0w8ftIBf/EXf9H4++xnPzvp0FX7TzzxxGaPPfZoHvrQh67avqP/+J//+Z/miU98YvOiF72oOeecc5YGDoPwHe5wh+bxj39886Mf/Wi7en/4wx8u48z97ne/lX3f/va3mwMPPLAQhisbt+CXY489tnnIQx7S+ExJBBKB+SJggkB/+aQnPWluEw/zrWGWlggsDoGvfOUrze1vf/vmVre6VfOd73xn4oUe8YhHNLvuumt5ZyYe3HPA17/+9eYDH/jAqr0veMELmt1337057rjjVm0//vjjm7POOmvVNjrCne50p6I70gNmFRN8z3zmMxt6bVtMGO21115l7H3/+9/f3r3qN134/ve/f7Pbbrs1r3vd61btm/bH3//935cyhkgQ+vJ973vf5mtf+9q0xa/p+Pe85z3NX/7lXzZ//dd/vaqcj3zkI82DH/zgZtpn4bnSWfuE3kPPf9e73tV3yKbf/jubvobnVtDD2G+//RZW3Ute8pLN61//+rmXjzEMA/La1752c7nLXW7u18gCuxGAO/wvdKELNTe+8Y27D8qtMyNg9gTGZgr+5E/+ZGI5p512Wjnmale7WnPhC1944vFrOWDIoyLIIZ48Q8dd7GIXa85//vOvVOMnP/lJc+SRRzbXuta1mvvc5z4r29tfnva0p61pNuTQQw9tLn3pS7eLXfhvyoyZnD/4gz9o7na3u3Ve75RTTmmOOuqozn1dG5FxNQFPgXj729/edeiqbb//+78/mlR4wxveUAbqf/mXfykkzaqCtv2IZ1h7bnlGn/70p5v999+/efGLX9xc/epXb5+23W+K4VhPFH299jMLCXib29ymqcmk7SqSGxKBRGBTIHD3u9+9GETf/OY3mxNOOKG5173utSnqlZVIBNYDgU996lPlMsa6K13pSoOX5Mn6b//2b+WYG9zgBoPH9u1EiD7gAQ8oE3zXvOY1B6+JGKGvfehDH1qlSwSRZBJqLfaYCaHPfe5zDYLhjW98Y7Ezot70t0tc4hLl5wtf+MJCBv3e7/1e7F71+apXvarYKTZe+cpXXrVvmh/uB0EFo/Oc5zy9fdGzn/3sBrFGD3v4wx8+zSXWdGyth7EZ1JENoc6f+cxnyuQg/fB3fmcyLXHyySc3z3jGM8rkMF1OWVtRJiOxSe6acs2VblEybZjE2HpQ6h/5yEeWw7Gtf/VXfzX21DxujQj83d/9XWMA2WmnnZo3v/nNayxt8adzh/zVr35VZiPOe94NdW4bdbNCE8Nd9eY3v/nEc4KgWQ+yzKzOpHcaY3+7292ut97az41udKOV/W95y1saA4OB/ypXuUpzs5vdbGVf/eV973tfGSTrbdN8p4CsN0GDfHr5y19eqnnQQQetkBrtehv8v/vd77Y39/5uE2AI0zHnT3p2cUHuqyeddFL5ede73rW5yEUuErtWPkMxUGYoBs961rOagw8+uBAuBxxwQJnRu/71r79yTtcX5NRLXvKSrl3bbXvUox7V3Pa2t50p9AFBk5IIrDcCyzb+zBsf/YO+CTn8u7/7u6OK17c88IEPbHiS8lIzix+G2agC8qBEYIkRMMlBTMRMEp4mxt/zne98zQ1veMNJh3fuN9lqcsw4zJh/8pOf3HkcPcVEEj26TULwuCXe8wtc4AKd54/ZyNtYXXjSmOR5zGMes+o0dt+9733vsv81r3lNIZZWHbDth7Cs8Jr5sz/7s0I4tI8Z+zv0Tn3XHe94x97TeBvzOBLBYgIp9KPeE+a0o74Ozxe/PZ+nPvWpxdtIuhN9KG+aSeI8hBR9nHNF2NiTzlu2/aMIGrPkZnXHCNexRYDlIWDMxgoFnPGoMY7pPPrYzbHXy+MSgbUggInnkkeWhciLwZlHzKSZCLMWMTCuB0HDg6HPyOfiamA0kF31qlftfWxtLx9uqHINCJkxe2Lm44/+6I96zxd+xRtljCDm3va2t405dCHHIDApNZe61KW2c0HtuqAZM679ffLWt751MI8NgqtrIP7nf/7nqXCAmXobsPfee+/O6tSKgTZBQXSfL3vZy5rDDjus+dd//dcyvlEOhjxpKId1O//5z39elATb28TQBS94weaiF71oc/jhh3fWqWsjhdKY9Yd/+Iddu3NbIrAwBJZx/JkHGAwFM7gmcr7whS+UvsS4YHb+T//0T4uHnfd4SIQmmCVHPuv30vttCK3ct1UQQLaEDjjNBB1va2PmrCJ0iLev0BWTWV061ite8Yqi4/3N3/xNeZfra4UHzVq8VZS38847Nw960IPKu09/MvmOZAmhF/NEtk8fI7y/1h8cRweRw5EHyCGHHBKnzvQpdJ8II6Kf9YnJS7qb/oouayJpPaT2jJGPMvSyK1zhCs1jH/vYEiYKp5ve9KarcOyqG6xNKj73uc9teFAj2/bZZ5+uQ5fau2YUQUOpjbCATgSqjYtKdEThbceuVZfd7mu44V/jGteY6rztCsoNicA6IBCDhksFkbEOl13TJcK9dczgfOqpp5ZrUX4pvosWHX2fIFbMeFzxilcsCR77jmtvRwJwpxRqyTPOzIyy2kROnMf9fQw57HiDzUYRNLwTY3BHaNcDadxL+9Mx17nOddqbV34LNxoSs8y3vvWttztkmsTNxiVhBYRSYqDvklAE7GOQIWgIw0s7oOQJXeJR8w//8A+lXZQDWv8ohv5CKGef+MQnipLWRw6ZsBgjFJa//du/LYdOchUfU14ekwhMg8Ayjj/T3F/XsUhxnm7h2RnH0GERVv7M+h9zzDFlljb2tz/1L/pNM+GMMfkdoo9pH5u/E4GtgkB4UNMFbnKTmwzeFjIncrVMOnawoG07kTveMWO1OrQJGnqB7XSMrkmgyL1iUj4Ipr5r1oRL1zE8ZE7Z5llrksf4jSyoJ/vpCDxbTLwgjUzshdAhw/v3Hve4x6A+Fef0fX75y19uPv/5z5fdSKkh4Z3N+1tolrQeG0HQtHPHII3ojB//+MeLF+Mk3N3fPe95z0LChT4v9cCf//mfr9y6/p2sxUtqpbAN+jKKoDHLzCVqSDS0D37wg81lLnOZocNyXyKQCHQgIMkat09ue2bkNqswaCMBmc6UcE1EXNQidKgOD4rBGdFqtnGSGPTbrql956gPQ/2P//iPF55riHLw/Oc/vySdlXdAPC8XzWUWMdoRPnqXu9xlaW6FYhSrMQzlBKpn67xftQJln7EN6WZGbWxoGSOOUkYmeYS5JuXDrJYwqi6FgYFMsSRDHjQUvXCJLgdP+PeNb3yjHOFTyN5YofzwMkrZMRBYlvFnXk/D+8t4Q8IQk3+Sl173utdt9OvGNu8Z4lYI00tf+tLBvkF4peN5ZuqX1svomRceWU4iMAYB70us8BikLp2OTlSLbRIChyAQTEIRnmrPec5zYlfvpwmcPjIHoYGI6BpLTaTxEHG9Lk+SIDJ4j/jrEyTrpFWYXEt4o8Vu1BUpUOsXF7/4xYuXLq/tenLHNdXRmG+8nyVXXV3vCL1mq1/veterd3V+118haOgw9L+xYdWe/dhVW9sXDl3EdhOCtV5mG+9lDhUwfNOb3lS8ok1yDomoA3mNPKcnPOEJJa9OtAl6F9EWl1VGETQauZVahkSGZhKzmF7OSexkPGgvet1AnDsUQzdUj9yXCCwjAmbzuTtudjEbEEZx1JUXgb9auHcGQcMrIggaZIqEapOEp02boOGFI2REqFE92CmTqyNPntpYRnR1reoT1zZg1Ix7bPdp6VRhUl3Cw8GqHWZfxfHykhnKZdNVxmbaFn23AVK+pmWR1772taWqZlv6npUD6hAFnqDtHBHcjpEXl7/85VcpV0M4CPtl5CExhGsNCSPvcY97XDmEMhQKRH2O5MxE3drhUvVxCJpXvvKV9aZR35U/zXkM1iRoRkG7JQ5alvFnXmCbTAxyBimtPw/hLs/Y8l7LcWGc0NcMhfmbHNB/eteNCUnQBJr5uZUQMI60PX2F+ra3sRlrgqbeH97Uk3CJ97A+zqo8Qx7mPKe7vKdNINIHLTYTOiEipU4uiywxphNjdJcX3D/+4z82/tpiclU+PHpon9QpOlwnvIwRFe0JTmUgjP1NEnY2soUgk8fILrvsUnQmk6uIIgT9GM/pCI0ac42hY0z0ThL4TyJoEGRWkJVWBeFe61ZC30mbCJp03Wn28wyLieo+MnGa8trHjiJo2id1/Y6XRtgAwV55cceIF6M+Nl6SMefmMYlAIrD+CIgT7TLm3/ve965kpI9aIZ680wbtmkCJ/fUnTw6sfj1wxn4xs1YCCE+D2C4PDOYdi27WJAxLrq9d7DkjF6nDNZ1R3iX1LEjXfoQyt3Zx0HIGmbUIcrrr+M26DZZBpPeRVV11R3S47z4x8C9SJGwOA8ts2pDUhEdfqK42JKGxmT4EpOdPiemTGJSDhOw7zvZwqUYE1WRRfU4QNNOEN2lzXe27LpfB6J2Rw20ov45zTJggnlISga2OQIQW8Joz89olEv5aXcRsr37ebO2QEcNI877pT/WrjIeURGArImBM7ZpEl2RbHrla2IYRQi28fVKUBT2OPdilA9blzvL99NNPL6cZD0021tcwpjPy6bVCFbvE6kd03HkKncNfW3jWjCFoguwwSTXmeNdx3wjnAw88sBBeJk3HrECHiK5t9Xadh36zAWIpbTzBJN2lq/9EgnkGbYn8nfprImw/Vu3U/mJ7+7y+37Cf1E6di7CSAJoId3vYwx5Wvs/r3yiCBkskDteAJTFSlwRBE0YKly2G0JBYy96LS3GtkylqBJtdsHNiCP0x9NyDeodxOKb+DAHufs6nmPubZBjW5VICMMLf+973SqZwyr+GP6YcxgiFXEdVvyjui3HleTJeo151R1bXwXcvHlaa8gKHWryQ7hEbqiyGUG0w1cf2ffeimcXSiTmXd0Y77rTv3LVsZ8SHQQeLrg4jyucl4nm4T8x/n4i95AZNPK8w2AJD29vPxLZaPG9eZ569a172spctuHs3h+pYl7FWTPUF/tpCOUWkhDBOKbfE4DcpPvaf/umfysxLV3uL/oTbaFvM+GsfBt3wrpHlv0siZlV75Eo5q/Cg+eQnP1nc4vvy0Mxa9nqdxz00BtxpCBp9B5JkI0Sbql2qJ/W58Y6pKwUNGeIdqv/0xd7BEGTGGIJmzKxJuPYOJaQOgmYovCnqFp9Wkegbj+MYM0tCLoRWPe95z4vNnZ/wkMhwrBhD9O/6Iv2esYdS0/Xu2s4rjkRf1x4vuDbrP/Sl3if9/ND9GavkGhCSIjTNM9MXThJ9ur6dON74OyRIX3Vr1zfO6bsffay2ql9SPyTy2BC6KHvWz2nHiLgH12uPP+7DWDNWEPGTxnhjhL7HWEhv8m7UesjYa81yHGzC49M7PjRmym1FR9UGhEMMGUD6T8lL9aeIGomGt6LQOSJXmPe0azyO+67fNd6BQ7PZiOQIS5iHfhdtuv3eas/eSX0HLyn9Rl8fIDcYfVgfzrahv4aNE/c46XOtupbyN4uuH/fqmXctBkN/axM0wm9gADd25CQbB1EQOklcLz7pHOxR4lMdEDryj5iwMWkh5Lz9jOIddyxBZrTHqfCs6Zu0Kyee+4+OvygvOauERsh5fc2u7/TdIJ3k0JtGEMq8v3nfmEQVJaN9D0ms9Dl0TN8+Y25gxrvKIhrTin51rJdQlD1J74nj6k+5giR4niTaewivzA0haI47123MklaMm7ZCDHgvVG2cemEmCbAJt6Qxiu6k8tZjPwXSClE67Ogo4ro6AR0ERrNL2TBQMNAZFx5mewlag9d+23IhyKcQymyUXX9S+rgMcqUNRbPer/O0koCZ5b6BRwOU5NVL7ZriMrngGbQMBrV4ll6ovuSuzvXS6Hh1znA58sgjyxJo7fq5L/fnmkODtetTwGGNyDPY1kKJlPk7Xvh637y+U8yOPvroUpyO6QY3uEFn0bVhow1g2NvvSJzIvTNCd4444oiVWYjA0HF9qzhRKpEOoVxGmfHpmjo98bB9He16Ywo/7YkSNKbDi7bXHjzdYxA0DIC2yOruvfNOBEHTPmbevxkh2PO+Zz3v6y2iPAQT0W7HJGaLOnh3JerrE7NRkUS675hZtiOGhAv5bIu2bQYvjFOffvsLGfL6iWMY0UNGh7GOcUmm8aAZImiQDARpuNkFIWPmqMvVu6/ulPTwnou+ThuKHABIXIn9a3LXmNKljJkN8xy7xmDjgqTPcuj0iTh64xORJFHfNCSSPxrXTD7oX9rSvh9jlbGUot1up5R/4TSL0ndmHSPiHtxbe/xBXspZMFZMzvX1DcY/Y7p3sxb9zy7byBLeLEPvXn3OrN8p1aG7TTIS9Inaqb5FKOgQQUM/cB/GMP3qViZojLEw0f8N5bZiHIW30p577rndUsT1M9Ru9KvImchzUu+f9nu06dBLvZeMd+9yEEHKpJNKeO+djVlztolwFZOLbd2TIfvoRz964iThPHStzabrT/sMkFv0d8J4nUTOOC7ezS4d0PsVYtVFYUL6e0QvgsYfu0f7ZAPVRLH3MgzqmDSJsnwGQTM0wRrH87wLPT62zetTmxtD0CDN9aXE2Brj6zT14EVDV0OkmnBk39dhQtOUNelYejt7FOnZ7v8nnbve++t2NnRtY5Z0CASZP28Z5UEjRhdzaaDWKLFt9Ytm6Vkyyctg3pVfz/IQK5RMschhRLo+40xHbIbNdp15FznjWB2OpdTCPV6DNRjpXMzQKMc1DO4+uwQTLTO444kydSiURy+1mQ2kCGXX8+piuetyuYudsm2GlWJEmUSyMe6RSRRx9+P56gSx30OKpfMNsOoeOUfa96g8JAOiC+nR1QmrH88kg2AYLjoNs6nuzctttuUxj3lMURzVva+c+l6n/S6MJwgaz6SPoJFXIiQGAbGyXVKTK8ofKwwZzzLaHkOOIUnR8MyRF9rEO9/5zuK22FXuemPKkIrZFHUf0+kNDc5hvHUp8N4jShalzEAVOHXhENsM0pO8RiYZcMtMzsCBMkB22ubWWyszZePAP++jXEB9YhBeBEGD3NaO26LvnGRsxTnaD28Pbab9Z+atHtvinPpT/619eQfbM3X1cfE9lMEhgmYWD5oofz0/GQyWs9SPU7YoKNoO/I0T+vUQ3kBwphd04RTjplV0JFqMdxb+xpL2MqjGPsYghag+1nHRBxoXGFbGH1657XxDUbdFfLof46kEmOFSzeBTB+MYHUI9GaIHHXTQ3JdjnscY0YWLfrvtGds+rg5p7xqLPS8GlTxI0cdrE/pP7wfsEH5mg+EnWW8txn2rtswiyHtL+4aEB6v7al8njolPbdy5xu2a6I399SddR5v3Li86xLO+7np/pxsaN7U34cj6gq4JRe9rGMTq6Dudrqt90F9iwnYavWjMvetL9E1IWQa8567v9mx5iqu/fouxSifVHiMCgD6sf9FmPX/3hBQwbpok7fOcnYeutZl1/TG4O8akGewQeUPkZl1e9O1d7SSOQ5R7VmwVREwQFcKu9LHGiLe//e3NAQccULy2tVl9S9hNbAh/xv+QIGjGeNDEORv1CSNEv/eGvRk57tr1gYU+tuv9dCyb6rDDDitjprEdSbmoRS88TzaLOrFNZxGEeUwqDp3v2ZtYce+8jMaKNgrTMbaKMtnzkZ93mgnOsfUZRdC4SYoxhZwBRPExyxIvEAOf9HlYlJ1L/o+hFkwZZQU5wG08FECDPkXTDF6faPgevtkoJEvt7sxzhZJqIGEA8MLoWs3HgIEwM0D4lOm8ZjwRJLxjuJ6LK+SyPjRDyIA208fV23kIGJ0ZoVAipBAuOgSKk2XkDGx9IoxFnCCCwj1qOyH1Pcp1YNa0K47VgCqmEOFkAMTsCqeJl0ZHKnkfnAySnsPY5WyjLmM+uaR7npR+CprOvkui/esoKap+9xE0Qc4x1mK2pqvMepvnIJzBM+DNJKFY23ihaFBwEYVdbv4bgWmsciP8aGznRSnpkzB0GX1dwiuLEmU1DUrXPMT7tpUlFJa6L9qs94sIjbAqZGkYweprllu/rB/2PQiY+NRvIZwRzYzjtUjEHJvB0rbbIjdRJBTV38dsWB9Bg3gMT8PN7EGjH9Lvere0FwZ3ux/iZRs5PcxiDnmywI0nqSR/npkZVst/eo7GkPY44xket82bl1AsjzjiiOKlEOMCxc8KccYz45o+Mwj2ctI6/DNGmI3kxbj//vuvCmE1LlAajRHGVH25+52HzGOM6KsHI6bLcyiO12czkugkSIouvYUuYplZIpm7ZxOkDwOOLmBFPO8K/dLxoYc4h9caXWQWEUJVEzThuYyQjrYzVG7oeGHADR1rTEfQjDl2qJzNvo+eiKDRFzB8hUu0Bemh/6Of0kv0zfTbroTujK4wzOf1TtT1oZeqA4OKh0XozIhBXj48doQ9OS4mAPR1lv+Nfsi96Kv0WXRCE42InLbMS9fa7Lp++77bv2GLdPOOTZoors+NdhD2Zb3PM0TAM8CRDvqRmnzw/nlu+hp/nq3nybYxNtUi3KnW0+OdHeNBU5fDNmT7rUUQWMaMsWIcjMkQThN9odH20Yn1z31ejcZo9phxUz/P7pFPZRHi+ayFoBlbJ+8ycS/TSNgf0+j9Y22baeoRx44iaBzMyEcgICa4rGkQjGiDa7Dk9UomOimMtYZnBmNWoVSPSV7ULp8SRDC4lkicRrxwtaKsY47ZG4ohD6I2EUPZQJgMiXKQFl0zz5R3CoocHQY9A0aXoqP8SIjUdS1utUJ/DDQ6OsTCEEGjE3UvlN86V4OyKUiMXkzzW9/61qJ4IOj6PEmcQ7F2bR1CW9r32EfQqAtFTQdtCdz29bzkFG8us5Qhnj1CnSj58xTX542hY3ff2nR7dp2BG0SETs2gAHO4tuvjWCw1mUYJ0dkojxjo2kaR7d7Hvg7Y/o3A1Ew7L4owVrVrbWpIKdafkK7BGXa8H/rIhF22zeaTRQ0upfAp/jHC9CVjhMfJRghFk7T7s42oy9A1DeqMWyKMlGLWzvCvn9c+ujystENjScyeD11raJ94bX0B8cyC4KrPYaCHBKmoze+0zdOkS8J7xr563Ok6diO3Ma5C8TEGdfVDdAAzVnQC7tKTCBokC08KfXitZLa9uYydYeDzlONJ0/ZUNfNp4kh5JlN40QipQQislxj/hAPvvffeqy7JiEDmeb6IG4qgGeBpxoFVBbZ+zGOMaBU5+ievmPDEYwgF8RIFGLtiBTHjKRKt7t99N1FDKTYrbHLphBNOWNWPm6hpv+9R/qTP9nsX72xXP9FVFtKJIFI9tyHlPSakwtuzq7ytsK1ut/SdLoImPIsdq49jKCMpuwgaZRDYshnmLfpkxF97Io+OZizhWcPLLfp25HPb8NIOjEGOpZ8yaLsImnnqWptZ15/0jGALL+RFrHSIYAlyrO/8IGja+7Uhfavn5FmwL9u2gXOMtUJjPT/jgUkZ/TLvckJP1A61uZqgiYmUaT1otOu1EjTT6F8m78Om5TVc30O5wXP/GfvCKw1JPST6XWOIvlf0hWdAf5+3sN3IrB40Y+sT9z0rQTNko4ytwzyOG03QuBj3Hw0fQYGwoFB58TRsL0wdA0eZYtRrTAiCLmVuzA0w2MI4HXN8+xhK9LTGTxiJURa2MpJWyXo9zcsUZfiEUVtxq/ebqeI66sWKpMv1/rHfDXAUQgbxmHIYtG1ypr4WLxzPkiivq1OM4yk9a7lHOFPsCWW/71peICSQQRfzrcPtSlob9Zr1k7stggaWiJi6jSvTdXVmnq2ZGYqoY3XY7fw4tWtereBMqpvyQmKmPX6P+dwoTClblHHPyr1zn7Sc31AirT4GG5FAsW4rTUP3775r7IaOrfepd8ya1tun/R7G7LTnrefxYUhM26fpI2Mmuqu+a+mzu8oz4DLSecRQzCh6benLu+S4CLFB9KxFjH21mEWNGVYrP5jZqyVmY83K9YVIhCcQ8tf7He+4c9okb132en8Pctl1h95DHo0IGmSY9jX0LmlHPCRrcqbrvuAcYzAdpE3O1OdQyHlWai8Ifn1tTQjUx877OwN9iEhgnBoXkFgMPcRhl3E7bb3qfi7az7RlzHI8gzaIM55jXXH4PBr1356BCb6+Z2G8ZxjTMXjQ1ES7/qnPjX/aegdBM6Tz1GUa24lx3rldHqpxfPSjcY3YvtU+9bX6VIZWrdfEfXqvg6ChwyHtgqAxgdeW8CxGvrbJ2faxs/x2fd4wXUI/0W6jHXsf+/o3ejWvdX29saRN2K23rrWRun4Xlu1tyHE6NH0AqU6XZk/VoUXtc4KgqT3oHGMsNKYgueVAGxrvHc+WsgiE54uwVwd2KA8bYWrarXaqP3LNGN+GCBptmd1RT6To76edBHBtY5R+W/+iTYXoR7XBLtvHuMrmUV8YIlb6JJwK2Oj07iGBLb2KdzG9jt7OyaGdA47jQJDtQ+W195mM8A4GeW/Sf1Himc5K0PBEJUMk/KLq3VXuVASNAig/OlrsMYMrOjJKR/1CacSMVzOIFDAvyCTmtKuCZsu71ojvOrbeJhyHgsZon/blac/QxwBkQLK87qziJZykcEfHxX0esRTK/zTX1OFQ7ik6Y2aM+zx14ppRJ7/7jIw41j0OKc+Oi/LUrX2PFD7PjexyrkdE+dHxr56JwaovQuqcO9pBm6AJJcR7QDm38ojOQdtvEzShhHgPpgkH5J4dhJuOc6dtM/GTBqcai0VgaoBkNLWl3fEaHIncDNh5yjpWu49MC4Km7kucr90pK2ZibJskZm+mSWQa5cE2CMnY1vfJQ8ZAxnsuZge4ldakMNd89dceIucNo5yRZqCvDRHXiVnYvmvOc3sYvdMqxQyu2mNynnXqKst7yDBicDOCpp2BibC42lul6zpD27j0t3NL8Fj0bpL2uGFbEDTqy+NvSHjo1cd4x6Ydu4bKX+u+mtwKQ7SrzJqQYajWv9vHI3MmKY/OCXduRM4kTIyx3kehaPA3gRSKYfv68/4tHj3aQ1/ZvIoiLl7fPA+CZq1jRF9dh7br9xgIYSzIL9IlJpyIWdyhiTr9u/eJ3uJ9YbxMwrLrepO2BYE1ts+r84w4d4igCdIn+tVJdVnm/fpkRqY2rC3Uep9t4ZFgzKPz8YryPnq+NSFLD4x+eZqJq2mw8162dYr6/CDwbZtUhzhWu6enhz7r3EXoWsrtk43S9d1314qcXRMz3muGr/HTeMALhu5Yt5f6/kIHbBvJ3jtRHIiLekyhc7JhpI6on4UyQ/8MfYH3IkIEsWUSlRcNnd64zu4wSTJE0Di2bQMIVfU3RhDyiEDXVTfeLxZqqb35+hbTQOgjqeEDC4RX3zhsMjkmftjifaR4XWf9MyIFSeOdjBDmWs/jiTTJBqzLjO9BfESYt3603WfEsWv91JdEO2RreE/1PfCe5NEbbW8R484s9zU1QeNBY/B0svKdhNHZDmPy8kncJOxCpzxr8iHK1iQCoevGGbLEgD/L+XWZ0SCFN8ULX+8f+31MbGMoDRoVhX0sQWOmkieJc/xFQ8MmDon7GVI4nBt18t1LNSRjFOEor+setasQ9942iGKfz3oWnfG/CHE/nrs2HG64cR2dVWwLo8HgjqDB0OuUaqUgjkXmTNMBOJarK9dDnQ8PJV5NjDl1mySLwFRbi5jdSde3X509SythIFyRTDXBFmVEu20PzmbWhFZGxxvHj/lEeIwhPSjVFI+xoq6IZzgYYENhaa94EjMOZkYika1+lJGG1KmN8rHXntdx3kWD5WY3KChOPOvG9C9d2BgHiOfrXsOQ6jq2a5t+NLxnvL9BGHQdW2/zvrbbcr2/63u8A3Xf0XXcem+rsdff9imlQsmIfmsSkey9HiNR5iRX7Sir7hf1f3Xd45hFfA4p93G9+h7CcIh9s36udYyY5bryEsKWDiG/Xk1k1OXF+MOwHRrPnRNtnm7gmdfPsS5zLd/11fqBsWNJfdykfiP60UnHraX+m+VcnhEIGnqOHBY1sRETV8Y3HvQmIjxbx56ybfKqDp+ICVD3Ne8EwYHVJB23njidpKfXxEKtg7pWtHXfF6W/bgZd33OcZlIUKSJ3DLLAZJ3QVikdukTZpGvc7JogjxC1vtQKyuK1DbfwolIOgkb7RbjEoiaWnZ5GN1f2JNGXyVtkwiD6P9dEzHTpwH3leY+8Y8gXIcEx6dR1fHjPIELbtnnX8bHNeI1AQtIgu9qTzPTXruvyvkGUCeOtCZ0oN/TvOuSITVXnBotj1/qpfyH6YPcv5FD9jFPe7V16Jv49p7CX6/6gFLZB/6YmaNSTB4DB2XLJGFENussdy2y3WRWDt+RDQqT6wNmg+594WUZ4zLhM6rgnFTYvJVEj0qFwN9PZmdlsDxRRl2hw8bv96cXp6gjbx439vdZ7DEXc9TDtY2WMp1Bdlg6uz8iCB/Y4hNKgM9G5Utbi5ZWI0mDC2I5ZYJ8MSYqa8oNtp4gH0TeLEsLLgoIjp5JnzXXTn3wcknHqSPue4yIwNdDWCllg5V2vlZTY7tNAyo0UgSWXDu+TeibEMWGcdt2LQd7ftII4abtqdpWBPBpyGW2fIx8JcgZ50EcCawdBZCGlNpuYgdG/RS6asfXTb1BuJkkYXJOOG7N/LX0LxcAAbRD2HteecWOuTSkSsqb9UfZqA2PofF4w0wrvMv3ZJOwQnbWx0HWdcPVV/6F8Bs5F7A8JzAJDnnBdnq36x4j1R75Muocx74SZzfCqHNsG6rEamTQPL5UhbGLfGIJGG6JD6cfbHodRziyfaxkjpr2e2fATTzyxnLbftjx1fR6hcn8wjIj+0t9Y8Q4EQWOcrcexsWU4DkkQk0J+h6dbtCnbhqQ+rm/GOs6P0KYwSGL7Vvyk20R/YPKp1geCoIkJCToTYtuEbpugiYkr78U0Bus0mIZ365hzpjm2XV7dRuehv25WXR/hZdK9Lbw25N7rEgQD/UoSeYSFUCd9R1uGdEBeJEHgOI/eYhvR53fp9NoVzw35aELYoQgibZH+EwTNNGRGlDXpk0e1CVtCX0ckhSf1pHPr/cYMJBd7r+0pVB8XE8S2IVq8o9OIsnnSeGfb4zeitQ7vinLDXjKe1+FasT8+cQLRZyBmF0HQaFtE2CLbjNcM/CWFZoOoa1c/U9vQsN4MMhNBo+JAjheFKyp2kNHWFjP94ub8eSE0zHqwbB+/2X7Xhv+kwXlS3ecxq8JIQHqFsa8BqpdZOZ2ml4rSLvfPJG8X9Z33s1jrPdZ4T6PkTHtdoXeMli5pkwMIFWSCgcMAhGUnoYRYqjNmaHTA6k1R0/kHQRNKiPNqRcbvsaKj0elghOW6cA2Dkz+GiwTU7SR4yl4EpjriLlJ2yGBEZMiqj9hVJwO8UMRaIjSo/QzqYzbL9yAoEM9971EkiUVidw1sG30v+g4zYdMSNOodROVG38OY6xtwDcpc0BmX0xI03nHhi8jQafqlMXVrHzOkoNbHhmJab+v77vlSUNYiZs7cv77Q+ILs8i7rCyg3xibKuXdbPxCrOQ1ds++9qc+JUAnbalfw+pj295r4DYK0fczY35MmOepy2gptva/+zmiAWZAX9b61fJ91jJjmmsadSNjtnRoiv2uPRP3FNIpvjSWjJDwUp6mrYxmF9QIOsxI0dIxJs+tB0KxVV5z2HjfieG2YF50E0bUXjNU6Y5LG2BjCcEPQxHLH0Y+GF34QwHH8PD/H9DNxvbXoHvPUtTazrt83KV+TmYFn/cm7Qnsxhkh0SxeuvSocG3Zl/f5HGciOvj5TZEeX8G5vT5RoeyY1eTHLd6VN0k9Dt+8qZ9Zt4VVn4sUE5lqE3T1EzihbGDjhNdy1yqTJ5pNOOqnYhxaU6ZJ6gqNr/6zb9P+8dOicbKKhhU1muYYJD4sZkPCWghlyzipZCFQTbDzf2/dYe0puFt12ZoLGAO1lDDYMKyXOE0vaFonhdOAULS+KTP/LIjWbPosRM8/7NBMoazwlQEMXTylsomvWzkwVggaBs0wSRIc66zhrRXue94E46Stbm67FzA93VeSBTkUnbrY5YutrJcS5vGgQKEjJiMsPgkanULu419cZ851yaSZcsmpMMbLG4EIxEJ/rPfNZy3phWl+z77vBxaCgD5AfhtdKdKTOCeO0a3DuK3PSdkszexaTZJJyUZ/P6IvZ4Fr5r4/xPTwYDErtdtU+diN+h7GyViO2rrv3wvMLcrLet5HfKSsIGm1BXrRphNJu9gpJUSvh05Qx9th4ByYZCpIT9vVhcS1hgcKs5P7oSuAax/mkSOpzh4SCbEzkyUe5jVwq9Tncir3jQ/lG6uMnfa9JmaHE1HU59XFd42N97KTv0/QLY3QEhE8cV+sXk+oxdv8sY8TYsh1H91N/OojvQ311PfZYqSnGw2muF8dOeh/iuPZnWweKPk979yza+9vnx/MPQqG9v/4d/Whco963Fb+bvGJwS3fA2xwREhNXCJzaU2CXXXYpfShil/excROREyTerBNXmwnXur2vRX/dyro+G4Y+zPsfeSpHX018xvjX1a/wygzCg30T+pXt7f6BvclgR7x0ickG45d8OK45Jkcob5s6IXtXue1tMenIhqgnG9rHtX87ftL43j7HexWEJ5y7+jb3wKGCIEW7wsba5c7zN68ZBI2wSNi4z3mJqBIinLaeQNYXifrhsUU3kMuHl1DdZmYhaOiC2i8xWTXWw7ecMOLfTASNmeMwTjBTGji218vmwdcvmzqo9CGHHFIyQ0sKuEziwZo50SnEQLJR9ZfLImZoGAtDA5rBchmlzlngJe5znV7rvVlxaaxQRLVb5Ee4UOoEwyWuJmiUSRFB0GgvBhCkZcwwzRLe1FVPg5fZCH/cM+V7wg5buhyBVDPn64VpVz27tqkb7yKDIw8axG54QMXg1zeodpU3aRtjom/WpT53mplyYRwGdQb7UPhEhAHUimp9zY3+TrEJI54hor9bi/Cs4EaKiBOCN8/nuJZ6OZf7stkls/HGq/bM3aTy18sDKmYQJ2HHWyJCQPrqLqQQQYMU5mE3JJTZSQSN8yU21P7NxOkXvbPaDWLGjLpJgy7leujaQ/sYxjERNHYMro9Tr7XINIRcGOhD1zOGh9I+aTZ0qJxJ+6YZIyaVFfslT2cEEDORk0g4/TpvEn2w8XxW8e6t1QMsrh2Enf7bbGuXu3scGyGRftfGd+yvP40x4TmiX90RhIFHL4UTg8tYzkORmKiq+wGTU/oHmDsGQRN6kePnpRspa6NkXrrWVtb1GeQ8SXg0GEOO2xbqVHvhDemA4R3i+fpOv+7ykAnvTseJ4ugS3u7IAgQjmTSB4RgTi7P2Q2wCf2MFwYBEGCv6s8i96l3q8xJWLrLcGB5RLaF/j73WWo5DCLFT2E8mzGoiZS3lGvODLDHp2yan6EpSK2h7vI95+yKxQmqbuZ4Uiv1dnyICYiESUS1y3cxTpiZoKHGYKEJR4yZGAfKyUQa5rSFj2iIztQ573gxT+zqL+E05MKhgfL0ENeu2iOv1lRku7eozRM5oqMEGTmN09l13PbfXCh/MF0XQTHtPOjzKhJki2IaSyshrK9k6Ri7+GH7HMbSCOR96btPWKY5XNwlMJZtVN+RHTdBsRkzNsAv/4QlUDw4xOCPF5iVWnqsVgL5yx+ag8U4FU2/wbw8EUT4yDxFg/zSEoPPlbuhLuhnlz+PTagbEPVlhYK2zKWahKOLGCUpm15Kq86j3LGUwsCgD7tMsbx9BA3vv0SSDbFIdtLuY4Zt0LCM2lLfou+v3Is5HhJgFItPOrpWTBv6Z/Y6y+0I0kHixkqPlSvuU34HLTL0LOUOR5ikofGLMGKyfDmkTNHW4Q3hHxLHtT2TZGNIlzqtzUMS29ielNKQ9dsT2eX9OGiPGXM+svkT1hC43tJx4XZ7xB0Hj2cGzNtrr49bruz7OBBcjTm6CIYJGGHS0kcin0ldP4c+hb21WQr6v7rNuZ+QKB9BnuX9hFfHutROMuobJK3qdCS5jfXgWM56W0TZo4zYvXWur6/rChelk9COeLCHenyCvhyYoYjLB2HDYYYfF6SufQqhiclRf1Sf05CBo+giNvnM323ZLvyPBOUhM8lQ89NBDC0lqbEPqmFRbL0GoRZ/h/Z8XQeM+kD5sr76xib7CPkIQC3MyFgSZHnqX88fq3kHIww7285bzTlMghgmD6EYwxdydCQ+BiCXDYGHS28JIWdYOOAZbM2ldLt3te13Ebx2XmV8Sy/z1XSdmMPr2b+btlKVgL71AY/LorMf9UHAJpY6CHW6Ebe8Zx+ggg4jh3RJeNwaTRYV9MIojvJAyXMtmxJShaRClsNUSiUrnSdDU5c/juxAexornaSaiT44//viyS1uoZ9b6jq+3m12kwNShGvX+eX2nKIXXDOJirWJwM0tBeFNOO2iFh2Af6bXW+sUKAzxFwlW6XSal0YRCuAG394/9TVkwVo75i37OOfoY0kfQWP3B35iQi7F1dZx2MKlsxJZZTwbVepAzUf+Y3UR0n3zyybG585MnQyQqNmPfDjepPaEmESoWNwiPps6LtTYy+Ce9s9EvaOOhW7SKWcjPoTFi0gWRYjyktVPtzvexEmOhd9typxstwsp4epBJoa+UeWLWXw6JIQlvEO+RfnVHEGRbtGF6P72IrsoAC52pxiHGe+0I+YXUIV3H1ucty/d56Fo7iq5vMoDnd+gfnjFyxv2TIR3w6KOPLgQfT4m2Fymj3xLUxARgn7Bn6aAhJpQmCWKXx8Q0f0EA0CmmOa/2FppUL4QV5wgC10n6pgkYYz0RERN9V9mw4H/soyDN+vpf+etgFW1hUpV4doZtfsABB2yXX6Y+HxnFi5KeWicpDiJ+mok5eXfZq/6G2lp9/Wm+j/agYfRxB8KO65TbK0iYVaO8YeQo6VtJ5HrRiCn0cu3w6phEksz7/ilz2HmzUP4Ysl0MMxJH57WsYnZTjhUJZCnjXMh4WwzFKTJo4LMoow6WZtvDVZsSHop9F0HjeIqIDsaKMTGDqzOoByPHjREzTe5/6P60h0hI2/YM2KyYdt1PGKpDg/MYzOpjvLuRpb/e3v7eJrba++O3VbqIZ8zo6RKeUzH4CEWZRrRng0UQe9OcO+2xSCYKtrYas5nTltE+3kwzstAMlhC2vlUdnIcMoaRr3/CPkLBQatplr/U3gkYfbpyyFGWXt6d3WztExI1dramrXpIWRnvu2l9vC6+CCMXzXDZLorq6nohJYrLC8+rztKnPmcd3ROhx21zhXZPbtzbbNeETbt6ILiIMpy01QSM/FTK0qy+iwLvmNMLAsEypGcyuMuUNC2U43pNpyu87dq1jRF+5sd09xUwzcmYactA7xDuMEaEcOd0QZ0Myxktq6PxJ++5617uWWVT9D8PGaidtMWbI8UYYFJM81uK5aptdz75d/rx+e/bqqb68AHizr+f1XdOkIA/zGLOEWbdTHbhfq7h4//Sx7IVFehbPC99pypmHruXZ7Qi6flcbrcfLPh1Q2xGWTRDoIgYsjkEX52Wpz6cPs9uGVhQS3uPc8OZAnCOTg1Dueu6zjMkRceF9mEX/76pHvc0EAscJ9iliBkEzRvSBPMFNOD/96U8v4c1DdtaYMutjjJ+eByKWRxiCKiZafJpo0f/axxMvxNjt+dovMmAohYBz6GmIPoKsu9e97lW+9/0zdiF02v1T6DbTEDTC5qONtcvru/4020cRNJQxrupmQ71UDOa2W6gHe8QRR5Twn7aBOE2FNuOxXipMGRcqLk0UDi5i4u8NNjoVL7rZAwNUe2Waed2TcATkDCVVkiOugZQdyj2DDoPIGKLccJ2mEC2j6DgYalxhKXYUQ+wkow8x5gU2sMutYIaLcqCjmaXzHIuPds/7RacRRqS8Dn0Jf83Q6ZgNFDHjO+sskXalTTFSuOQhfOrBSwcraafkXwy7LlfseWMq7xTioy21y19735jfOnUSXlRjzpl0DGN80qy2Msaw9QaTUEIlBesS76gZAESLNsOlcxox0+xcz3I9DGAzwwgaIar+KNGzCDKSwqQfCk8YbZfh0Nf2vctI2LZ0uce3j5nlN9dVnp8UGkaNsMA22Q4DUs+u9F1Lzp1QwDz3WmaZRT/zzDNLEWb5uxTYuvyN+E4Z4dnoPUVsWL60dgempJidMv6Y3ZzGkB+6H/0B0sO4p4/x7tFDuEd7R/Sz8LcIQXiC6SuNj22hgO2yjVw1dhhjlGM8j3Aj/SjS0Gwp3YcHzpj+w3UYaHIvmSiR82ennXYqiqBytJWYPPFs5znjNo8xoo1T/KZkx+yysHb9GR2jT9ybvitEmzBb6b1jRDAgkAjaEoXaWAZfY3qEH5oE6yJPo8y1fhqfESlIFaQRkoPRIESHAQhPbcl90ivCQ7zvutpe9BtyMK2nIP1ilRr1ph/0TRwtol5h0PIUDF1n6PrePZ72EdKpfXS9p4uo63qUOQ9da7Pr+t7VrrDxmGCYFefaq7VPB2RzaTv0T5/eYX8IF2SFd1n7Gwqvfv/7318WqFBPzgbyyvDuY8P6nETGznp/iziPzccGoIfIrzKWKNBHG0/Zs8ZUWM66Ul7cF1vN5DpSxoQxPTakXgxE/xs2Ki+mmqBRhn4XpzBpos5kOV3OdTwzumRMdsV1uz67MIoJ7ohE6Dqva1tXWV3HzbJtIkFjsNLQGfseKPegPtfmNmkzS4U26zn3vve9y4tv9lUnFCvleClqZaWvU5nHfVH4zMp7FkgJfxTCmH12DY1FoiKz4RTpZRTtDBmGFWU4Un5i1ZU23ut5f4xMCkiw/AyAPkHqYX4pTIwHEopM3zlD2z1zbc8fYTRQbBnCUR/bebl1KTvzxhRZ62/eglEn8yQm5pmDJrxnDCj1oBI4eB4MEcqqAUgS9WkN7SC5EAee26IFoceoZlRSeh7xiEf0XrImsQyKCKtTthm6/owVIbz7lIlE5W7cR9AYgBnZEXeOHOLlwnhalIg7p4xQyoxnxxxzzCrCk3JBxhA0FKJ5SuSsmeSiPM9rTlOWNs+FWD+kjXv+fUJxZIw7fh5itso1vVPes4izRwIZk2tlkJEUIdhd19bGjZHyDTFw/THEjZ9hZBhXrVLkfTSTN0YYCcZdHnT+vL8UxyAsleE6DIFpFcFJ11/rGNFXPjI+sDU5ERMUfcdTvtvu+foYzw0+8OW95o/AKMqPMrv61tg3j0/XRGrQKyx44Zn588yjL3Id47jJj0l9QWCizw/3/XnUc0wZQerGsYyWIYIkjpvXp77KWKUedBHv0NByxbucS9CEXqT/7/IGn1f91rscbWut+utm1/WRIDFRNU98Y/xT5pAOqL3BCEl03DYvRzqGsSEkvDe6+hETSfoiwq7TN9FP3E+sLMWGWqThHfVc6ydyI0Kx4TFEaMCHjiaZrc/4jtDwPPXzbPu++6b7OZeniTGx/gvdLxYPivsy9qmTv9oTRj9LL6c/GXuRMtHHRhnXve51B/sFz52OYezQf8iPNqve5P6N1yTqEfewkZ8TCRqNNsgZSsWkONxpbiaUlmkNmEnXoHSZBSPzKlune//7378Y2ZSPSBZbkzNmPeeJT/s+KXZeIo1SjL2GGR4H8hVo0BJmmZWqjfZ2Ocvwm9LNawTTzSjGbhrQa7y95DwUzLbXHiWLur92ErFJs/xmCBE0xPMZ6jyH6qzD4MFlBta7SOoZXW2cQmRWsoucibLniamOvGvwE37Am2wW4WkRs5BmnjebyL2BFCVdoS8MPsQtosOAgc2fRNjqq9qC7CDt2OqycQH/9G2SqiEqZNdH8nUN0rxdDKaEx95uu+22yvDUDs188/QyG61vYigbfOHW5dmFcJ1mpYJ53T6vCaFnyBiGvsT3FBVtl1eFvmXoXYp6IF1jjKG4hKIS+6f5dG2J/shmbP/6YOEtxj7tWpiKMKO4fwqcGVDeIjDUXyM2rHQ2r3GR1w4PXUqptmjGNPQI7xyCzzgdbsd9+FPwuTlHmzeuUGD9GWfdGw8XbSDafF9Z9XZYMOgZDDzJKLRRP6HfxgBtr04mWp8/6/d5jRFd16/H3K797W3RHtrbEWyUdPqTGW/thNTkDILDuNo3Cdgucy2/9XEMMfoUN3n9e5AzJkDoUyYnJ/XDlHsJ5gmPPP3pegqshASEcRuf61kHulF41DJ2vUN9Qm+gi8R7sZaJq75rbPT2tepam13XR55IRdAWbW/MSoDt8+J3rMIjdHySTm9ygJEehrX+lT2AoKR3+/MbERBjuWN5jdBl9MWxio++gOcHve60004r7z2dYB4hSdP2n4HF0Kc+E8kUxLAxls5g4sl7JcrCX3zn8eT3kOiPhfzuvffenYcZ39kYkaulfZA2y6PWWARbf+rVJzwNkfSIHl5MvDQ9h/DC65sARwTzbg1d3DMyma+/nlV4vbovel8snDFrWfM87zzbQP//GZkGSmX0A9MAO4t4AG6cAuWPIsyo3u9nAABAAElEQVQly+ylRuHlCc+Aaco3E8Mo8lCV75NSiLxg2BMPsu9BT3OtrmM1FDPEGqYBfb1mvNVFBwNXLx1lry8XRle9l3GbDikYXy71BkCu6trTjiQ63PijCHru/rT9aWUWTMX6aveY7y6jS/ynQdrM5FDuFZ2rtuu9dR/eY95SDDxGu3d4UixoeFnoO2IArjFgeCvTLEuXO65jvUfaECzE4QqV09HH7G5dHoJavbD0DOlQxPU5jDKusbpTz8KAMzSLSblAuhH9auTTQBjoG4lYajM86yEGJ2SKT+FZQhnagqxv48gYY8yaNTZGMLBqMWNu8ItnQOkx68NQG+uVUJcX37VBbZH0Pf84tu+TssZY9vy4Tbt/IRYUNM8kZtna5yNSIoyBYRfvHkMPgS7WmtttnygfwaEfQ2Lp1/xpP95tYnZ/2tC4rusJLTllG+G3y7ZZ665Qsq5zura5ZyuRIRQRcN6tISPM/VCMhRfyrF2ENycyBWHtGtqdZxjvZNc99G2jQCNVkSkmWSi605RTvxfae03ce5/MytIP9BvTlNtX30nbY3zw6XprGSMmXWst+7V9pIg+mMEHI+P6Ron68ODUluhyY4VRo68wW4yk4NW8ERJjivanHaZsHgRm0bWi9ptJ1z/ppJPKJBTDGxnQFh7+vBMZzXSvPkEYGH/DbtOHs9lC90F0PuYxj9nudLqlcv3pO4g+ji7Ag0T/rR+nEyBN4U6MffpDhrxt+njjdehd5aBt/9SBXWpMcAy9bpq+AMFLJ6LD+vzmNi9zOjESl743FHYVdRjzSc80CWEMHCtwivBjfZxnGJ+eK7JH/0sH7iPHwvMUae1PigeTIj6V3UfO99WR/oRf8EyEhBvD5aZCtnl+dV8KQ3oE3ZzORtQByR55PvuuE9u1Oecq3x9MEHrKVQdkt9UpN4tM9KBRUUq1G5lVvGhDrH7bM2Ga62BD+0RjCyOu75i1bPfiTvPyruVa7XO9QLPkOGiXsyy/tT8K7qwubMtyn5PqqU3PS4ldBKZCAnhv6fiHxAxqnUG/PlaHPYmcqY9fy3eGJoMZaRyzp12Erpn6CL9CmtT9oRn2SCZpwDATYyZhSJBA+g5EQ5DJ9fHaeRAQ9fZFfadQ8RhAaPNoQUAE8RDX5IpuEDbAmSU18+lvyBVZoj7n1cu+R3kb/YlUkhMEEYZQiPwgnu20y6K7FyShdjJpJsd1oi21MXBtceB9IWHt49frtzaBnGHsI5/abaNdD4qWZ+4d5xVH+anfmfbxs/yOGbtJ79qksinTlNWh2b5JZcR+91mL96p27a73Ler7PMeIRdVRuZTvLi/MRV5zqGz1mfZZ6QvlsCEMxNqgGLrWIvZFaGbXZMUirpdljkdA3zer/rpMur6x/rhtXi361CExKRZkSfs4/bB3qS0memriURlICsRHPQY4nyez7SaBTPp5J+g0+me5Q4XD6JvbYmLGxAm9ELnC26++Zvv49m9ELYKDeOb1eLDLtkmSeQkixD0jZXnn08HafwjjIL5hQnfrey6IKvVGYvGA4inTJSYx+8ibruMnbTMJxSvXhK+JDH8EqdXuS03oIlL0ubDl9c0DamiiqH195E88n/Y+jg5sj80kowiatSpWXJ26CBovmJemK1xgDEgaIAImXGXjHA+MocTVuWup0jguPxOBRGA6BAx4ZhfMdnbJ2ASzvEuETCBzgtFm1PHcmGTgdl131m1Cw3jvEKSS0Jwu93oEDmMT498mfSU/M3OqgzfDMGYAM8CaeUUOmTUKR0YzShQ5gzmGfz3FrJWwDwa1QbqdBFmdzV5Mk8DWwL8ZyZnAlUJp0Pf8zMqZpaEc2t4n7j9ciz2vEKTKGGIFAYgQci3vEtIjZrJ48WwmozXuTZga4b48iZyJc6JNG4PXqkNEmVv1k6cND45phcKt/aRsDAL6Sd4AJsu6vA7Xq1YmPF73utcVI2wj6zGv+833YV5Izrcc3lnCmOlDXYL0YO9NEsdppyIQeAghMugKxj56SJfuI7xVCBRvCTqXcXTIOKePmSxTtvFHLjS6Fu/moTEMaWBlN9610yYqpxsGARDkDHKEDjTvHK28e9jQfc9i0jOo9yNvhKwLTfa9T8botn3n9m03Eel560sRTrDqSqBvnBNWR0/joV+Tcn1lt7cj9PSVbA76lz/leubaRxdp1y5jPX+PCnFaa4W4YbVzLVAssHvTukSttS55fiKQCGwNBChxxIxH18yA2QAEEANx0R0vJWMRg9d6PykzGEI2kN+S9c5bjAPGAwrSpPw8Q9c2sH72s58thwixmhcRj1TYSmOShHvIIOTnUOLOIaztE6KmXSCuxuQMogBZZVAYLjJ2USsbTqr3euyvQ5zMoM4SCh6hf9PWF1EeMfvTnpvHrx0B2Au153kzi8Gw9ho0JR+TkEj6tBn/eRuC86jjtGXk+zAtYjvG8SY0unS9MXfvXGP72MkCYxgCZBpxjbatu2jdc5r6DR1LL0OUbKT+Q68bIs+2mn429Dzs66ZBJ5015X4s5xDTOWVxeXgikAgkAhNJl3mFgo2BeiuQM+7TTPAiQyeRaf7WKgZxCQDnLRupnMz7XpS3FlKmro+ZTUSEMApuwl1hgHE8j1Zuy8gZeEa+ntifn9sjoP9Aik4rayE5p71WHr89Aosgsbe/yvAW3m1mvw866KC5hOkNX2199ub7sD44L9tVZiVn3Oe0505LzsQ1loWQaT/7zWCjD5Ez6rvV9LP2M2j/XhcPmvZF83cikAgkAolAIpAILAcCVkUUMvzNbXH5lCQeA8gf4V6UKvHhPNZ4NXEhDvdu+ee4rG9lmYcHzVbGJ+9tsQjInVaHWi72all6IpAIJAKJwHogsC4eNOtxI3mNRCARSAQSgUQgEZg/Ajw1JDcWenDKtlWhkDD+uoQLuQTMiJl5rETVdY3clggkAv8fgSRnsiUkAolAIrD1EEiCZus907yjRCARSAQSgURgrghIHiiXjCWpLU0plEmCVDP4cqHwpvHHu6a9fOlcK7LJChOaJKk3Wa/V58rF8l8ikAgkAolAIpAIbEkEMsRpSz7WvKlEIBFIBBKBRCARSAQSgUQgEUgEEoFEIBFYJgTOu0yVzbomAolAIpAIJAKJQCKQCCQCiUAikAgkAolAIrAVEUiCZis+1bynRCARSAQSgUQgEUgEEoFEIBFIBBKBRCARWCoEkqBZqseVlU0EEoFEIBFIBBKBRCARSAQSgUQgEUgEEoGtiEASNFvxqeY9JQKJQCKQCCQCiUAikAgkAolAIpAIJAKJwFIhkATNUj2urGwikAgkAolAIpAIJAKJQCKQCCQCiUAikAhsRQSSoNmKTzXvKRFIBBKBRCARSAQSgUQgEUgEEoFEIBFIBJYKgSRolupxZWUTgUQgEUgEEoFEIBFIBBKBRCARSAQSgURgKyKQBM1WfKp5T4lAIpAIJAKJQCKQCCQCiUAikAgkAolAIrBUCCRBs1SPKyubCCQCiUAikAgkAolAIpAIJAKJQCKQCCQCWxGBJGi24lPNe0oEEoFEIBFIBBKBRCARSAQSgUQgEUgEEoGlQiAJmqV6XFnZRCARSAQSgUQgEUgEEoFEIBFIBBKBRCAR2IoIJEGzFZ9q3lMikAgkAolAIpAIJAKJQCKQCCQCiUAikAgsFQJJ0CzV48rKJgKJQCKQCCQCiUAikAgkAolAIpAIJAKJwFZEIAmarfhU854SgUQgEUgEEoFEIBFIBBKBRCARSAQSgURgqRBIgmapHldWNhFIBBKBRCARSAQSgUQgEUgEEoFEIBFIBLYiAknQbMWnmveUCCQCiUAikAgkAolAIpAIJAKJQCKQCCQCS4VAEjRL9biysolAIpAIJAKJQCKQCCQCiUAikAgkAolAIrAVEUiCZis+1bynRCARSAQSgUQgEUgEEoFEIBFIBBKBRCARWCoEkqBZqseVlU0EEoFEIBFIBBKBRCARSAQSgUQgEUgEEoGtiEASNFvxqeY9JQKJQCKQCCQCiUAikAgkAolAIpAIJAKJwFIhkATNUj2urGwikAgkAolAIpAIJAKJQCKQCCQCiUAikAhsRQSSoNmKTzXvKRFIBBKBRCARSAQSgUQgEUgEEoFEIBFIBJYKgSRolupxZWUTgUQgEUgEEoFEIBFIBBKBRCARSAQSgURgKyKQBM1WfKp5T4lAIpAIJAKJQCKQCCQCiUAikAgkAolAIrBUCCRBs1SPKyubCCQCiUAikAgkAolAIpAIJAKJQCKQCCQCWxGBJGi24lPNe0oEEoFEIBFIBBKBRCARSAQSgUQgEUgEEoGlQiAJmqV6XFnZRCARSAQSgUQgEUgEEoFEIBFIBBKBRCAR2IoIJEGzFZ9q3lMikAgkAolAIpAIJAKJQCKQCCQCiUAikAgsFQJJ0CzV48rKJgKJQCKQCCQCiUAikAgkAolAIpAIJAKJwFZEIAmarfhU854SgUQgEUgEEoFEIBFIBBKBRCARSAQSgURgqRBIgmapHldWNhFIBBKBRCARSAQSgUQgEUgEEoFEIBFIBLYiAknQbMWnmveUCCQCicAOhsCDHvSg5owzztjB7nq5bnffffdtfvKTnyxXpbO2iUAikAgkAolAIpAIrCMCv7OO18pLJQKJQCKQCCQCC0Hgpz/9afOLX/xiIWVvtkJ/+ctfNp/85Ceb//iP/2jOPvvs8nfggQc25zvf+TZbVVfV58c//nHzq1/9atW2/JEIJAKJQCKQCCQCiUAi8FsEkqD5LRb5LRFIBBKBRCARWAgCH/7wh5v3v//9zf7779/svPPOa7rGaaed1jz1qU9dIaQue9nLNg9+8IPXVOZ6nPyb3/xmPS6T10gEEoFEIBFIBBKBRGBpEcgQp6V9dFnxRCARSAQSgUBgMxv/wnoe/ehHN+95z3vKX9R51s/b3va2zT/90z81e+65ZyniT//0T6cu6s1vfnPz0Ic+tPn5z38+9bl5QiKQCCQCiUAikAgkAonAYhBID5rF4JqlJgKJwJIh8OpXv7r58pe/3NSG/rWvfe3mPve5z3Z3IlTjBS94QXP+85+//J33vOdt/u///q/57//+70aejZ122mm7c3LDjovABS5wgebyl798c6ELXai5293uNjcgvvKVr5Sy/vzP/3yqMs8555zmqKOOav7rv/6r8f2iF73oVOfnwYlAIpAIJAKJQCKQCCQCi0EgCZrF4JqlJgKJwJIh8Hu/93uNUJGvfvWrzUc/+tFS+1NOOaXZfffdm0td6lKr7uZ//ud/motd7GLNpz71qXI8guYGN7hBc81rXrO5+MUvvurY/JEIIGbe9ra3zRUIuVy+8IUvlDJveMMbTlX2pz/96ULOXO5yl2v8rZfU5Od6XTOvkwgkAolAIpAIJAKJwDIhkATNMj2trGsikAgsDIF73vOepexjjz22+da3vtWceeaZza9//evmxBNPbO5///uvuu7v//7vN4961KNKclbhJocffnhzhzvcYdUx+WN9EdjRjP/Pfe5zxWPrMpe5zNQeW5/5zGfKw/mzP/uz9X1IebVEIBFIBBKBRCARSAQSgUEEMgfNIDy5MxHYvAgIqfnZz362eSu4pDXjFXPf+963ufKVr1zu4C1veUvzv//7v513g8jhHXG7292uc39uTAQWhYB2SqYNb3JOEDQ3uclN/Fw32dFItHUDNi+UCCQCiUAikAgkAlsGgfSg2TKPMm9kR0Lg61//evP85z+/EZZz5JFH7ki3vtB7lZPj9NNPbx73uMcVUua5z31u84Mf/KD50Ic+1PzlX/7ldtf+7Gc/21z/+tdvfud3sivdDpx13tBn/HtXnvOc5zT//u//XkLQjjjiiFVhPci3F7/4xSWMTf4gIrfLwx/+8IanFI8qIWy1/Od//mcjye7JJ59cvK3kmEF28Kqqw+H+8R//seQqshw2Eu8xj3nMdmXV5aorQhD5gny94x3vWHIaSS686667lhC8OD4IGuFN6qE+6o0w/Ou//uvmIQ95SMmP5Hhk7hOf+MSy6hOcvvjFL5ZinGNlqQte8ILNs5/97Cg6PxOBRCARSAQSgUQgEUgENgiB1VrnBlUiL5sIJAKTEXjZy17WPO1pT2v22muv5h73uMdKnpTJZ+YRYxH4/Oc/X3LLSPLLOL7whS9cTj3hhBM6i+CJMIsHQ2dhuXHuCPzwhz8sKxXd+973LiTNxz/+8eaYY45ZdZ1TTz21ee1rX1tWRYodJ510UglxQ8B97Wtfi83l0+pJe+yxRyE2HvnIRzb//M//3EgwfcYZZ6wiOZR79NFHl2S8d7/73Qvx8u53v3tVWfUPJOB+++1XVlV60Yte1LzpTW8qSavvfOc7N4hCREpInX/mjW98Y/Pe97632WeffZp3vvOdza1udatyPy9/+cvj8EbOpKte9arN9a53vdKmJbOWb+nWt751YwWom9/85ivH5pdEIBFIBBKBRCARSAQSgY1DIAmajcM+r5wIjEbArDcPADP5ltZlhKXMHwFeCZGXAzkTeWUQMbFiTlyVVwIDftoErXF+fi4eAaRmvC/C0chPf/rTVRf+2Mc+Vn5f5zrXWdm+9957r3jCnOc851nZ/q53vWvFSwYB4tmf73zna650pSs1chFZTptoGzzbnvzkJzdXucpVVrafddZZK2XVX3jIWIYb2feUpzylePhYWYkXD28dIgF1SOSf8du1Xesv/uIvmotc5CLNLrvsUg6LRNd+/O7v/m5zv/vdr+RS+sM//MOyHyljm7+73OUuZdui//V5OS36ull+IpAIJAKJQCKQCCQCy4JAEjTL8qSynjs0AoxERtjjH//4xmz8JS5xiR0aj0XdPIKmJlx4KoWB3vaiQZgxxK91rWstqjpZ7hQItI3/X/7yl80HP/jB8r4ohucLaedd+cQnPlG2W4Ur5ApXuEIhLoJ8sf173/te84xnPKM8c++hUKIQxAySZbfddiublCnsiXcKb5UPf/jDZfuNbnSjOGXlE2H0vOc9r7Szhz3sYSvtzQGIFWI59z/5kz8p3/2L8CZt7+lPf/qqsClLwJO6fmXDuf/i3CAi633t77xz3PM04vpCuYL4mubcPDYRSAQSgUQgEUgEEoEdHYFMnLCjt4C8/0RggQgwZP/1X/+1GLXIDEZ0/LlsGNXxOc+qCOF4wxvesMrgHSq/zj8Txwl1YtDzRhBGcsghh5QQKPsZugxwRnzK5kNAXiAhRjxRzj777EZ4E7KtziX0ox/9qJH3xfaaoHE3f/AHf9B4/ogWIgxKG7nkJS9ZcrkIOZJbRlgcQkbeF0uyE+FEQWx85CMfKdfn6XLd61637K//yX+jftpSeLfE/k9+8pPl67Wvfe2Sbyq2B8nC8yVInNgX+WV23nnn2LTyec4550y1NPerXvWqkodnpYARX2Ah905X4uxFvOcjqpSHJAKJQCKQCCQCiUAisDQIJEGzNI8qK5oILB8CF7vYxZo6rEOIFg8gyY3DMyU+23cXRI4krv54IjCQGZkSqPJokGME8dMljGcGbpfXQtfxdf6Zen/k+5H34+1vf3vJ9WG/sjP/TI3Uxn5vG/+Ii/A6kSdGHhYEicS/IULXnHe1q12tufjFLx6by6fcM7WXiTKIMCKJfHmoaN/IEwl5LXcdculLX7rxR+SFIXe6051W2nzZcO6/8K6RD6YtQcTU9ajzz9TeXnFulHfLW94yNq18Co2CA/Lp8pe//Mr2vi+vf/3rV/Iw9R3T3o6Y8V7UeLSPyd+JQCKQCCQCiUAikAgkAt0IJEHTjUtuTQQSgTkgcOihhxYi45vf/GYpDZnCcD7ssMPmUHrT/PrXv24YnbwjGMJWXKrFtrEEDWO4y+Bl6F7xildsvvvd75aVciScZdQz7g844ID6cgv7jpiy4g5yKzw6FnaxLVhwhDdFfpa4xfBQqQmQ2McT5F73ulf5idT4/ve/X77L2YJsGSNCn/7lX/6lhCB1nYO8RDYSCXzbEvWr22Xkn0EA/fEf//GqU7785S+XeiKPusjDIHza3kKrCql+tEmralfvV4RrkjO98OSORCARSAQSgUQgEUgEBhHIHDSD8OTORCARWAsClu+VI6MOwzArz2idhyiXIfrgBz+4ecc73lGudbnLXW6laKEWcpGMEcZrl1HL6+dv/uZvShFIGiErDGFSJ24tGxb0z+o/Rx11VAmpWdAltnSx8byEEdXypS99qfxsb5cXRlLoG9/4xmU/Qi5C2f7oj/6oLmLwu7w0yJ2b3vSmJfEvry5eWCG1d9nVr3712Fw+rQqFcBSqZSn3kE9/+tPla03axL4PfOAD5StS0bvhPsKDx44gaOr7dY33ve99UUT5tKKUFarkoBkrSFirzD3hCU9ovvGNb4w9LY9LBBKBRCARSAQSgUQgEagQSIKmAiO/JgLLhkA7rGMz1v8a17hGWeo46qbORxxxRAlPim3z+GTICq+Qd+av/uqvSpHCoZA0k4Qnzumnn97pQeNcSx0LyyKWP+bZwAsBebMewkNISEpNPq3HdbfKNYTCkXZYjxw0pA578vsf/uEfSsLfIBYl6Q1iRjvrEm1IzpY65M6qT8SS7UTempqcjJwzyo9rlQO3/ZPziAihQnSGDBE0kiKTyLODnJEDitShUTXhY6Wr8HBznLYmwe997nOfsjS5HD2T5Nvf/nbz0pe+tORoQmQ99alPnXRK7k8EEoFEIBFIBBKBRCAR6EBgfayLjgvnpkQgEdhxENhrr72aOieGsI4nPelJq4zZeaEhL4gErbFENi+GSYKcEc4RRnj7ePsi6elpp53WMLy7vG3a5/ktAawQpbZYPpl3xRixnHd4c4w5Po9ZjYCcKyTClHxHdARBw7MlRG4jz3efffaJTeXzbne7W/kUYtQWXigHH3xwwyMnciohar761a8WDxhLYCNwJBquy5Vw+GY3u1nJrxTePMpGMh577LHlMrWnjDxMX/jCF7bbboN7QJQgSHjsIGQiLM7+n//856W9IRolPybaMhyQMSHqKDTRKmXuRc6dSfLCF76wLBPu3bOK09h2Panc3J8IJAKJQCKQCCQCicCOhkASNDvaE8/73VIILIMHDcAZeocffviq3BS8UHgqLEJc78lPfnLJPyOXSDs3TfuajunKQ1IfJ1kwgbkEsrXhXB/nO0Lm5S9/eXP/+9+/ecELXtDsu+++zTHHHLOyahXj+5nPfGZZ9acOB5ErJQx4Xg177rlnyXfCA4TnhRw0YzyC2vXZ0X8/8IEPLN5Oz372s5tTTz21EDC8uDwXhIaVlJAVxx9/fMkrhKBoeysJc0Om8Dg58cQTG6slnXLKKYUMlKvmFre4RfkeBA3vKiFwPh37uMc9rkHUtHPNWJL6yle+cvPwhz+8edazntXc9773bU4++eRC7HhuNREoVEvb4vGz07kkSzxbq1XJlSRH0b/92781j3rUo4rnToThyQsjGbLzJRJ+zWteU+prie96SW7hgjx2hNXxEmvjENeLT+8DfC91qUsVwhWBVIdQxXH5mQgkAolAIpAIJAKJQCIwGYFuX+3J5+URiUAisAkQWBaCBlS8BYQ+WPEm6o2oYIDWIRfzgpXh/bCHPayR1JcXDcO3TyyjHR43fccwdNVTyAhPgXbOkDjvF7/4RblHSVxf8pKXlNAoBIvyncMbx/0z2HfdddeSFySSvcpPEiE0DHDhVMgAeXx4NkwylqMO+bkaAd5PlrmG73HHHVe+w9SqTpbHfutb31q2ezY8u3igtMVz4SmiDF4nCAykhzbxoAc9qLTv9jkIIW387//+70vY0V3vetf2IaUuyBJt8Dvf+U6zyy67lFAshJDQp/rdQIIgibrKQQypn2tpK+6rTkwc+1/xilcUIkp7hkWsNhUVsx1paFUzJNYkUa4wRoJA4hk2ieycVGbuTwQSgUQgEUgEEoFEYEdFIAmaHfXJ530nAhuAgDAdXgtydRDLZ0sqKnEw0mPeghA58MADi9HYLlvyYCEoJ510UjFGL3vZyxaDnTdDnfOjPu+e97xnIWiG8s/wSOD9wliOvDXK5qVgqWaeDjwOeMQIgwlvA1gw/COUJq7L0wi5kORMIDLbpyW3Y9ntugRt5LGPfWy9qfc7b5g99tij/PUeVO24whWuUDzHqk2dX7UNZF0IUo4gkOpVu4Rq8fbpE6TeUP4Xbejxj3983+kr270TF77whZvb3va25d0Q+jfm/eSJhrAZu0rUygXzSyKQCCQCiUAikAgkAolAQSBDnLIhJAJLjEB4oizTLfA2qA1leUGs/rIoecADHlA8WtrlM7QtmRzGsJVr5OLggdAnjGhGbh12Uh/rXuQvuc1tblM8ZWKf/B88a3hECD3hqSFhLM+Zq171quWw8D5oG7d9y39H2fm5nAhoE8LfXve61213A5FI+Fa3utV2+9ZjgxArbR1RGV5grst7zDsjiXCXIBO150tc4hJdu3NbIpAIJAKJQCKQCCQCicAEBNKDZgJAuTsR2MwILCNBI1REeInQI6QFkVflLW95S8mxsl54C2up8ePNIgnrUFJUdT/hhBNW5eyo68uAVU6bwPnMZz5TrhXElDwgQlrkLgnhPcP7oA5p+da3vlUS2bZJmzgnP5cXAcSHEDaheHvvvffKimBy4fC0suKUHEQbIerEW0eOKCtChSeYekmSLEzqJje5yaqq8QCTzPoud7nLqu35IxFIBBKBRCARSAQSgURgPAJTEzSSD1IgGSHizCcZDt/97ndLnH4oeFE15VgCVKx/vbpL7J/XJ4PJ0qOMLkZTOzbejDelUz2tsmHZU0v0yi1QixUyJPAUusCoE3JghnGWmUIzpx/5yEfKKhmWATYjL/QjjLf6un3fv/KVrxRlWG4LLvqUZaETY4Qh6F5gQvmO/BdxrpVN5B+Q7JFBepWrXKXkRfA9ZeMQQB5oe0JzIuntT37yk/Lds2dUtZfq3bjaDl/Z+yMHyxOf+MSVA5///OeXcB/tbT1ECMcsMvSe6ReJUJNaeNVI4BorQVltB0lTJ4zlKePehZI85znPKavi2EYiDIpBrw9bL4zqe8jv80Ug+l3jknHFWMBzRvifPv25z33uqvCm+V59uLQjjzyyjM/aHW+wEEmvtT1jd1usQqVvutGNbtTelb8TgUQgEUgEEoFEIBFIBEYiMNriZhgeddRRJbkgQ8NSmn/3d39X8jsccMABnZd75CMfWVa5uPnNb9686EUvWjkGObP//vuX2eo3vvGNZSnQvuVtV06a4YsZcqtimAmUfFGyRrkf/ElkyL38He94RzFq5QpgNJkFdF/OU2/LhUqkKOyB8eXezzrrrLKEqRwTDEyEzhg588wzm1e+8pUluSQyiJEqv8DXv/71ssIL4+1v//ZvV2ZSu8q09Km6mcVEesGNizyiSH2QKpZWveMd79jIl9GWV7/61eVZSAzpGVppxioiVodRJ8+JhwDXdiuFMBw8e8SV8hfxnNp1zN/dCHhGlgCuxbu0++67l00IB8Tbsshuu+1WQiXkuyAIC/kxtNE2obss94Q88U4j0IJw/cAHPlDuU+6QIIXCSyfuU/8kPERiV6RrLP/MgwZho69AIvO6kTw2ZfkR4B0jp40+3YpevKc8Z+Scsce+jRKrPUmw3RbjgpWoTGoQExzeW3mbPv7xj5cQvvYkSLuM/J0IJAKJQCKQCCQCiUAi0I/AebYZ37/p3/3bPZYWRVRQJHfZtsoEcsNKEWbtzaZJglmLVSDCPZuXDSIgBFHiL8RMOuNznsKwQVAcdNBBzX777VcSNZrFpvRa7tYMIULi4IMPLvdjO+NXyAHyBoGBPDriiCMKGSLRqJUzeCicffbZjaVI5YygsCI0kEBDYuYb+WGWlNeK84Ps+NnPflaSVDLQLA185zvfubMoq4cgZ3hScIlXdwYeY84SrciUX/3qVyveTTXGCjz99NNL/gDkGFwQVVzSecYgpWCChHroQx9aPJsYDJYThgniykodXfkSOiubG+eOACPe++Z5eTb+vL7+PB/tOdrU3C++oAK9D/K+eF9D9AX6hGUVHnv6GAlWGbC8nBBPyN1aJHNlnPOe82wZuQg2x3k/vW/ez0MOOaQkDnaMcqzkk7I9AnIN6T+X7R3Y/k429xZ6gLZqNanb3/72hbw3thmTkMXGjz5xzNFHH73dylF9x+f2RCARSAQSgUQgEUgEdjQERnnQnHHGGcWD5LDDDitkBpCQAYRhyPOkTdAIgwq59rWvHV/Lp5nzN7zhDY2wIYJUmLccf/zxxZBh/JFYASUIiGtd61qFJKpXpkCycOnmZs67hDu3uvF62akKWZDgU1gWgoaBaeWKvrh7xrMZUQQNsdRvW4Hl/eJaCJovfvGLnQQNLwOJVJW3zz77NIceemgpzz/hWM94xjMKyRUhFpZKbYulXBFPyCaEFK8YBiAvIYlbuaarK9IphDs7Q1G93C/PgMAyjln0J+KBwSo0bBECi6c85SlNF2aLuN6sZZpd32qirclHEx517k8uGiF79ao2y3TfiBleBggVeUTq96m+D2QCr7rwQEC47bXXXoV4CxJGf+Td1x8JiXFMSjcC8qKkLBYBkwH0AZMexo1LXvKSZSx5yEMeUjy7JBAeEuNySiKQCCQCiUAikAgkAolAPwKjCBqeMgiYe9zjHqUkHhxyuxAGQ6xCUjac+w9pEdLOU2OGUyhPkAzzNvjVzyoUSJPIm8KjJwTBIt9FTc7EPgRGCANLksSdKnIm9kVogt/tsJM4xqd8AkHOyDXA66VLhE2Rdu4b25AjjFjkzM4779xZBuMdrnGfdaJRZSDDuKUzAHlhkLreQrza5Ew5aNu/+l6FWcz7ecV1+j49w+tc5zrFc6nvmK7t2mYYtPVn+zuChqGRsjEIIMaQlt7JEGQkYhfBsYxitabIMTJUf+9dLXX/E9v1V/5SEoGNRsD49KQnPalUQ7/Me5SHmO0xrmx0HfP6iUAikAgkAolAIpAILDMCEwmaIDuEC4UCJg9CeDMgAtrGA68aq5YQxnAkuKyBusUtblESIXLx7yJ46mOn/c4rRP3q5MNytoTIG9NnkNekBZd5njZdUodkdBlVzuFZJHSIwEFOniAHysZz/5mR5KXDqDP7Xgv81ddsJeGBE8+hfVxd9zYp5pkp6w53uEM5zXf5agiCQrhF30x/fa/TJkXm0XPEtjAxq/Tw8uFZMK2onxCulK2LgNAHOSxieWGEIkNQaKXnn5IIJAKbDwFjllxlKYlAIpAIJAKJQCKQCCQC80FgIkHDa0P4S72Sw/vf//6Vq0tq2RYeH/K4EB4ffUa9EJvIvdAuYy2/zUpLfBskhXAss3zEvlvd6ladxSNB5GkhiJShZJzCfUKEAHUJ7xtkFZEwNIgoIQ0IJKteWM3pfe97XwmVUuf2rLskxogeIsFoX0JiZSmX7LTN4ydCJMqGbf+EKgmpiDp4RhFaxoPhute9bhy66lPC0sAOgTNtfgfYv/vd7y5lKmsrCw+kaPdb8T7lSpF8ehHifTv88MNLHotIkIvklZwbUZqydgTkk+LRl5IIJAKLQUBoZkyCLOYKWWoikAgkAolAIpAIbHUEJhI0kuLWqwHxvPjwhz9ccDGz3fb4sMNMeMgNb3jD+Lrdp3wmwhjmPUMu3CcSFLuoZaVDhlaYqEkLhEYfscRT5atf/Wop8kIXutDKai1xDZ/Ing996EMrm3gKIVcY8DAMEWYlabDwsSBPYp/POikvj6C+ZZTDY8k5XZi7H38hsXyv30OYxGodcVyX906U2fWJhPMseFn15enpOm8Zt1mtJ8isZaz/pDpr64siaFybVxtPLvksEMNEeKX8NNO2u3Jy/luFAII0yNJVO/JHIpAIzAWBi170oknQzAXJLCQRSAQSgUQgEdhxEZhI0LShYdiHlwCvi67wnshP49w+45+3hyWCJaxdtEi+G9JXH/vHkhZBUDnHjFnkufE7hEdL4GSblZkkIWbk8oRBzPCW4dHTFfbkHKFF4T3jt6VX+2QSQdM+b+y91ss293ketcuuf3OB5xm0I8gee+zR/OIXv9iyt9oVqjjvm+Wls++++xZPD++FVYuSnJkPyvL5yEGVkggkAotBILx2F1N6lpoIJAKJQCKQCCQCOwICUxM0tcG+yy67bIcR75DwWGFg9REiCAXHykWzaBlLRkS91aev3vadcsopPorwfukS3kG18AowuzaN8OippU/5k+dlDCkWZcE9jue91FfuL3/5y7JClfMYyV3eUlFmfjYlFDBxWDsCF7nIRUohyNuuEMq1X6G/BJ47fYRp/1lr33P22WcX4raL7F176f+/BKGP8mClJAKJQCKQCCQCiUAikAgkAonA5kRgaoImDHu3c7Ob3Wy7u7KKUOQ2ka+knQslThA6c8UrXrG52tWuFpsW8ikHiiVqidWHhNx0iVwxcW9DxJIQlvBWsbpRn1dJ7UlhhYtpyRl1jHr7LvyDB06XCJ+KpM1XvvKVO1eCqs+THDieEfz76sZTyBLXxBLcfYmV67LjO9Lo85//fDn/ete7Xm9oVhw/9OnZWPWLEbsI8bwf9rCH9baNRVwzy+xGQFjgS17ykmb33Xdf99wzxx13XHPsscc2lgper7w3yFI5qKxgJYk2j7yUjUEAqb7eK9RtzJ0u/1XzWS3/M8w7SAQSgUQgEUgEEoFuBKYmaCyzTBi1XQljv/KVr6xcSWLcLmH0M0qGkvB2nTfLttp7pis3S5QpJInHCBF61EcsWY0oEv8iqIQsESsxCc2QKBaZIQ9OyKyrXETZyqnzx0S58Vl7/tRhKFaQOu2005pXv/rVcWj5rDGx9HefyKkScrvb3S6+Nm9/+9ubY445pnnXu95VVp5a2XHuF4SR0BSEkjA2HhHqMisOyB7kjJV9FiG8iCLB8iLKjzLPOeec5r3vfW/jfmrZddddO8kvRJpcR/IO8azwzsltpF3MshpWfc3N+F1bsXKTNhxL+a5nPV/xilcUQvH73//+Qi/ruX7wgx8s4Yve3UW164XexBYs/K53vWvxjuzL87UFb3kpb8nkwt3vfvemzo+2lDeSlU4EEoFEIBFIBBKBRKADgakIGopReIbwpuhSZGO/a7WX347rWwVKfhYK8aKlJi8QJ31SkxZDxyFoQuoVlSTfZORLekxqQiW8UOK8vk/hYzx+LKVNapJnyHslliZ2ThA0QjUQKF3LhNf32kfQIBNOPfVURZbnXIezWVkKiSW/TFvOPPPM5lGPelTzrGc9q1zbSlbInLe+9a0zhwC5zlFHHdW+1NL9Rm4it7QHuYXCiwkhIASuLfB/85vfvMqTCnGI0NlqBI0ZcV5MvM2e+9zndratNj7z/n3wwQc3nsWivWd44XlPvEM8hR796EfP+1ayvBkQQLxHcuoZTl+qU5ChxmHEtz8r9EnQvQyC4I5JkmWob9YxEUgEEoFEIBFIBBKBaRCYiqC5wAUuULwhkCtmfSlJ7QSeEf6jEl1eCYxSS+dainJWj4ppbrCuTx8ZobyatOgjaHgvfO5znyuX53UR+XOQGQxvhI0EwAQ5JfzJLB/DHBZCovoE6fH0pz+9ufWtb71yiJwRrkMhjRCmlZ3nfnHdetWs8FqSv4axecghh6w6pV5K3LPry7Vjlj+IJaRPhEF99rOfLaFgT3va01aVGz+EIjFwgxiKXDw1cRfH7mifVukSRkMkjf7pT39alld/29ve1hxwwAHbEZ62+UNYIACRVEHAlUK2yD/vz8Mf/vBCWPG06ls9bdG3u14JdPULERrp3lMSgUkIGGv1uaeffnrpD5B7axGeecYI5RmTawJ+LeXmuYlAIpAIJAKJQCKQCCQCa0PgvNOebvaeMPSFKdVitt+sHFKBIA7CS8BvRANj82c/+1nz4Ac/2KaFiuWwgyDgjdKXw0W9EA9kiLSw37GEghzJTF/84hcXj6D2ilSHHnpoKU/o1Otf//pyXvuf0KjHPvaxJcfK7W9/+6KExzHyIdztbncrPynTdSiEmd7jjz++kDpBCjkwjFv7rNpym9vcJoorn1/+8pcLKeAHb5/63PrAuE/bgmxBEvGMuc51rlPIqPp435WNvEO+hSB6SHgWxfYd+ZP3xFlnnbXiUYSoab9LNT7ylEhGvRXJGe34yU9+ciM0UttCSqYkAhuBwGb2njGWnnTSScXDkpflWuWOd7xjCTvVl5M+or7vOsYH5PGd7nSndfc62szPqQ+v3J4IJAKJQCKQCCQCicBYBKbyoFHoQx/60OJBYQlo3hJytzDgP/rRjxYj8z73uU/5zej6zne+U5Q4uWbMAL7nPe8pxz/vec/rzfEytuJjjgtywLHh7dJ1nsTGkX/G0uGWwO4SeUDkYqEoM6rlExGW5M89tQkgxqZZTzgJ83Gdm970poW04VUjPwyPHGErvGe6VqxBZPEC+trXvlYMerP86io/jFlQbuk8m2J1Fnk0hImcfPLJzTOf+cztQkUk7g255S1vGV+3+0QGSOKsnpIn8/JAMvEEeuELX7id55QCrnGNa6zKd8M7QD4aMq0BUE7aov94a13zmtcseRRe+cpXlhCDE044oWE0dQn8999//65dS7/NeyExsKXYNypBLoNXO+d9FgTn0gObN7ClENBf6K99zsvbBfEb48FQfrYuIPVJxiVjjdxYyyC8heR+Ouyww5ahulnHRCARSAQSgUQgEdhBEZiaoJELRdLZN77xjYWQecMb3lAUNCQNkkDyPmI1ode85jWFuEFQIBEY6QgESuZ6COJDnhyeKPe+9717L4mQuexlL1vIhwc96EG9x9khvwoPISscIUcQOkK2+u5J2JOVktw3L5hIEut6Zi8PP/zw4h3Rlc/H9dTtta99bSOXyynblvdGuliJCoECV14yhPeBa7zlLW8pWKtn1xLgsEA08QAK75xSQOuf+rzoRS8q10N0ff3rXy/hV0KmhvLh1MXwSuJpheiJetb7d9TvCBoGkZA3eZhe9apXFeKSAaE91cLbDPbTGlB1GZv1+zvf+c4S8nXPe96z2XPPPRdWTeQiUvNe97rXdtd46UtfWsLHJF4WEijEKjzGtjs4N2xpBDazZ4Y+9wUveMFc8Tce8XA1xky7mmKE1Vqhb71l1uf0ox/9qHggrXd983qJQCKQCCQCiUAikAhMg8DUBI3ChcWY0ffHM8Zfm2BAWPAKIbwu7B+aaTMjF94W5aQZ/5kBj+S9jFreLV3JbOvikSWMRfWL8Kx6f/2dIRcrzHDznnS8c8OTxnd5XZyDJBkr6v/ABz6w/FFOu3BExvhTJ/u7jnE9IU/y4kzCxLFINgZsKMR9ZTq2Sz75yU+Wzek9sxodBA2PEcK7DJHpufGiaRM0SC6rpWmjW0nMvusfbn7zm5f8M4u6N55uvNuQQG0xm/6Rj3ykQTJLtG3lMcQz0jQEQYaMXYswriPnzFrKyXMTgXkiEHnX9M9jxrH62pHbbSivW338Zvge49hmqEvWIRFIBBKBRCARSAQSgT4ExrMEPSXI2dJOFNw+dCg5bhzLUGKgrlXMBAZBo6wxRITjJt2DY9oyrVLr/DaR1S5z0u9JJMmYOo3FJOoy6ZpxXPvzE5/4RNmUBM1vkYn8M5FP5gpXuEJZkYl3FMLASkaXvvSlV05gRC2TEbRS8YEvQh95eCGeeITN8u4NFL9ql3A8XgJ1n+AAxhpvGWQr0jVCPXj61fLjH/+4eAHW27q+xztSf8Z3YSBjCJqNMiAR6JJ4I6N45+kfEMnCWJHvCOYaF9usQiYH1yTiEEEmv5BPicZ57mnzm1GG8IePtiCMdSy5LnSOx6L21Sdw0SdIKs/TsEu8L6Re1a/ruHqburofba9PgqCJ/iVWl9P/DHlJ8oqM9+XGN75xX/GbbvvQ8910lc0KJQKJQCKQCCQCicAOi8CaCZp5ISfXynokDp5XfbOcYQQkC7aUKwkDYPiMHWOvZd95l9XJme9xj3s0CBo5ISxHLvlmCCNqv/32i59L/ynRtBwQiEQhGzUO8745oU0845AO7RBExrOlha9//esX7yXJzUm9iprfV7nKVZpnPOMZvm5JkVOLMR8iv5b8VryKGPfyZhHPTEjku971rublL395IWeEjAgjtZ0nWFte9rKXlfA9mHrOjPoIlXziE59YSIk4R5ifHFfIOm2DRxkiQFJ5z0DoLKLffvuQSpLSR6L2KGcRn6973esaf+qFvOJVWK9AiEBBrMohFu+u4626JgRICGxbTj311BK2KrcYT0W4ICyf//znr5BeCBPeXEIfkWfylz3nOc/p9XZBQLiulf18d/4NbnCDRvJ574HwVIQR0dfwWiUIOInqTZLYj3y77W1vW0Jog8y3zep8ngn8I/n/vvvuW56J+0SGrofMSrTMep57QkrypJPbTTJ8S5MjYIUfb1bCcT2eRV4jEUgEEoFEIBFIBOaPwKYhaOZ/a1niRiLABZ4ib1Y4FdjfPokujxjLuu+8887FSEPQCB00S88IkAh6q+SfYdwJ7eIxwMhdZLs48cQTi3cO5NveM7bx5BBaRuTT+OEPf1iM0430CFiLAVluZIZ/8lghTl7ykpeUsxEijHTtECGCQJD4XY4rRATSFeGAmEG2yetz5JFHFi+wMP4V5DxEDhHGZrUfwkvSNSRllsssvFGEZ1796lcv7f3oo48uBvHuu+9eyANEGnICOYTEQNZ4frYvWqyuJm+Y0DefcHAPyI4QhAgiq15lL1YFlAQemREeSIglmDP0ER6SZPOq9G7svffeBdsIf0TW8L5Bmj3ucY8rxJm2Cou2uMZTnvKUQiI8+9nPLgmFlfmIRzyiOfjgg8vhe+yxxwpBE/ln7JDQ/yEPeUiDNEN4qZ97kjR7n332Keci6yS8J/apv+eqbZCasCobNuG/Wd8vnmQ87bR9mCA1EVI8jRbZh21CCLNKiUAikAgkAolAIrAOCCRBsw4g74iXCPd55EPKbxGASxhgsdVMLC8axh+iwKpGSAXeNmbX65CnOGcRn2bpJdNtr0Y2r2sxHIW9MfTauXbmdQ3eIDxzrBgX0pUsO/b55F1ArKI1JkSwHLyAf7MakGupCkLKH7KE15tQHu0zwrN4r0iajGiAE+IrvJ6ELPGO4W2DtLDCXwjSgbcLz4OaSNHOkT/yjSE/kDAEkevvZje7WfHuQBjxVAivGUSOpOq2d4UMwQ5xoA37Q0oE+RN1Gvrswh7B7HraLeIiwnraIbtdCXOF8CFpkFgR1uoasJXvCLFx4IEHrlRJXZG0cW/IMPnTYOVZCBMj6tQlCAT9BpIlVudTpuT4PGM8izr5dfTP2ru61iTmVa961XIJ+IeoV5CXEtYT+cxiWxw36yePIqQeUnq33XZrog5d5XU9q67j5rGN5xCvqJ/85CeF7EKipSQCiUAikAgkAolAIrBIBJKgWSS6O3DZYQBkeNNvG4FVgs4666yyAtdvt/7/bwzVF7/4xcVANlvPYJJkeT3xkySXMTnv1WLcoVAAxr1k12ag5ylIrVhCV6gYL4UQBBfPjD5hQDNsGcF3vvOdtzvM/o997GPbbZ9mg8Tl6/kcp6lbHBtkhnYX5EzsC++PW9ziFivkTHtf5EmJ7cLKhNv84Ac/KJ4WsV3ZvF8Y42eccUZsXvXJgwyR5493DhJIYnNtKAiMVSds+yGchxH9pje9qYQhzWMpZW3KCkfXuMY1CmkUyaKDAFGHOpRTOFEIbyLtCfEQpB9PGOSM9nDQQQfFoeVTiJ17hBnhoYJYRG4hSnhxuPeufF6IHG0Y5u02DBPiHmrson8WolSTM46NZ9mVv0ZoFFzIJM8+HjxWRZSnaFKYIGIVvjwv73KXu5TyN8M/icxhyFtor7322gxVyjokAolAIpAIJAKJwBZHIAmaLf6AN+L2uPozKhhj6UHz2yfAKDKLXRtKsdc2Hhw8ERgpZswRNJHTIo5b1CfPGfVjHM9bGKWWbBcWwxOBx4W24a+Wrt+IAzPmjD3GIQ8P7Uty1e9973slVKbOoVKX53vb+Gzv58WB0GFsSsJ6zjnnlPAV+VMY1q4RHjbtc8f+ZqyPIWjW0zOgXffAvivpbxAMdQhTnB/7uurOC8IfYhLZok17VrxxSJ83iLo89alPLeFTSD3kBe+yrutHPXi13O9+9yuhSF0kRhzX99lVf15ekT+Gl4x2x8tHmEuId5SXECKwTWh4p2uvleOPP76chqA57rjjCrnD28f7rlzeOsgrct/73nfl/RDaReSFCbKsbDj3n1XKiP3xPM7dVd5p32vyqM4/0+VdFuFZSJ228CISTqWdCDcbkiDNeNpMEiFwsETaIZpmEWQYT7A+QbRof21yrD7ePcsnRPSHQWRpH0K/QvRLjqu9w2JffiYCiUAikAgkAolAIrAWBJKgWQt6eW4xns2OmsFlVJlpNPvL+DLjvl7hOcvwKBggQ7POe+65ZzEwGQPHHntsyWsxdPw879msOENzDJEwzXXl5njCE55Q2gMDSV6N9ZRJBI22SiLUBhnAsA5Dl8G2CI+iLgy6SIKu4xa5rR2+41qBxdC+rrp/6UtfKtgxcoXv7Lrrrs1NbnKTQq7xrOkjaFzz/7F3FnB2VHf/PkBLKV7cCVqkeLFgAUJwSvAChRaHUAjuJEUaoLhLKS3uVqBQIJDCHw1QXIN7gGLF5Z/nvO/Zd3Z27r1z98puwvP7fG7uyJGZZ2YXznd/ggBAbhQWwYzdp08fDlc1Ej+TuLg7Ak3RwNx3unc8s7C82IC4ghXNSZ6XJIDw7qcwJd4pFvb8bqSa27bbbtshzMTBxvyTPJoQJsl9gxV5liAgktMJ4/dt3vidg2WvL+WfIUQt712GmIa4TkhU0XhJsMgKPvk50z4/R1dddVXarfnNtWavs1KHoneNtohhKSdOUV+EJ4TCam2yImASEhGV86IR95YSKBfN5TEJSEACEpCABCTQXQIKNN0lZ79IgMSJ/JUbI/EnMfuUL2bxQYJK7f8IsAAh2WclYxFKTgdCahC8yP9Rrdwtnh/8VZ6FBNv8FZ6QAvrw12tCpkgy3K9fv7Dpppt2TEuoCH/xp/QzOS5YtPDcMEIseJ7kiUleFR0du7Fx/fXXx5w2LMb5sLhKH4bLL7by+7RJ11HvN4lLYVjNCFHB8PQinOncc8+tGY5Rbbwy5+CAFwP3SqhPMsJYSD5KmBmLPxbJ7bIkRCTG2XnTsfRddC57jG3e9d133z3eJ+88iX2TJY+QagINbfFaYXHMMyK3Cl5N1ZgUiRFpzka/CT/C8lW+kmCRF1IRVhAEyA2DIUgl++1vfxvmmWeetFv1G+8zxB1+XhFz8kYuHwxBJ+utwzHmxCOFZ5sVVNI1I4ak5057jHApjPaEd+Ut9c2Ol2/TnX2uk/DPMgJNpfH5vZcNP8u3wzuO34fV2mT78N8zDE+qfffdN3vKbQlIQAISkIAEJNAyAgo0LUP7wxiYhLIsolhs8hds3PRZFLMwqeUC/8Mg9D93mRYglHWuZggpKedJNW8W8kSQCBXxhdK7LFzxVEEUIyyD54AAw/PBA4TkrCywScJJuFFKVMxfyVmA0Jdro5oL4kDRYrzadVc6xyKdT281wsrw6mHxj8cHVWuyISytuG6StqYwiuz4lGXmgxGus8suu2RPt3QbQaGZRkgSoiE5UbLiDHPgqZWMsCFys5DMNmsIBXg3UXo7Jdz985//3CmxbrY924gHeEAQqoYAhtjGgpyfgT333DPfvPQ+wh2eOfxMZEUQ7oPxMRIYZw1BZ4EFFoj5ZjiOt0oyrq+swQZLuWUQfRBkyR2DEfKHUU0oH/6UBCvEoKzYQvJxLC8qcYwS6xjhUhjiLSXA+b0E05R/JisW8az4vZKukefO7yTERzymEI1rWf6a8BpCpOb++PlMiZZrjdPM8ylkLfvsmjm+Y0lAAhKQgAQkIIEiAuMXHfSYBMoSmGKKKWLyThaThDHgtcFC36nEjAAAQABJREFUir/4av9DgMVLWmSwXc346y6eMFglgYYcEJT5RQAjGSp/PWfxSHgZizfyRPDXX7xxWGDxLJLgwiIWz4X0F3C8THDfR0Cigg45Q35Iz44y0Szk8VxhUbnRRhtVezxNOcfCGC+lm266KYavIESkcs5Un6IaUburxSTRpMiDKR1L31kI6Vj65hxj8T5heeGCY4TRYLQjBwseXVnDm4twScpGI64MGzYshgTxnHifKxmLfNjiKcGzRLwk5whha41Y+pklLCkrgiAeJGGLvDLJ+PmijDyiaDLuIy308W4rMkKP8FxLhniFmIeXC5WNMHJUZcUKfucWGQyuvPLKeCr7ewTmKXQnL9CQ1+nRRx+N86VQLgSyJO4gYPK7hypeyTONe0FUzP7OQBzmejfYYIMoFtOnlvF7iRxVfcZ4EZKfh/eJ7fvuu6/jXao1RrPPp3cXzx5NAhKQgAQkIAEJtIuAAk27SI/D8/AXYf7Cyl/K0//UjsO3W/rWyE/BX5XJQ8Ff1FmokEcCrw3+Il9kLMbIRYOgUsndn7AkFrGIC1lLC0kWjXgw8Zf/e++9tyMPBm1ZCCGqpWSkHGNRxl/HK81Hm3HZ8Bzi3WVB2A4jfwWiGN4e/JWecEAWp2yTewWBrlpoW7OvkcV8EmiSR0aag+Ppvcqfow3hN1j2HN5ceI9gvH9Zw9siheXQF4EmK1xQyQePC7zy8L7AECJJmovwQahTCj3Jjov3HmIMggVJc0mujYjA9ec9eLL9ymzPMMMM0ROGRNopFJB+55xzTkf3VPmIA4hvXH82lIafZ+4BS+FScWfMP9wXoYB4miGyJkMw4WcZ0RQhFYEED5ZsLho8ehBbEcTI94TRj5LnRUIM+WW4D0SXfJgVIXZcCwx5F/m9wDFyB2FJjOLd5fcUbfGU4jklz0DeJZ4FIYM8+yLPnjhY7h9+LzEG4bG8O2uuuWZMygzDrPiT69bSXebGw/DJJ5+M7LOT8fs7eRNlj7stAQlIQAISkIAEGiVgiFOjBO0vgQoEWJwQcpS8V1jQpE+15Mn85RmxACGlyFjE8lf0/F/AWTCwOJ5vvvniX/rxxkB4SX8NZywWQoQnpGtKxxhPca2I9rh9jMU+HgJp8U2+GMQFEn+T4JV3LYk3f/vb3+IxKn3xXhFKl7xB8GwhpI4PffGAQSQgTAVvLxbxhLyQKJcE2ITn4dmC1wved0cffXTMh5TmgjoVeX47Jl8LQgN9MEQYrplr5DqS6MF7jeG9R5heSuJarapP7FDiHzzU4ILoyT0NHDgw3geiCPdKKWZylCAEEZ6IiEPIXPZnjGkQVBFR6AMHfj8g7CDYsE2frEcMQggiE2IAXiXXXnttrCSUrxyE1w0hi3hdIeaQOJhS9oRDIaQkbzmuAbEBW2aZZeK5uPO///B7AzGKnD94KxFehfdSSg6Nlxnjcw9wJkcQQk42rxYeRngvIQ7z7hAyWMsQ3HgHEey4txQClsIwa/Vv5Xm8uHi+O+ywQxTbeSY8OypG4b1IeKgmAQlIQAISkIAEmklgvDGuxN83c0DHkoAEWkuAhR6LPxL6JuMv1/zVmb/AswDEWCjdfvvtMZcH+3hC4M3DX+oJQeCv6fyFmCoyjMeiCyPEJvtX+njQf8ZJAggkiHMs5PlPAUIN4gvCAItmthH9OId4wnk8f9jHU4NzvDsc5zzCSCrPzD7iAwtaxsHbA68EchzhmYGHGV4TeHOR5wTPjjQX4yFi4k1EqA9eN4yd5kIYwqskLebJoYQggViBuMB4iBrZqjzVHiDCKSGBhBQlQSLffvTo0eHOMdWcqJqE90m/MSFUCAqIRghRHEfgoCIYYUCVDOaEM8GP9nib9KngvcW98/PI/a699tqxfdG4PA+EDsQc+A8fPjwMGTIkeqNkRSrEG4QXRKYiNvRPVaPwnCE0K2sIL4Tmcc8IxMnLKduGbcQ9vGsQlVLIZr5N2ud6EEIIA4UNYVz87kLsKzJ+j/G7DpGkHkMQJEF1d6qy4U3EM+O++dlYccUVqz7jeq7LthKQgAQkIAEJSCBLQA+aLA23JTAWEOAv3YQ7ZI3QABaF+++/f8fhtMhNB1gss5BjUcxihbAajIVHynmCoMMiTfthEKgW1lYrzApvgmqG2IKIwSdvhK1kQ1eyniP5toTjZPOo5M+zz8IegQVvkb333jvmEsKrB7EEIbNaaeWi8YqOEX5G+GHeEJLqyV0E82rcs+Nz72W8UBCuEKuSYJU8ihB/sobgsuOOO2YPddrGI6YaK8LRshXhOnXO7CC68MwQZ+CfRGWaIIYhCCbj2TEvogcffjfxQaC54oorYkho3mso9W3XN78z+WgSkIAEJCABCUig1QT+7/+SWj2T40tAAk0hsNNOO8VEqOTAIIkm4SR4DBCCkhJ6MhHeMoRbkICWv0pTspfQEAQZtlPoE2ELJG7lr954Avx2TFiJJoGxhQBhQni3JNEDbzIM7xREGgSBcdGo0kT1K5LyZo0qSvx8I9qsttpq2VNt2UbgJVE5Xno8F0LUuBaMMC68qPi9lQxPqmwYFs8P7yi+CaNqljiDYER1NE0CEpCABCQgAQn0ZgIKNL356XhtEiggQGgC1VUIDUFYwfuF6ln8FTpreBQQtkQoRaqGQ7gDISaHHnpoRzUY+hKuQP/DDz88hplkx3FbAr2ZQErWmnIy4ZnDu0wOFN73RpME99Z7p3oSYYqIMckQowgtIp8Luazwtmu3IRLjnUc4FbmFyAmUjLA5wrUIk8K4TgS2rIcU24S0Ea6WPPtS/0a+8Qgjj44mAQlIQAISkIAEejMBc9D05qfjtUlAAhKQQFUC5AV54YUXOuVDYeGP5wal4yvllMkOWiYHTbZ9b9i+5JJLwnHHHRcGDBgQ7518NXjLkd+H5Ml4iyTPlXZf77vvvhurQCG2ZEPl4EyVJ4RjcmWRpwghjVxYqXw4+YrIL0M1J8LK8tbdHDT5cdyXgAQkIAEJSEACvZGAAk1vfCpekwQkIAEJtI3A2CjQkE+K8CAEDz6EAuE9tNJKK/XqBLZUusJDpkxunaIXQIGmiIrHJCABCUhAAhIYVwiYJHhceZLehwQkIAEJdItAytdCSe2xxbjmehIO94b7wmOG8ExCLLtrlPKmwpQmAQlIQAISkIAExkUCetCMi0/Ve5KABCQgAQn0MgIkDyb8jGpNmgQkIAEJSEACEpBAVwIKNF2ZeEQCEpCABCQgAQlIQAISkIAEJCABCbSVgFWc2orbySQgAQlIQAISkIAEJCABCUhAAhKQQFcCCjRdmXhEAhKQgAQkIAEJSEACEpCABCQgAQm0lYACTVtxO5kEJCABCUhAAhKQgAQkIAEJSEACEuhKQIGmKxOPSEACEpCABCQgAQlIQAISkIAEJCCBthJQoGkrbieTgAQkIAEJSEACEpCABCQgAQlIQAJdCSjQdGXiEQlIQAISkIAEJCABCUhAAhKQgAQk0FYCCjRtxe1kEpCABCQgAQlIQAISkIAEJCABCUigKwEFmq5MPCIBCUhAAhKQgAQkIAEJSEACEpCABNpKQIGmrbidTAISkIAEJCABCUhAAhKQgAQkIAEJdCWgQNOViUckIAEJSEACEpCABCQgAQlIQAISkEBbCSjQtBW3k0lAAhKQgAQkIAEJSEACEpCABCQgga4EFGi6MvGIBCQgAQlIQAISkIAEJCABCUhAAhJoKwEFmrbidjIJSEACEpCABCQgAQlIQAISkIAEJNCVgAJNVyYekYAEJCABCUhAAhKQgAQkIAEJSEACbSWgQNNW3E4mAQlIQAISkIAEJCABCUhAAhKQgAS6ElCg6crEIxKQgAQkIAEJSEACEpCABCQgAQlIoK0EFGjaitvJJCABCUhAAhKQgAQkIAEJSEACEpBAVwIKNF2ZeEQCEpCABCQgAQlIQAISkIAEJCABCbSVgAJNW3E7mQQkIAEJSEACEpCABCQgAQlIQAIS6EpAgaYrE49IQAISkIAEJCABCUhAAhKQgAQkIIG2ElCgaStuJ5OABCQgAQlIQAISkIAEJCABCUhAAl0JKNB0ZeIRCUhAAhKQgAQkIAEJSEACEpCABCTQVgIKNG3F7WQSkIAEJCABCUhAAhKQgAQkIAEJSKArAQWarkw8IgEJSEACEpCABCQgAQlIQAISkIAE2kpAgaatuJ1MAhKQgAQkIAEJSEACEpCABCQgAQl0JaBA05WJRyQgAQlIQAISkIAEJCABCUhAAhKQQFsJKNC0FbeTSUACEpCABCQgAQlIQAISkIAEJCCBrgQUaLoy8YgEJCABCUhAAhKQgAQkIAEJSEACEmgrAQWatuJ2MglIQAISkIAEJCABCUhAAhKQgAQk0JWAAk1XJh6RgAQkIAEJSEACEpCABCQgAQlIQAJtJaBA01bcTiYBCUhAAhKQgAQkIAEJSEACEpCABLoSUKDpysQjEpCABCQgAQlIQAISkIAEJCABCUigrQR+1N3Z3n///fDCCy+E8cYbLyy11FJ1DfPAAw+E77//Psw999xh6qmnrqtvmcafffZZePzxx2PThRZaKEw88cRlutlGAhKQgAQkIAEJSEACEpCABCQgAQn0CIHxxggl33dn5ptvvjkcfPDBYYIJJgj3339/XUMsvfTS4dtvvw1HHHFEWGONNerqW6bxc889FzbffPPY9OKLLw7zzjtvmW62kYAEJCABCUhAAhKQgAQkIAEJSEACPULAEKcewe6kEpCABCQgAQlIQAISkIAEJCABCUjg/wiUCnF6+OGHw4cffvh/vcZsPfnkk3EfB5zhw4d3OldrJzntMMaEE07YqfmUU04ZFl988U7H3JGABCQgAQlIQAISkIAEJCABCUhAAuMygVIhTttvv3145JFH2sJhscUWC+ecc05Dcxni1BA+O0tAAhKQgAQkIAEJSEACEpCABCTQZgKlPGhmmGGGMNtss3W6NBLxvvfee/FY/lynhgU7r776ajw6zTTTdEngy1yaBCQgAQlIQAISkIAEJCABCUhAAhL4IREo5UFTBKTdSYIJo3r22WeLLqXLsQ8++CBcc8018fjAgQPDVFNN1aVN0YG55porDBgwoOiUxyQgAQlIQAISkIAEJCABCUhAAhKQQMsIlPKgadnsdQx85513hptuuqmOHv/TNAk1ZTqussoqpQQacuhQKhyjIpUmAQlIQAISkIAEJCABCUhAAhKQgAQaITDWCDTpJvGGmWeeedJu4TfhV48//ng8t9BCC3UJo8p3GjVqVEe4Vv5c0f7JJ58cLrjggnhqiy22CHvssUdRM49JQAISkIAEJCABCUhAAhKQgAQkIIFSBBoWaL777ruw//77l5osNaJPd40KT0cddVTV7tkkwQcccECYd955q7YfMmRIuPHGG6u2yZ4cMWJEx+7tt9+uQNNBww0JSEACEpCABCQgAQlIQAISkIAEukOgYYGGcJ/bbrutO3OPtX369esXzj///Hj9/fv3H2vvwwuXgAQkIAEJSEACEpCABCQgAQlIoHcQaFigGX/88cPRRx9d193st99+oREvmroma0Hj3XbbLSy//PJxZDx6NAlIQAISkIAEJCABCUhAAhKQgAQk0AiBhgWa8cYbL6y88sp1XQN9xnZTmBnbn6DXLwEJSEACEpCABCQgAQlIQAIS6D0Exu89l+KVSEACEpCABCQgAQlIQAISkIAEJCCBHyaBhj1oyEHz5ptv1kWPPpoEJCABCUhAAhKQgAQkIAEJSEACEpDA/xBoWKAhl8x6660nTwlIQAISkIAEJCABCUhAAhKQgAQkIIFuEmhYoGHeWWedta7pX3vttbra21gCEpCABCQgAQlIQAISkIAEJCABCYzLBBoWaCaYYIJwzTXX1MVo6aWXDt9++21dfVLjhx9+OAwaNCjtFn5/9tlnHceHDRsWJp544o79oo1Ro0YVHfaYBCQgAQlIQAISkIAEJCABCUhAAhJoC4GGBZq2XGVmkg8++CDcf//9mSPVNx9//PHqDTwrAQlIQAISkIAEJCABCUhAAhKQgAR6mMBYJ9DMMcccYZVVVqmKDREnefUMHDgwTDXVVFXbjxgxIrzwwgtV22RPvvvuu+HCCy+Mh7bccssw3XTTZU+7LQEJSEACEpCABCQgAQlIQAISkIAE6iJQU6B58cUXw2233dZl0CRoUJHp7LPP7nK+2oFUxWn48OHh1Vdf7dJ05ZVXDvPMM0+X4xyYa665ws4771x4Lh187rnnOgSajTfeOMw777zpVOH322+/XZdAc+yxxwauHXvjjTfCcccdVziuByUgAQlIQAISkIAEJCABCUhAAhKQQBkCNQUa8rNUE2Co4lTtfLWLQORIQke23cwzz9xFoFlhhRWip0ol4Sbbv95txp522mnD3HPPXaprNsnxyy+/XKqPjSQgAQlIQAISkIAEJCABCUhAAhKQQCUCNQWaGWecMayxxhqV+rfk+EwzzdRl3NVWWy3waYX1798/8Clr22yzTTjqqKNi8x133LFsN9tJQAISkIAEJCABCUhAAhKQgAQkIIFCAuONCTf6vvBMHQe/+uqrcMMNN4S11lorTDTRRIU9v/jii3DfffcFvFWo/NRKI8Rp8803j1NcfPHFNUOcunMt3DM24YQTdqe7fSQgAQlIQAISkIAEJCABCUhAAhKQQAeBmh40HS0rbNx1112BnCzkYkGkOeWUU8Ikk0zSpfVpp50WLrnkkhimtP766weS9xJWNLaawszY+uS8bglIQAISkIAEJCABCUhAAhKQQO8j0G2BBkEGYQaBBpt88skDwkuROMP5qaeeOoozVEAiZ825554bVlpppUAVpIUXXpgmmgQkIAEJSEACEpCABCQgAQlIQAIS+EESqDvE6amnnoqeMLfeemv45ptvIrQBAwaEvffeu2Y562+//TYmBcaT5rHHHusA3q9fv7DrrruGPn36dBxrZKMdIU6NXJ99JSABCUhAAhKQgAQkIAEJSEACEpBAlkApgaaSsDL77LOHvfbaK/Tt2zc7ZqlthJ5TTz01PPDAA7H9+OOPHz1wdthhhzDNNNOUGqNSIwWaSmQ8LgEJSEACEpCABCQgAQlIQAISkEBvJFAqxOnEE0+MXjPpBhZZZJGw1VZbhRVXXDGMN9546XBd3wsssEA4/fTTw4gRI8IJJ5wQXn/99XD11VeHL7/8MvzhD3+oaywbS0ACEpCABCQgAQlIQAISkIAEJCCBsZlAKYFm5513Dvfff3+YbbbZojDTzJwx5KHBA4ewpyuvvDIMHjx4bObptUtAAhKQgAQkIAEJSEACEpCABCQggboJlApxYlTCnFpdHvu7774LhDo1ah9++GG45ZZb4jCrr756mHLKKRsd0v4SkIAEJCABCUhAAhKQgAQkIAEJSKBlBEoLNC27AgeWgAQkIAEJSEACEpCABCQgAQlIQAI/cAKNu6v8wAF6+xKQgAQkIAEJSEACEpCABCQgAQlIoFECCjSNErS/BCQgAQlIQAISkIAEJCABCUhAAhJokIACTYMA7S4BCUhAAhKQgAQkIAEJSEACEpCABBoloEDTKEH7S0ACEpCABCQgAQlIQAISkIAEJCCBBgko0DQI0O4SkIAEJCABCUhAAhKQgAQkIAEJSKBRAgo0jRK0vwQkIAEJSEACEpCABCQgAQlIQAISaJCAAk2DAO0uAQlIQAISkIAEJCABCUhAAhKQgAQaJaBA0yhB+0tAAhKQgAQkIAEJSEACEpCABCQggQYJKNA0CNDuEpCABCQgAQlIQAISkIAEJCABCUigUQIKNI0StL8EJCABCUhAAhKQgAQkIAEJSEACEmiQgAJNgwDtLgEJSEACEpCABCQgAQlIQAISkIAEGiWgQNMoQftLQAISkIAEJCABCUhAAhKQgAQkIIEGCSjQNAjQ7hKQgAQkIAEJSEACEpCABCQgAQlIoFECCjSNErS/BCQgAQlIQAISkIAEJCABCUhAAhJokIACTYMA7S4BCUhAAhKQgAQkIAEJSEACEpCABBoloEDTKEH7S0ACEpCABCQgAQlIQAISkIAEJCCBBgko0DQI0O4SkIAEJCABCUhAAhKQgAQkIAEJSKBRAgo0jRK0vwQkIAEJSEACEpCABCQgAQlIQAISaJCAAk2DAO0uAQlIQAISkIAEJCABCUhAAhKQgAQaJaBA0yhB+0tAAhKQgAQkIAEJSEACEpCABCQggQYJKNA0CNDuEpCABCQgAQlIQAISkIAEJCABCUigUQIKNI0StL8EJCABCUhAAhKQgAQkIAEJSEACEmiQgAJNgwDtLgEJSEACEpCABCQgAQlIQAISkIAEGiWgQNMoQftLQAISkIAEJCABCUhAAhKQgAQkIIEGCSjQNAjQ7hKQgAQkIAEJSEACEpCABCQgAQlIoFECCjSNErS/BCQgAQlIQAISkIAEJCABCUhAAhJokIACTYMA7S4BCUhAAhKQgAQkIAEJSEACEpCABBoloEDTKEH7S0ACEpCABCQgAQlIQAISkIAEJCCBBgko0DQI0O4SkIAEJCABCUhAAhKQgAQkIAEJSKBRAgo0jRK0vwQkIAEJSEACEpCABCQgAQlIQAISaJCAAk2DAO0uAQlIQAISkIAEJCABCUhAAhKQgAQaJaBA0yhB+0tAAhKQgAQkIAEJSEACEpCABCQggQYJKNA0CNDuEpCABCQgAQlIQAISkIAEJCABCUigUQIKNI0StL8EJCABCUhAAhKQgAQkIAEJSEACEmiQgAJNgwDtLgEJSEACEpCABCQgAQlIQAISkIAEGiWgQNMoQftLQAISkIAEJCABCUhAAhKQgAQkIIEGCSjQNAjQ7hKQgAQkIAEJSEACEpCABCQgAQlIoFECCjSNErS/BCQgAQlIQAISkIAEJCABCUhAAhJokIACTYMA7S4BCUhAAhKQgAQkIAEJSEACEpCABBoloEDTKEH7S0ACEpCABCQgAQlIQAISkIAEJCCBBgko0DQI0O4SkIAEJCABCUhAAhKQgAQkIAEJSKBRAgo0jRK0vwQkIAEJSEACEpCABCQgAQlIQAISaJCAAk2DAO0uAQlIQAISkIAEJCABCUhAAhKQgAQaJaBA0yjBXt7/448/Dp988km3rvKrr74KH374YeC72daKMZt9je0e77PPPqs65XvvvVf1fKWT3333XRg9enT4/vvvKzXpdPzdd98NvDftsq+//jq89tpr8cN2b7Uvv/yy4zrLsuyt9+J1SUACEpCABCQgAQlIQAK9j4ACTRueCWLEf//736Z8ai3i87fz97//Payyyiph6NCh+VNV91mg/+Y3vwn9+/cP22+/ffj888+rti97EqFgn332CZtvvnl48803y3aru91zzz0XHnjggYr9vvnmm4AY0MgH4aOS1Zo/2++WW24JG264YRg8eHD2cKftkSNHhjXWWCP87ne/C6+++mqnc7V2nn/++bDmmmuGFVZYIbz++uu1moe99torvjMnn3xyzbbNaPDSSy+FgQMHxg/bvdUeffTRjutErNEkIAEJSEACEpCABCQgAQk0k8CPmjmYYxUTOPbYY8PVV19dfLLOo7POOmu45pprSvd6+umno+fEVFNNVbrPF198EcWCUaNGxT5PPvlk2HfffcMJJ5wQfvSjxl4ZFuD33XdfFHx++9vfhlNPPTXMO++8pa+tTMNnnnkm7LLLLuHTTz8Ne+65Z9hss826dFt33XWjV0mXE3Uc2G+//cLGG2/cpUeZ+bOdZpxxxii6vPLKK+Guu+6KQkr2PEIQ7LFvv/02zDLLLNnTNbcfeuih2GbyySev2fc///lP4PqxxRZbLH6Pjf8g+FQT0IruabLJJgsXXnhh0SmPSUACEpCABCQgAQlIQAISaDmBxlbbLb+8npvg/vvvDwgVeB2MP35zHI1+/OMfh5/+9Kfduim8cLieei0tthdccMFSXfEsQYx57LHHwnTTTRcOOeSQcNBBB4V77703euEcfvjhYbzxxis1VlGjpZZaKpx++ulh9913Dx988EH01mBRPMUUUxQ179YxBIwFFlggCkGIY3iQHHDAAZ3EJRbj3fGCwBMKkQSbeuqpC6+vzPzZjgsvvHD0zEDEO+WUU8Jyyy3X6Z278cYbw7PPPhuP7b///p3OZceptP3www/HU4xbyxDPCN+ZYIIJwhJLLFGredXzf/zjHwPvUy3LhlOdffbZASGpliEUHnjggRWbvfHGG3ULNGXmrTihJyQgAQlIQAISkIAEJCABCTRIQIGmACDixKBBg+KZYcOGhdVWW62gVf2HEHuOOeaY+juO6XHFFVeEo48+uq6+hCWlcJgyAg0L86FDh4Z77rknLpLxbplzzjnDiSeeGHbeeedw8803h5/97GdRVKnrQnKNF1pooXDOOefEMd9666240EaYaJYQNumkkwbCcxBnLr/88nDdddcFPEPgh0iGcTxvsCIEq0iYILTszDPPDJdeemmYdtppw6GHHhqWXXbZ/BBxv9b8Tz31VLymbGe8fbAXX3wxCmRZ8eeOO+6I52DPvfDJGmLXxBNPnD3Usc0zTQJN3759O45X2kCIw3hfKo1ZqW/++A033FB3/qI777wzP0zh/oQTTlhVoOFZlbUHH3wwvo9l29tOAhKQgAQkIAEJSEACEpBAKwgo0BRQzebpIHnp2GQsxpP4gLcHYR54vCCy5I0F+3rrrRcP0w4xChEGL5+TTjopijOcxMPjyCOPjMLBJZdcEvA+2WGHHfLD1bU/11xzhYMPPjiGIOGtxDUXhSLVNWimMWIPnkCzzTZbFGr+9a9/xdw3CGQs7vP2zjvvxHt6//33ozcLosckk0wSm919993hqKOOCm+//XYYMGBAwIullrdFtfl5v6666qr8JXTsVxIpuLaifohnlcSUF154ISb8xeNk6aWX7pijaAMxBw8arFbbov75Y9ttt12Ht1H+XHaf+7ryyivjoY022qiiZ1K2Dx4+1WzxxRevdrrTue4mX+40iDsSkIAEJCABCUhAAhKQgAQaJKBAUwAQTxe8KPBAITFrs4yFOZ4w3bFHHnmkVDc8Um677bZObVl454/RgLw0CDR4byA6sDhnIY+IgZdL1vr16xcFDrxQCEMhhITQpyKxI9uv2vaKK64Y57/++uvjmCSybWaoE3Mj+iA+HX/88QGhhQ9Jk/M2/fTTx7ArhCxCjWiHSINYcuutt0ZRCpFq9dVXz3etul80f58+fcIWW2xRsR8hWSnB8aabbtopNKuo009+8pNOh/EAgymWxEZENxhkjWMkBE5GGBVhZxh5h8p4e6200koVxZxtttkmDV31m4TKSaDZYIMNmp6TqOrknpSABCQgAQlIQAISkIAEJNBLCCjQFDwIPETOOuusgjONHWIhWm+YUr0zzjPPPGHbbbeN3ajgRMlkBIk55pijy1CIMCzg99hjj0DyXjxtDjvssIqhOyTEJdSH0CfyouBdRBhRPQmI8xeBQIAYgXcKYSkk3m22UTGKfDMIGUXiTJovVToiRw6CAQIURt4cQr/IydMdK5q/WmJkwqcw2lDxql4j2fC1117bqRul1vPH8ALKCjTZ84S5lTGErWZ425SZyzYSkIAEJCABCUhAAhKQgATGZQIKNG18uoT1IAJ0x/CKIEynlrGo54MgkSrSsAhnIZ03wqG23nrr8NFHH0VPGMJLEFz4VLKJJpoohvsgInBNlOKmwlA1waHSWBwnjGittdYKf/nLX6LnCmWkuyuEVJuHcbOGIFRNhJt77rkDghqGh9EZZ5yR7d6xTRLlMrlz8vN3DJDbIAEx3jvYyiuvnDtb3y65cNZZZ50unfB+olpU1hDbUnWwRRddNEwzzTTZ0122CUtD9ClKGE3lMESuskYoXjJCyVJoWTpW7ZtqXfPPP3+1Jp6TgAQkIAEJSEACEpCABCQwVhBQoCl4TFRMSnkpSMza3cpL+aFnn332QGnp7hihUWUEmjQ2iU8RaRAaEGdIPvvhhx+GmWaaKcwwwwwxeSs5WhBnppxyyhj+QijUxRdfnIYo/CbXyaqrrhooDU0Ja3K3kBeFKkndtSRIIE6Qi2bXXXft7lCl+3HfeBiVMZL68ikyKgmVEWiK+iJwDRkypNMpGKSqRnC96aabOp1PO7yXiFrVjHCxvffeu0uTESNGdBFoEFSYm+d62mmnRW+jLh0zB/AKQqApMt6zlGy46Hy1YzCpx7iOIsPTixC1MkYCaU0CEpCABCQgAQlIQAISkEBPE1CgKXgCTzzxREcS3GZWcSqYqmWHkofE8ssvH+cgfGj48OFR/EAkIncM3gcIMiQEnnnmmWO7lPuk0oUljwnKWJ9//vnRm2a33Xar1LzmcTw3kqcKjcn/QnJZPHXaYYgr+dwszHveeeeFRx99NHqg9O/fv9OlEDZGCelGjbLp1ZJQJ5GwaB4EiGYZ4lPKUUS4Wz6nTdE8iHlYeh+K2vCO1cpjQ84bBKHFFlssepfVSv6b5kFcREitZKNGjQpl8zZVGsPjEpCABCQgAQlIQAISkIAE2kmg1wg0LNIRB8ifgeFtQu6P7obOtBNi2bnwFKk3yWwam8V8WSMpbhJoSOJayQYOHBivJxtSUo83CKFIReJGpfmKjt9+++3xMEISQgELdrxGSBbbHePeKy3cKbGdFwAQGJKIlZ0vJdkloW/+fCpdnm2ftqvNTwJmPnkjF0ylEKp828cffzyKYvnjjexT4hzBZckll6yaoyc7B/eJVRNoeJfy7LJj8PNAPiOeOdWmEAnx+Cpjtd5TxsPIj1TWIyuVYC8zv20kIAEJSEACEpCABCQgAQk0m0DX1WKzZ6gxHpWSLrjgghgmQ7ndrE099dRhww03jHlOmhVmlB2/3dsIB/l7bMU1UI0JLw/CmfLVmLLzsbj+5ptvwqWXXpo93GmbBLBFCYap/jR69OiYt4SQqe5a8txYe+214+L8r3/9a8yds/7663crdIjQrkGDBhVeDgmISXTcSqs2/yabbBJLf+fnR7T5+c9/nj9cuE/4UDMNTxzEUQSPonCoSnOVEWgq9SX0jmpZhO0x71ZbbRV22mmnLhXB3nzzzSjYLrvsspWGqngcDxqMEvGplHzFxp6QgAQkIAEJSEACEpCABCTQCwj0uEBDotaUzDbPAzGDks4sIgcPHpw/Pdbss/Bt1vXX8hwASqrGU6ZEOCJLtaTA5EhBoCFfC5WeCD8iD83XX38dP408BJLVPvPMM3E8Sm6TnPaiiy4KeKiQJ6XRJLllro28K5TCzhvlyjFCwG6++eZOpyt56HRqVMcOLMvmbIFXM41nefjhh8f5SWKN4a1VK8QsCTT1XgulvA8++OD4Ls0555wxB8+CCy7YZRiqhBEeRQJh8syQ76geSx40RWPXM45tJSABCUhAAhKQgAQkIAEJtItAjwo0LHxJClvLaDPffPOFMoJDrbF64jy5OPi0w6g4lJIJI3ClRLIvv/xynH7kyJEhLa7xTEhhHYSCpPLcNCT0iCpPydgnJGXLLbeMgko63sj3ddddF7v369cv5j2ZdtppY8jVDTfcEPPbdEegWWKJJWKunex1Uar6oYceyh7qtJ0W850O/u8O4Td8ylrR/ITxkFunkpFs9/e//32l0y0/3rdv37DMMstEIZRQq1tuuSXgyYQHViVL71BRyBYM/vGPf3QKfyKZNAzIW4QoRlWr7bffvuPnAk8uhFiSN8Mrhb5RFp1KYXnjdwJhWZWqTSUPGgWaPDn3JSABCUhAAhKQgAQkIIHeSqBHBRqEhDLeCLSh7dgg0FARBq+fdto222wTEDcwPCL4UAkoCSDZayH8iQ822WSTxeSsbJMHZdNNN2UzGrmAsgJNOt6sbxLgpopR2efKYhyBhlwr//73v6NXTT1zIhhwL1krEhHSeTySEBPyhlcJghRss1xo9/rrr3cSs7J9i+avJc6RlPdXv/pVdpiK2wgdeBeVMdpSOj1vRQmG4YBIws8ZghSl2RH3KoUWIrJg+Zw+HON+0/vIPoYnFuIgxv3yjCnrzc92kTcW+Y1IBIx4V2TVxCOun59DQvhIZq1JQAISkIAEJCABCUhAAhIYGwj0qEBDuENZq6dt2TFb0Q4PFnJrtNPI05MWxCy08YRJyZbTdSDKkNODBSveSBghJj1lVJUilAbPHfLcJCPMBs8eQn7wtiDsqZXGIp5cR3lLogpiV/48YTfNNJI0I0aUsfvvv7+0QIPgkjynyoyNsPWnP/0pilLPP/98GDp0aDj66KMLuzI2ViTQFHVYbbXVohCDOIPXFnz5sM+7SsUsjOfB+4xHEVz4eUIoIn9P2VxHySOKUuT1ioyLLLJIoDy5JgEJSEACEpCABCQgAQlIoN0EelSgqVZGOA+inrb5vu3cZ5FLGet6jRwvhCSR1JcQkXoMkSNrW2yxRXY3biMAINAQMpK9vrSYJczmqquu6uiXQkQ6DjRx48UXXwypShI5bfKLfLxoEGjw5iA0qV4e9VwqYTJFIUx4dWB4m+TPNztRbz3XW09bRLuicuCUnz799NMLh6Jq2iGHHBIOOuigGGZEqFP2fUmdqnnQpDbZb0QXPllDBDrnnHPCY489Fg9TtY1kwST2TUYJeDxtKBFP2yREpvNF3+md5rnVm7uGOSj5rUlAAhKQgAQkIAEJSEACEmg3gR4VaPBMKOuNkPdiaDeosvPx1/eisr4sFgmNwUMkW9Y6jYtnBAINi8Oi/qldq76Ze9iwYa0avtO4lHUmhwkePPlFOw1ZqC+++OLR++HII4+MVaaSR0ungZqww3UMGDCg4kh4b6Q8PhUbNXiCd4N7LmMISmUNZkViA+Fv1YxS8E8++WQMQcPTCY+mfJWp5EFTLXysaA6uH0GGZNB33HFH9KahyhKJgFOS4mw/8ge9/fbbUbDbeeedY/hgXpDMtmeba8uKPPnz+X3aU+Idy4uF+bbuS0ACEpCABCQgAQlIQAISaBWBHhVoWPhRsaeM0XZsNjwRyLmCKFEmMXK775Vkq7vsskvHtORloWR0s+2ee+4Jd911Vxx2jz32qLggPuCAA8Kvf/3r+H4gkOBZ0Sqbf/75uwyNmIZXEblQ8uIgZaLxAmqWEZY244wzlhqOudvhTUaIEc8fLxc8aqi0lhXJkgdNWYEGXiQF54MnF0x33HHHKNARioTHEgmCEWzxWuKTtldYYYUYAkW4Fu/oueeeWyhyJoCU7eZT1njOKSE1z0KTgAQkIAEJSEACEpCABCTQEwR6VKBhUXTbbbdFz5FqN89iLi2gqrXrrec+//zzWKaa6yPEqCeN8Jxbb701JmzFKyJ5Gkw66aQBT4ZklHNutkCDGEeJZWy55ZaLnhlpvvw3pb1ZZCPO/O1vf4teLq3ImYPHxAUXXJCfPuaEIayG3Cf5EB/uY4MNNujSp7sHppxyysKEzkXj4Wk1aNCgolNNPUaemMMOOyw+A8QVBMYddtihY46U3JscMpUM0SX93JJvKBl5ZkhQTZjbpZdeGsWYNF5qU+mb8CXeoeOOOy40S0xJYhNzlhWcKl2fxyUgAQlIQAISkIAEJCABCXSXQI8KNL/85S9jQlIWf6NHjy68B3JOsECm7dhqN910U/TG4PprCTTXXnttDP2odq+/+MUvAlWGqhkLYoQEvA74ILhgeEIkI5lwu4ywmsGDB8fqUiz+8Z6pZVxf8rhALKA6VtaLo1Z/zzdGYJ555omiDAm6N9tss47BCFNKOXqqCTQ8Z8agIheG+MHzm2iiiWL1JipEEa7EPsl8CTdbcsklA3lwEAwRcfikbUKRCHnCA4scOs0KBUz3wjVWqlrFOU0CEpCABCQgAQlIQAISkEArCfSoQMONUcKYvC2UhM57bLBYo/xwtgxzK2G0auzLLrssDs0ClVCiaoaQUStHSLVEqYRR8aHEcqV8JXinIHj169ev41LIg3LMMcd07Ndb/aajY8EGHgr77bdfRzgbITN9+vQpaNn5EIv//fffP+y2227hiSeeiKWaSXqLB0ZPGjlRMDw4muHFgYdV2Tw3r732WltvHXE0zxtBI71biCvV7Iwzzoj9EWuqsVp++eVjVa+BAwdWzQmE9wzhb1R+4r1qRs4Y+CdToEkk/JaABCQgAQlIQAISkIAE2k2gxwUabhgBhsSkI0eO7Ah3IqwJESG/OGw3oEbnQ3RK+UrwAEBwYNFaaWG57rrrdvJWKJqf0s+VjFCRJCDQZvrpp4/JV/GiIfcHuVyonJQsVbxBFGpVbhxKNSfxjTCZtdZaK01f87tv376Bqk6EIRGaRU6YMt432YGTh0QSFbLnym5Tfvq5556LSW1JoIuR2LfSc8yOS96YaoZAUKmqUrV+7ThX9POXFTRqCTT58+TPwYtr++23r5pHhnsjiTCeYP3794/cOUa5bn43kES6WUYp72RFCbzTOb8lIAEJSEACEpCABCQgAQm0kkCvEGi4QRaCeMyMS4bowcIem3322cPMM88cSJJ78sknVxQZSJiar5hTDxMEDXKakK8lWzEqldmulGNjpplm6lSSmUU0+YGS4c2CMFS0YE9t8t8II9z/1VdfHU8hzGTzmOTbV9rHgwZx6fbbb4/Vf0iomw25qdQvzZ+8gc4///z4juFBVK/xXChPjcFgwQUXjKF31cZBLDviiCMCIW7YjTfeGAWGVFlphhlmKHUfRXOUERIIGyzi3WiZcJLqJsP7rYwRvoQnGVWhSP5L+N3xxx9fsetbb70Vhg4dGtuecMIJMecPFb/wHmumOMMFpPBKwq/KcK140Z6QgAQkIAEJSEACEpCABCTQAIFeI9A0cA+9siuL87322it6zxDaMWTIkNBnTFjPlltuGUUGzpNDo9kLQvJ38KnXWJyS2yZZvpQxXjD1GJ4SiEKUVMaWWGKJWA2onjFSWwQRcu6wkGY8FvZ4PZCjppJghOcFZZlT/hPymOBZtPXWW0fRZJFFFgkHHnhgxbAbQnvWWWedkMQcykDj5YUxFoJNNUMcIufOAw88EJuRSwVhgypEeFERujfbbLOFvffeu9owDZ3jHUviVEMD5TrjSZSsFgeEmfvuuy+ceuqp0QOJfksvvXTN+0Zk5OeDJMKEM/35z38O5513Xgx/4rkiKDbLGB+rFjrYrLkcRwISkIAEJCABCUhAAhKQQCUCCjSVyDRwnEUpeVaSxwV5dlK1JDxKEBauuOKKMGLEiLhgx+tlbDPusZIhoiDOpHLQK664YhRYyEPSXUNAQpjZZpttovcFnhjkpSF58OSTT95lWPLpIM7g+QPzZZZZJgwbNixcc801UThjnI033rhiTqAFFlig05h4D1ULLevUeMzOUUcdFcUZxLlDDz00ij2Uhya8DbGJxLtUqcKLplWGeFJU8QmBpZFwtpRomvC5fAhTuhc8nqjSxOfdd9+Nh3lOhKcRxlfLyAXD89loo43CvffeG/MqUcGK8u94UvEzxTNE+GrEyNVEYm4MjzNNAhKQgAQkIAEJSEACEpBATxFQoGkBeYQEFpEY3izZRTLhSyxwWbQ/9dRTMYyDdimB6kMPPRS9BVh4skglJCklWE2iCN/ks+FDXpX111+fIZpmjEkICla0ACf8hKTCXDPeJFkjnAcBAg8SzhNiU83TJdu31jZeFXhRkCiWRfvdd98dPZIIgckurqn8hDCAwTkJYAcddFD0fCEhL2IJH0LB8MYgrwnM4c11k1sG75z0ScxJTJu28VAhv8xKK63UUU6aOZmfpNfY7rvvHsUZtuEAr2OPPTYKJIgkhL7NMssscX4EDOZnbq4hzU1f5mTuMvPTHkNQKno3EAbLCDR4LFExifcPgQzBjTxACGMYwluR4ZlEu5TzBy8xRBkElbxnFv2ZB5ZYPqcPDHh+fJgXdnyTk4hnjJdamZxG9IEpP1PMxfvNB8Eu5WxKJcHjhfiPBCQgAQlIQAISkIAEJCCBNhNQoGky8M8++ywMHz48jkqJYTwm8iIHoU4IDYRv3HLLLeHpp5+OC3A6kYA2JaEtc2kkUi5ahJfpW9SGUB4W4ggwLJYJR8HInYMwwmKbcyy+F1pooS4CDVWqEI4QG8i/ksSRorm6c4ycJyeddFIUsQh7gXdWJCKMCE8ZbL311usIS0pzEWJEuBXiDOE/JHBOSZxTm3q/BwwY0NEFwQYRAUPA2GKLLTrOsYHnx/zzzx9LhhP6Q3hNCrHp1LCOnez8ZbqRA+evY0rb58WQfF+8j/AEQhzKG/mUCDUqMkQv3g/e80022SQKVHnvI/IwkZOHZ4eHDXNwPdXyyxCCx88NIuApp5wS39Pssy+6lnQMjyt4VzISla+99tqVTntcAhKQgAQkIAEJSEACEpBAywko0BQgzi5I+Qt+PcZClJAacrawCK2URJXFKIt3PogML730UlyoI36QxJUEwyz2ETvwRkmeE3yz+E37iBDNNBbXXMt8880XE7Om8CEWx4gfqQQ4C+miBLRUNiKvygorrNDUPCHZe0yeOYSNwZFQm2R4weyzzz6xKhI5YIoM0YkPnAn3oXQ190ZeG5gntrwH6ZO8QYrGI59NMkQNwtsQNvAkKTKum5wssGR+PDmYn09+/vS8y87PfKuuumpYdNFFozdO0fw802y+oaI2HKMdZa8RkMjpAwuqaHH9hB9VKkmNKIN4x7tQ6ecHkYqkze+//36cHs8awplq5bRhPIQUvF3uvPPOil48+XvCy4mwMipQ4UHDzyU5Z7hOqkSNawnK8/fvvgQkIAEJSEACEpCABCTQ+wmMN2bh933vv8z2XuFFF10UCJvBCIdJ+WPquQoWswgJvcXeeOONKAiwwCacJxmCAB4kCAuIM9WMtrwu3BchL73ZEFvKele04j4Q3fJeI62YZ2wdk3eJdxJDZJt11ll71c9LEVfeqVGjRsVTCDu96ee76Ho9JgEJSEACEpCABCQgAQmMXQQUaHLPC2GFMJiRI0fGM//85z8L82bkurkrAQlIQAISkIAEJCABCUhAAhKQgAS6TcAQpzHoSOr70Ucfxfwq5I9J1Yf69eunONPtV8uOEpCABCQgAQlIQAISkIAEJCABCZQloEAzhtQLL7wQSyJnoRHuQ0lgTQISkIAEJCABCUhAAhKQgAQkIAEJtJqAIU5jCD/44IPhkUceicliSVI699xzhzXXXDOWF271A3B8CUhAAhKQgAQkIAEJSEACEpCABCSgQOM7IAEJSEACEpCABCQgAQlIQAISkIAEephA7ykz1MMgnF4CEpCABCQgAQlIQAISkIAEJCABCfQUAQWaniLvvBKQgAQkIAEJSEACEpCABCQgAQlI4H8JKND4KkhAAhKQgAQkIAEJSEACEpCABCQggR4moEDTww/A6SUgAQlIQAISkIAEJCABCUhAAhKQgAKN74AEJCABCUhAAhKQgAQkIAEJSEACEuhhAgo0PfwAnF4CEpCABCQgAQlIQAISkIAEJCABCSjQ+A5IQAISkIAEJCABCUhAAhKQgAQkIIEeJqBA08MPwOklIAEJSEACEpCABCQgAQlIQAISkIACje+ABCQgAQlIQAISkIAEJCABCUhAAhLoYQIKND38AJxeAhKQgAQkIAEJSEACEpCABCQgAQko0PgOSEACEpCABCQgAQlIQAISkIAEJCCBHiagQNPDD8DpJSABCUhAAhKQgAQkIAEJSEACEpCAAo3vgAQkIAEJSEACEpCABCQgAQlIQAIS6GECCjQ9/ACcXgISkIAEJCABCUhAAhKQgAQkIAEJKND4DkhAAhKQgAQkIAEJSEACEpCABCQggR4moEDTww/A6SUgAQlIQAISkIAEJCABCUhAAhKQgAKN74AEJCABCUhAAhKQgAQkIAEJSEACEuhhAgo0PfwAnF4CEpCABCQgAQlIQAISkIAEJCABCSjQ+A5IQAISkIAEJCABCUhAAhKQgAQkIIEeJqBA08MPwOklIAEJSEACEpCABCQgAQlIQAISkIACje+ABCQgAQlIQAISkIAEJCABCUhAAhLoYQIKND38AJxeAhKQgAQkIAEJSEACEpCABCQgAQko0PgOSEACEpCABCQgAQlIQAISkIAEJCCBHiagQNPDD8DpJSABCUhAAhKQgAQkIAEJSEACEpCAAo3vgAQkIAEJSEACEpCABCQgAQlIQAIS6GECCjQ9/ACcXgISkIAEJCABCUhAAhKQgAQkIAEJKND4DkhAAhKQgAQkIAEJSEACEpCABCQggR4moEDTww/A6SUgAQlIQAISkIAEJCABCUhAAhKQgAKN74AEJCABCUhAAhKQgAQkIAEJSEACEuhhAgo0PfwAnF4CEpCABCQgAQlIQAISkIAEJCABCSjQjOPvwMcffxw++eSTbt3lV199FT788MPAdyuN8V944YX4afVcrbyPRsf+7LPPqg7x3nvvVT1f6eR3330XRo8eHb7//vtKTTodf/fddwPvTbvs66+/Dq+99lr8sN1b7csvv+y4zrIse+u9eF0SkIAEJCABCUhAAhKQQO8joEDThmeC6PDf//63KZ9ai/j87fz9738Pq6yyShg6dGj+VNV9Fui/+c1vQv/+/cP2228fPv/886rtGzn58ssvh8022yx+2G6GPffcc+GBBx6oONQ333wTEAMa+SB8VLJa82f73XLLLWHDDTcMgwcPzh7utD1y5MiwxhprhN/97nfh1Vdf7XSu1s7zzz8f1lxzzbDCCiuE119/vVbzsNdee8V35uSTT67ZthkNXnrppTBw4MD4Ybu32qOPPtpxnYg1mgQkIAEJSEACEpCABCQggWYS+FEzB3OsYgLHHntsuPrqq4tP1nl01llnDddcc03pXk8//XT0nJhqqqlK9/niiy+iWDBq1KjY58knnwz77rtvOOGEE8KPftT7X5lnnnkm7LLLLuHTTz8Ne+65ZxR+8je/7rrrRq+S/PF69vfbb7+w8cYbd+lSZv5spxlnnDGKLq+88kq46667opCSPY8QBHvs22+/DbPMMkv2dM3thx56KLaZfPLJa/b9z3/+E7h+bLHFFovfY+M/CD7VBLSie5psssnChRdeWHTKYxKQgAQkIAEJSEACEpCABFpOoPevtluOoHiC+++/PyBU4HUw/vjNcTT68Y9/HH76058WT1jjKF44XE+9lhbbCy64YKmueJYgxjz22GNhuummC4ccckg46KCDwr333hu9cA4//PAw3njjlRqLRrvuumtgzB122CEsvvjipfsVNXz44YfD2WefHUWiU089tahJPIaAscACC4T77rsvII7hQXLAAQd0EpdYjHfHCwJPKEQSbOqpp47f+X/KzJ/ts/DCC0fPDES8U045JSy33HKd3rkbb7wxPPvss/HY/vvv3+lcdpxK23DDGLeWwYzwnQkmmCAsscQStZpXPf/HP/4xPvuqjcaczIZT8XwRkmoZQuGBBx5Ysdkbb7xRt0BTZt6KE3pCAhKQgAQkIAEJSEACEpBAgwQUaAoAIk4MGjQonhk2bFhYbbXVClrVfwix55hjjqm/45geV1xxRTj66KPr6ktYUgqHKSPQsDAfOnRouOeee+IiGRFkzjnnDCeeeGLYeeedw8033xx+9rOfxRCYsheC9wZhRJtssknZLhXbkQ+HUB+Ermo26aSTBsJzEGcuv/zycN111wU8Q+CX+nI8b7AiV0uRMEFo2ZlnnhkuvfTSMO2004ZDDz00LLvssvkh4n6t+Z966ql4TdnOePtgL774YhTIsuLPHXfcEc/Bnnvhk7Xdd989TDzxxNlDHds80yTQ9O3bt+N4pQ2EOIz3pdKYlfrmj99www115y+6884788MU7k844YRVBRqeVVl78MEHwznnnFO2ue0kIAEJSEACEpCABCQgAQm0hIACTQHWbJ4OkpeOTcZiPIkPeHsQ5oHHCyJL3liwr7feevEw7RCjEGHw8jnppJOiOMNJPDyOPPLIKBxccsklAe8TPCb0AcQAAEAASURBVGJ6s+H1hCfQbLPNFoWaf/3rX2GfffaJAhmL+7y988478Z7ef//96M2C6DHJJJPEZnfffXc46qijwttvvx0GDBgQ8GKp5W1RbX7er6uuuip/CR37lUQKrq2oH+JZJTGF5Mt4qOBxsvTSS3fMUbSBmIMHDVarbVH//LHtttuuw9sofy67z31deeWV8dBGG21U0TMp2wcPn2pWj7dWd5MvV5vfcxKQgAQkIAEJSEACEpCABOoloEBTQAxPF7wo8EAhMWuzjIU5njDdsUceeaRUt7feeivcdtttndqy8M4fowF5aRBo8N5AdGBxzkIeL5+FFlqo0xj9+vWLAgdeKIShEEJC6FOR2NGpYw/vkHwY8en4448PCC18SJqct+mnnz4gyiBkEWpEO/YRS2699dYoSiFSrb766vmuVfeL5u/Tp0/YYostKvYjJCslON500007hWYVdfrJT37S6TAeYNdff308lsRGRDcYZI1jJARORhjVBx98EHfJO1TG22ullVaqKOZss802aeiq3yRUTgLNBhtsEOadd96q7T0pAQlIQAISkIAEJCABCUhgXCSgQFPwVPEQOeusswrONHaIhWi9YUr1zjjPPPOEbbfdNnajghMlkxEk5phjji5DIcKwgN9jjz0C1XPwtDnssMMqhu6QEJdQH0KfyIuCdxFhRPUkIO5yEW04sPnmm8d8MwgZReJMuoRU6ej000+PggECFLbUUkvF0C9y8nTHiuavJkIQPoXRBq+feo1kw9dee22nbpRazx/DCygr0GTPE+ZWxhC2muFtU2Yu20hAAhKQgAQkIAEJSEACEhiXCSjQtPHpzjXXXLHccXemxCuCMJ1axqKeDwlwU0UaFuEspPNGONTWW28dPvroo+gJQ3gJggufSjbRRBPFcB9EBK6JUtxUGKomOFQaq53HKU+dNcKVqolwc889d0BQw/AwOuOMM7LdO7ZJolwmiXR+/o4BchskIMZ7B1t55ZVzZ+vbJRfOOuus06UT3k9Ui8oaYluqDrbooouGaaaZJnu6yzZJtBF9ihJGUzkMkausEYqXjFCyFFqWjlX7plrX/PPPX62J5yQgAQlIQAISkIAEJCABCYwVBBRoCh4TFZNSXgoSs3a38lJ+6Nlnnz389re/zR8utU9oVBmBJg1G4lNEGoQGxBmSz5Jkd6aZZgozzDBDTN5KjhbEmSmnnDKGvxAKdfHFF6chCr/JdbLqqqsGSkNTwprcLeRFoUrS2GTcNx5GZYykvnyKjEpCZQSaor4IXEOGDOl0CoEmVTWC60033dTpfNrhvfzLX/6Sdgu/p5hiirD33nt3OTdixIguAg2CCnPzXE877bSQD5vKD4JXEAJNkfGepWTDReerHYNJPcZ1FBmeXoSolTESSGsSkIAEJCABCUhAAhKQgAR6moACTcETeOKJJzqS4DazilPBVC07lDwkll9++TgHVW2GDx8ey14jEpE7Bu8DBBkSAs8888yxXcp9UunCkscEZazPP//86E2z2267VWre648jruRzs3DR5513Xnj00UejB0r//v073QdhY5SQbtQom14tCXUSCYvmQYBoliE+pRxFhLvVEmeYFzEPS+9D3Mn9wztWK48NOW8QhBZbbLHoXVYr+W+aAnERIbWSjRo1KpTN21RpDI9LQAISkIAEJCABCUhAAhJoJ4FeI9AQToI4QP4MDG8Tcn/09tCZeh4WoSv1JplN47OYL2skxU0CDUlcK9nAgQPj9WRDSurxBiEnS5G4UTQf18SnjFVqV+l4dkzaVFq4U2I7LwAgMCQRKztOSrJLQt/8+VS6PNs+bVebnwTMfPJGLphKIVT5to8//ngUxfLHG9k/5ZRTouCy5JJLVs3Rk50jPYtqAg3vUp5ddgx+HshnhEhDtSlEQjy+ylit95TxMPIj7brrrmWG7CjBXqqxjSQgAQlIQAISkIAEJCABCTSZQNfVYpMnqDUclZIuuOCCGCZDud2sTT311GHDDTeMeU6aFWaUHb/d2wgH+XtsxTVQjQkvD8KZ8tWYsvOxuP7mm2/CpZdemj3caZsEsEUJhqn+NHr06Ji3hJCpWkaVqDJWKWSlTF/aENo1aNCgwub77bdfINFxK63a/Jtsskks/Z2fH9Hm5z//ef5w4T7hQ800PHEQRxE8isKhKs1VRqCp1JfQO6plEbbHvFtttVXYaaedulQEe/PNN6Ngu+yyy1YaquJxPGgwSsSnUvIVG3tCAhKQgAQkIAEJSEACEpBALyDQ4wINiVpTMts8D8QMSjqziBw8eHD+9Fizz8K3Wddfy3MAKKkaT5kS4Ygs1ZICkyMFgYZ8LVR62m677QJ5aL7++uv4GWseQoULJe8KpbDzRrlyjBCwm2++udPpSh46nRrVsQPLsjlbnnnmmTpGrt2UZ3n44YfH+UlijeGtRTLoapYEmmptis5Ryvvggw+O79Kcc84Zc/AsuOCCXZpSJYzwKBIII9qR76geSx40RWPXM45tJSABCUhAAhKQgAQkIAEJtItAjwo0LHwvv/zymvdKm/nmmy+UERxqDtYDDcjFwacdRsWhlEwYgSslkn355Zfj9CNHjuwINcIzgbAfjFCQVJ6b/dtvvz1Q5SkZ+4SkbLnlllGgScdrfSPApXwlldqSh2Xo0KHxNN+zzjprpabxeLWwmiWWWCLm2skOQKnqhx56KHuo03ZazHc6+L87hN/wKWtF8xPGc/XVV1ccgmS7v//97yueb/WJvn37hmWWWSYKoYRa3XLLLeGvf/1r9MCqNHcSaIpCtmDwj3/8o1N+GpJJw4C8RYhiVLXafvvtO34u8ORCiCV5M7x43zDKolMpLG/8TuC9qlRtKnnQKNDkybkvAQlIQAISkIAEJCABCfRWAj0q0CAklPFGoA1txwaBhooweP2007bZZpsw7bTTxinxiOBDJaDrrruuy2UQ/sQHm2yyyWJyVrbJg7LpppuyGY1cQFmBJh2v95sQk1qWDV9LZcJr9al0HsGAe8lakYiQzuORhJiQN7xKEKRgm+VCu9dff72TmJXtWzR/LXGOpLy/+tWvssNU3EbooApTGaMtpdPzVpRgGA6IJPycIUhRmh1xL/tssuMgsmD5nD4c437T+8g+hicW4iDG/d5www0xPI6f7SJvLPIbkQi4X79+sU/+H8L3KhnXz88hQh7JrDUJSEACEpCABCQgAQlIQAJjA4EeFWgIdyhr9bQtO2Yr2uHBQm6Ndhp5etKCmIU2njAp2XK6DkQZcnqwYMUbCSPE5IduLOLJdZS3JKogduXPE3bTTCNJM2JEGbv//vtLCzQILslzqszYCFt/+tOfoij1/PPPR6+mo48+urArY2NFAk1Rh9VWWy0KMYgzeG3Blw/7vKtUzMJ4HrzPeBTBhZ8nhCLy95TJdcQYySOKUuT1ioyLLLJIoDy5JgEJSEACEpCABCQgAQlIoN0EelSgqVZGOA+inrb5vu3cZ5FLGet6jRwvhCSR1JcQkXqM8KSsbbHFFtnduI0AgEBDyEj2+tJiljCbq666qqNfChHpOFDnxpVXXhlDZfqMqYJ00EEH1dm7evMjjzwyCg9UxCryEKneu/NZwmSKQpjw6sDwNsmfb3ai3s5X1Lw9RLuicuCUnz799NMLJ8KD6ZBDDonPjDAjQp2y70vqVM2DJrXJfiO68MkaItA555wTHnvssXiYqm0kC856XVEC/pprrolha7RNQmR2nPx2eqd5bvXmrmEOSn5rEpCABCQgAQlIQAISkIAE2k2gRwUaPBPKeiPkvRjaDarsfPz1vaisL4tFQmNIxJota53GxTMCgYbFYVH/1K5V38w9bNiwpg3/xhtvBIQAKvY02/Cmeuqpp8IvfvGLhocml8qAAQMqjoP3RsrjU7FRgyd4NxAnylitfD7ZMfBQKRIbCH+rZghfTz75ZEyQfOaZZwZyFeWrTCUPmmrhY0VzcP0IMhdddFG44447ojcNVZZIBJySFGf7kT/o7bffjkmMd9555xg+mBcks+3Z5tqyIk/+fH6f9rxPWFmPoPwY7ktAAhKQgAQkIAEJSEACEmiUQI8KNCz8Xn311VL30J1Su6UGblMjPBGoCERYUZnEyG26rI5pSLa6yy67dOyTl4WS0T8Em3/++bvcJmIaXkXkQsmLg4hOL774Ypc+3T1AWNqMM85Yqjtzt8ObjBAjnj9eLnjUUGkthX1xocmDpqxAAy+SgvPBkwumO+64Y/SqIRQJjyUSBCPY4rXEJ22vsMIKMQSKcC3e0XPPPbdQ5EwAKdvNp6zxnFdeeeXYnGehSUACEpCABCQgAQlIQAIS6AkCPSrQsCi67bbboudItZtnMZcWUNXa9dZzn3/+eSxTzfURYtSTRnjOrbfeGhO24hWRPA0mnXTSgCdDMso5/xAEGjwmLrjggnTbHd+EhA0fPjzmPsmH+CAqbrDBBh1tG92YcsopCxM6F42Lp9WgQYOKTjX1GHliDjvssCh0IK4gMO6www4dc6Tk3uSQqWSILunnltLdycgzQ4Lq66+/Plx66aVRjEnjpTaVvglfokz3cccdF5olpiSxiTnLCk6Vrs/jEpCABCQgAQlIQAISkIAEukugRwWaX/7ylzEhKYu/0aNHF94DOSdYINN2bLWbbropemNw/bUEmmuvvTaGflS7V0J7qDJUzVgQIyTgdcAHwQXDEyIZyYQ1CVQiMM8880RRhpCyzTbbrKMZYUopR081gQaRhzEef/zx2BfxAy+ciSaaKFZvo0IU4Ursk8yXcLMll1wykAcHwRARh0/aJhSJkKe77ror5tBpVihguhcuslLVqo6bd0MCEpCABCQgAQlIQAISkECLCPSoQMM9UcKYvC2UhM57bLBYo/zw2FBeu9rzueyyy+JpFqiEElUz8oPUyhFSLVEqYVR8KLFcKV/JHHPMEQWvbAlj8qAcc8wxHZdWb/Wbjo4/gA1yomB4cDTDiwMPq7J5bl577bW2EkYcxeMlawga6d1CXKlmZ5xxRuyPWFON1fLLLx8QFQcOHFg1JxDeMwcccECs/ITnSzNyxsA/mQJNIuG3BCQgAQlIQAISkIAEJNBuAj0u0HDDCDAkJh05cmRHuBNhTXjN5BeH7QbU6HyITilfCR4A+++/f2DRWmlhue6663byViian9LPlYxQkSQg0Gb66aePyVfxoiH3B1Vytttuu47uqeINolBvzI3TcaENbCQPiSQqdGcoyk8/99xzMaktCXQxEvtWeo7ZOWolSkYgqFRVKTtOT2wX/fxlBY1aAk3+PPlz8OLafvvtq+aR4V5JIoxo079//8idY5Tr5nfD4osvzm5TjFLeyYoSeKdzfktAAhKQgAQkIAEJSEACEmglgV4h0HCDLATxmBmXDNGDhT02++yzh5lnnjncc8894eSTTw577LFH4a2SMDVfMaewYYWDffv2DeQ0IRlxtmJUKrNdKcfGTDPN1KkkM4to8gMlI5QFYahowZ7a9LZvhBn4J2+g888/P75jeBDVazwXqlJhMFhwwQVj6F21cRDLjjjiiECIG3bjjTdGgSFVVpphhhlqinGVxi8jJBA2mM0bk8ZqtEw4SXWT4f1WxghfwpOMqlAk/yX87vjjj6/Y9a233gpDhw6NbU844YSY84cy3XiPNVOc4QJSeCXhV2W4VrxoT0hAAhKQgAQkIAEJSEACEmiAQK8RaBq4h17ZlcX5XnvtFb1nCO0YMmRI6NOnT9hyyy1jiWHOk0Oj2QtC8nfwqddYnGbLVudLGR999NH1DhnbZ/OVVBoAz6JkbCePl3Qs/13GEwbPC8oyp/wn5DHBs2jrrbeOoskiiywSDjzwwIphN4T2rLPOOiGJOZSBxssLYywEm2rGPQwePDg88MADsRm5VBA2qEKEFxWhe7PNNlvYe++9qw3T0DnesSRONTRQrjOeRMlqcUCYue+++8Kpp54aPZDot/TSS9e8b0RGfj5IIvzKK6+EP//5z+G8886L4U88VwTFZhnjY9VCB5s1l+NIQAISkIAEJCABCUhAAhKoRECBphKZBo6zKKU0cfK4IM9OqpaERwfJea+44oowYsSIuGDH62VsM+6xjD399NOhnhLp9ZRHrjY/+XQQZ/D8gfkyyywThg0bFq655poonG2zzTZh4403rpgTaIEFFug0PN5D1ULLOjUes3PUUUdFcQZx7tBDD41iD+WhCW8jwTOJd7lXvGhaZYgnRRWfEFgaCWdLiaYJn8uHMKV7IZyOKk183n333Xh48sknj55jhPHVMnLB8Hw22mijcO+998a8SlSwovz77bffHnNX8QwRvhoxcjWRmBvD40yTgAQkIAEJSEACEpCABCTQUwQUaArIE0JBPpzuGqEbLCIxvFmyi2TCl1jgsmh/6qmnYhgH7VIC1Yceeih6C7DwZJFKSFJKsJpEEb7xNOGDN8n666/PEE0zxiQEBStagBN+QlJhrhlvkt5mN998cxQGuC44JwHsoIMOip4vJORFLOFDKBjeGOQ1gTm8uS9yyxDKlD6JOYlp0zYeKuSXWWmllTrKSTMn85P0Gtt9992jOMM2why8jj322CiQIJIQ+jbLLLPE+REwmJ+5uYY0N32Zk7nLzE97DEGp6N1AGCwj0BD6Q8Uk3j88rMgfQ4n2J554Io6/4oorxu/8P3gm0S55OuElhiiDoJL3zKIv88ASy+f0gQHPjw/zwo5vSqMj/uClttZaa8W+1f6hD0z5mWIu3m8+CHYpZ1MqCV5tHM9JQAISkIAEJCABCUhAAhJoFQEFmiaT/eyzz8Lw4cPjqJQYxmMiL3IQ6kS4BuEbt9xyS8DLhAU4RgLalIQ2HqjxD4mUixbhNbpVPE0oDwtxBBgWy4SjYOTOoYIOi23OsfheaKGFKgo0W2yxRVhzzTUrztPICa4jJV7Oj0MYEZ4y2HrrrdcRlpTaEWK0xBJLRHGG8B/GqTRW6lPre8CAAR1NEGwQETAEDDhkDW+q+eefP5x99tkx9IfwmhRik21Xz3Z2/jL9yIHz1zGl7fNiSL4v3kd4AqV3M3uefEqEGhUZohfvB+/5JptsEgWqvPcReZjIyYNghYcNc3A91fLLEILHzw05fU455ZT4npYVCMl9Q6hVJSNR+dprr13ptMclIAEJSEACEpCABCQgAQm0nIACTZMRsxAlpIacLSxCKyVRZTHK4p0Pos5LL70UF+qIHyRxJcEwi/2UkyV5TvDN4jftI0I001hccy3zzTdfTMyKVwfG4hjxI5UAZyFdlIA2XQvlxGuVFE9t6/1mUY5XR5HAgBfMPvvsE6sikQOmyBCd+MCZcB9KV3NvVPOBeWKLaJA+yRukaDzy2SRD1CC8DWEDT5IiI9yNnCywZH48OZifT37+9LzLzs98q666alh00UWjN07R/DzTbL6hojYcox1lrxGQyOkDi+mmmy6G6xF+VKkkNaIM4h1VrvCAKTJEKpI2v//++/E0njWEM9XKacN4CCl4u9x5551RBCsaP38MLyfCyqhAhQcNP5fknOE6qRI1riUoz9+/+xKQgAQkIAEJSEACEpBA7ycw3piF3/e9/zLHvitkMUtIRW+xN954IwoCLLAJ50mGIIAHCcIC4kw1oy2vC/dFyEtvNsSWst4VrbgPRLe810gr5hlbx+Rd4p3EENpmnXXWXvXzUsSVd2rUqFHxFMJOb/r5Lrpej0lAAhKQgAQkIAEJSEACYxcBBZqx63l5tRKQgAQkIAEJSEACEpCABCQgAQmMgwR6j4vHOAjXW5KABCQgAQlIQAISkIAEJCABCUhAAmUIKNCUoWQbCUhAAhKQgAQkIAEJSEACEpCABCTQQgIKNC2E69ASkIAEJCABCUhAAhKQgAQkIAEJSKAMAQWaMpRsIwEJSEACEpCABCQgAQlIQAISkIAEWkhAgaaFcB1aAhKQgAQkIAEJSEACEpCABCQgAQmUIaBAU4aSbSQgAQlIQAISkIAEJCABCUhAAhKQQAsJKNC0EK5DS0ACEpCABCQgAQlIQAISkIAEJCCBMgQUaMpQso0EJCABCUhAAhKQgAQkIAEJSEACEmghAQWaFsJ1aAlIQAISkIAEJCABCUhAAhKQgAQkUIaAAk0ZSraRgAQkIAEJSEACEpCABCQgAQlIQAItJKBA00K4Di0BCUhAAhKQgAQkIAEJSEACEpCABMoQUKApQ8k2EpCABCQgAQlIQAISkIAEJCABCUighQQUaFoI16ElIAEJSEACEpCABCQgAQlIQAISkEAZAgo0ZSjZRgISkIAEJCABCUhAAhKQgAQkIAEJtJCAAk0L4Tq0BCQgAQlIQAISkIAEJCABCUhAAhIoQ0CBpgwl20hAAhKQgAQkIAEJSEACEpCABCQggRYSUKBpIVyHloAEJCABCUhAAhKQgAQkIAEJSEACZQgo0JShZBsJSEACEpCABCQgAQlIQAISkIAEJNBCAgo0LYTr0BKQgAQkIAEJSEACEpCABCQgAQlIoAwBBZoylGwjAQlIQAISkIAEJCABCUhAAhKQgARaSECBpoVwHVoCEpCABCQgAQlIQAISkIAEJCABCZQhoEBThpJtJCABCUhAAhKQgAQkIAEJSEACEpBACwko0LQQrkNLQAISkIAEJCABCUhAAhKQgAQkIIEyBBRoylCyjQQkIAEJSEACEpCABCQgAQlIQAISaCEBBZoWwnVoCUhAAhKQgAQkIAEJSEACEpCABCRQhoACTRlKtpGABCQgAQlIQAISkIAEJCABCUhAAi0koEDTQrgOLQEJSEACEpCABCQgAQlIQAISkIAEyhBQoClDyTYSkIAEJCABCUhAAhKQgAQkIAEJSKCFBBRoWgjXoSUgAQlIQAISkIAEJCABCUhAAhKQQBkCCjRlKNlGAhKQgAQkIAEJSEACEpCABCQgAQm0kIACTQvhOrQEJCABCUhAAhKQgAQkIAEJSEACEihDQIGmDCXbSEACEpCABCQgAQlIQAISkIAEJCCBFhJQoGkhXIeWgAQkIAEJSEACEpCABCQgAQlIQAJlCCjQlKFkGwlIQAISkIAEJCABCUhAAhKQgAQk0EICCjQthOvQPUfgzTffDN9//323LuDjjz8OfFptb7/9dnjhhRcC3z9U++yzz6re+ocffhi++eabqm2qnfzuu+/Cu+++Gz/V2qVzH3zwQfj888/Trt8SkIAEJCABCUhAAhKQgATaRkCBpm2of1gTIY7897//bdqnnkU6c//6178Oq6yySnjuuefqAn/NNdfEfv379w+33nprXX3rbXzssceGzTbbLPDdDEOMuOqqq8KXX35ZOBznv/7664Y+1Z5DrfmzF4UAduCBBwY4P/TQQ9lTnbb33XffMGDAgHDOOed0Ol6088UXX4TbbrstIM4lGz16dFhrrbXi56uvvkqHwxNPPBGGDx8euOasnXnmmWHFFVcMRx55ZPaw2xKQgAQkIAEJSEACEpCABFpO4Ectn8EJfpAE3n///bDGGms07d4PP/zwsOaaa5Ya77XXXovC0Pjjjx9mmWWWUn1oxIJ92LBhsT0L90MPPTRMMcUUYamllio9Rk82POyww8INN9wQEJmOP/74MN1003W6nOuuu65h4eFnP/tZReGq1vzZi5l88snDp59+GhBNTjrppPC3v/0tjDfeeNkm4Y477ggPP/xwPPbzn/+807minYsuuiicccYZYd111w1DhgwpahKPffvtt4H3adSoUQFB5pe//GVH29dffz16Xk022WQdx9yQgAQkIAEJSEACEpCABCTQDgIKNHVQ/s1vfhOeffbZuIDLh8/06dMnXH755QFRoJJdcskl4cQTTwwTTjhh/PzoRz8KE0wwQRwPzwQWq/y1f7/99qs0xFh5fNJJJ63KpdpNffLJJ3WHKvGMMJ7JxBNPXG34jnMPPPBAOPjgg6NHxbbbbhtDnK644oqw9957h7POOivMP//8HW1rbdx8883h2muvDTPNNFMUeWq1r3Ue4QOvkPXXX7+q6IXnBx4kzzzzTNhyyy2jZ87CCy/cMTzvHcJIvca7mUKRpp566orda82f78h7vskmm4SnnnoqXvdqq63W0YQ5Tz755LjPuHxqGd5IF198cbjpppvCdtttF2aeeebCLpdddlkUZ/r169dJnKEx4h7Gu6NJQAISkIAEJCABCUhAAhJoJwEFmjpozzXXXGHaaaeNISRvvPFG4K/tyV5++eVw9913V11ITjXVVGGxxRaLC+iPPvoodY3feCawmO7bt2+n4+PCzrnnnhtg1x1j0f6f//ynrq5PP/10bP+LX/yiVD8EAoQYBLINN9ww7LzzzlGoee+996IXx2677Ra4h9lmm63UeG+99VYYOXJkt+85P8mTTz4ZBYWll146f6rTPiFdiEJ77rlnzLmyyy67RE+a5AG09tprBz55Q1BCACkSs/BgIdznlVdeCeutt17klO+f9mvNf/bZZwc8q7LGzxM/RyeccEJkls698847HWIJYmjybErn8XrJCjocn2SSScJWW20VTjnllPi88IDKG/MjuP3kJz+JnLLnCf9iXkyBJkvGbQlIQAISkIAEJCABCUigHQQUaOqgPHTo0I7W/HX//PPP79hnAw+aan/pX3311QMfFpwHHXRQ+Oc//xlmnHHG6OlQJoSj02TudCJwzDHHBBK8Yo899lj8RtjYf//943b2HxbuSYxAzEGAwUOEfCjJewlPqCOOOCKKNYy36667xnAYBJDebPPNN18MF+J6CeHZY489oviRRJr8tZ9++unhL3/5S3wPeSeXWWaZ2IQcMYQeXX/99WHKKaeM7ygeJ7Ws2vy33HJLFHqKxiCRL/lziuyuu+7qchjPs7xAQ6NNN900EOqEuJbPL8N5vIvoizdc/lkisqY+CDkpvIp+eaPvDDPMkD/svgQkIAEJSEACEpCABCQggW4TUKDpJjoSm84+++xhmmmm6Uhyev/99wcWebX++k6ujVlnnTXOjHfCuC7OsDDHU6I7VinhbX4svJeyyWE5j0DBJ28HHHBAPETOGcQakssiYJCXJBuihpcFIWnbbLNNfK54Z/zpT3+KXlD5MXvTPqzJxbL99ttHQYR7uPDCCzvdW7rejTfeOHqqkBAZUQcvmcUXXzyGFyF4ITgS+oX3V1mrND9jJxGtaKwrr7wyeqcRTsY1VLNFF1208PREE00UGKdSKNdyyy0XRSfCvfL2+OOPdxzaZ599OraLNvBO4r3QJCABCUhAAhKQgAQkIAEJNIuAAk03SFKdiL/E/+pXv4oeB6kKDZ4xeNFQeaaWsRgkJGPBBRes1XSsP4+HRqsNzwm8PgiXQRAiZGyDDTYonBbhhWtCxOCZLbDAAtFD5Mc//nGX9iz0Tz311CheIL4R/oTAw7PvzYagwv0hAB5yyCGF4gzXj5hC+BD5bY4++ugoXuA1g4cR/bp7n0Xzb7311hWR8dzwfMHIAVTGWyc72D/+8Y94vdlj+e2i8EHC1q6++urYlMpOGB42+XeB8De8azjOeT6aBCQgAQlIQAISkIAEJCCBZhJQoOkGzX//+9+BSjBLLLFEWGmllcL000/fkbvixhtvDIMGDYriS6Wh6ctiEC+BH8JCj5LX1ZLLVuLEcXK/fP7559WaxHNbbLFF/CbPCYbnB2JK3lhoE7pEIlmMZ0CyZgSKasY9PPjgg4FkwqkC0ODBgysKH9XGatc5qjgRppS1Sy+9NCa6zh5L24Qnvf322zEXD0l6ER551/O2wgorxFLk+eP5/aL5823S/ogRI+ImHjDLLrtsOtzW7yTQ7LXXXjF5cXZykg7DgoTNRaFV2bZuS0ACEpCABCQgAQlIQAIS6A4BBZpuUEseM0lg2WijjcJpp50WR8K7hlLHeHRUsueeey7mPEHg+SEY4kd3kwTjVVFGoEkcCXXCll9++Ri6RAJgQspIzozh4ZTEmXXWWSfmAtp9992rht7QD88Jks+S64ZcKXyoGpTPY0Lb3mwITP/6179qXiJCVuKUb0xYHwmBu2sHHnhgSImc0xgpeTDiJVwrGaLbgAEDupympHv2OHmDaEvi7ZRLhhw7PPNsGFsq7U0OnJdeeimOW5Rcmpw2GGKsJgEJSEACEpCABCQgAQlIoBUEFGi6QTXln0l5VRAgzjnnnOh5wHCIAJQPTou//BRpwUglGq15BFjks/DHI4aKR1Ta2mGHHWJJ83vuuSdOhJiGuLLuuut25BBBXCPUqZqlRT3hTeQY4tmObeJM9v4o554VNDhH9SnCnOB37LHHZpvHbZJip3e3y8k6DiCGpHLW+W5UUqp0jraffvppvkvc53kkbzTEFJ4TIYRUtKLkOEa4F/lpEOTySZPx4EnvAEINYW9ZSwKNiYGzVNyWgAQkIAEJSEACEpCABJpJoNcINHiV8Nd9yvliJOBlETXvvPM2834bHiubfyYNRr4TFrt4zmDcAwmDU0Wc1C59s8iddNJJx/nkwOl+d9xxx47FczpW9jtfjrxav7TIXnLJJTuqNOXbE0JzwQUXRP7pHIv7SmJaapP9JtypjLHgT1WBarWv1i4JB9XGSDlS8m24L3Lu5K3PGJEJL6OspYTKiFH5c7Qjz0slqzQ/7WFeZL/73e9i5ayic/ljf/jDHwK/I2rZhx9+GEjwi6AyZMiQmIso9aGiFwmTSfBLsmCEmjnnnDOevuOOO1Kz+HsoW44cUYhE0ghAeA9pEpCABCQgAQlIQAISkIAEWkGgxwUawldYMOPVkMIc0o2St2TDDTeMJXF/+tOfpsM9+p3NP5O9EEKakkDD8csuu6xQoGEh/sgjj8TcJ8krIzvOuLjNorkdRnJbjHCXaoY49v/+3/+r6KmB5wUeNnm77rrrwlFHHRVYvFPZqJa9+OKLXTw1ivrceeedpdoV9U3Hdtppp47y4ukY34iHVGhqtVWan3lvv/32MMUUU3S5BMKFylYwqyTyZAcdOXJkTBQ8evToKMDwDN95552OJqlCFUINzx8R9dprr43haylskcbkGspa8p7BY+6H8jObvX+3JSABCUhAAhKQgAQkIIH2EOhxgeass86KJYCLbhfBhqSvn332WSAha2+wtJDLlwGmNPBCCy0UUqleFoCE2Mw888ydLvv555+P1YbG9fwziGtlcp10glNlp8gLJNv8hRdeiImXKZ+88sorZ08VbiO2UGa7yGacccYo0BCKQ1Jd8phQVQhxjRCcat4uReP1xmPc1z//+c9Ol4YXDMY9FuWBIYFwMw0B69577y01ZKXQptSZ3yMklObZrLnmmrF8ejqX/cZjhlAtcgkh1BGyRLUrct+QJwkGhFhRsQsvIwzBBzO8KWLwHwlIQAISkIAEJCABCUigRQR6VKC5+eabY76WWvdGThcqzNTyjKg1TjPO5/PPZMfEiyYJNCwUr7jiii7CUhJ4xvX8M4TWUKq5XZYS2hKCgviAffDBB/GbikSp1DeeGJtvvnk8zj94VSQvDsJYSAScDM8JFvPkrUGgKWt42OQFvKK+5L4h3I22VP6qZQhHlYzrRmRIRkWi3XbbLe12+YZN4pM/SUgVglc9lp//k08+qVmim59rPs0wRFx+5qi2hDdPNeMdOPTQQ2P7L7/8Mnrv0Z6QK8KoeOaEWyaBBlEVU6CJGPxHAhKQgAQkIAEJSEACEmgRgR4VaPCwSH+1r3Z/tKFtTws0Rflnste96qqrhhNOOKEjVIuQGxaL2fAMwjAmn3zyMM8882S7jvXbf//73wMVk9pl5CYaOHBgx3QpN8ibb74ZTj/99I7jbLBwT8cI+ckKNJR0TmWTyXeTFWg6DVLHDuWl+dQy3gOM70UWWaRW86rnCcvKGt4h1WzrrbfuxIG2eI2QL4iKVdlwvTTOsGHDAuFYRZafv6hN/hjC1Nxzz50/XLhPmFQ+BDLbkOtecMEFOyU+5rkT4sQznWqqqeJ9ZfsQrsSYiDSzzDJL7IvHGwIN3kUk+sbuu++++E1eLE0CEpCABCQgAQlIQAISkECrCPSoQPPss8+Wvq962pYetM6Gjz76aPRSqBSexMJ2gw02iBWdGPrjjz8OeAlR5QljwUj+GfqPa7ks8DiolkQ2AmjiP5R5zgo0K6ywQhQYslMguLCwh3V6Bu306sleS2/bRlAhDC1rKVcQ3k/5c7SrFWaWHavMNom18U4qY88880xVgYbnmq9KRS4ZPJO41//f3nnA21FUf3z5YwHpiBQJSEdAIHSk995r6KF3CKETSgi9hl5CCb33JmCQAAEEFaUKgjRBmoICCvZ/vqPnMm8yuzt7975373vvdz6f9+69W2Z3v9tmfnPOGQSXWCJoRuIaMWKEu1e5ThhiG3GNXFMIVsy3katSQudSjkXLiIAIiIAIiIAIiIAIiIAIiECMQFsFGku+GduxcFqVZcN1W/U7JTwJgWb06NEZYTUYIRwmDtDIJPQjT+Bp1X42Ww5eMO+880625557Vi5ihRVWyEj6WsXI9YGAgm233XaVRnoiX4hvs8wyS3bEEUf4kzJGJaJ8ho0O59mCeEcgpGGEydQxPL0sVInwInIStcoInTvnnHNccYRGkWunjnGsYYiTjZhFiFM4j22leLvV2ac665InJhye20LdyA/14osvRosndNIXXhBx+E2Sb/IU4WFF6BvhTqnePtENaaIIiIAIiIAIiIAIiIAIiIAIlBBoq0BDLz1hQykW69FPWa+VyyDQ0FAr2hdGeqGBZyPnkNOC3viBAwdmKQJPK/e3SlmEghx33HFOJNltt90qiSVshzAhCxXyt/vcc8+5kYQIHQm9hh577LGGQEMoWKs9NPz9yPtOI5y/Vhg5YPCQwkz0aUW5Vp6V7eeaabb8K664IuMvZiQJDr1RYsvVnXbKKae4ZL0p5eB9VmQMk03i35gRVshfzK688koXGuXPY+Q4BBrCvIz1aqut5i+i7yIgAiIgAiIgAiIgAiIgAiLQcgJtFWjonX777beTDopl22l4HOABY94wRftC7goTaFgOLxoEGhqJDDfciT3xjKZDI3j++eevLM7ksfjkk09cDh48L2iMk6On04zGOLlLMM7x6aef3mm72C37g5BoeXtsA+RiYWQlvEjwLAmNUclaKTxxL6TmrsFDpsiDh+Px8/i88cYbbl85xnAkNY4LjySu95gnEiM9Lb300i73DIm+MQk0DoP+iYAIiIAIiIAIiIAIiIAIdCOBtgo0eJqMGTOmMLcEx47Hih+G0I08covGC4awpZTwpEUWWcQlAbbRXxjOGQ8VylhqqaWiuTByN9xDMyzPRsroQ6m7dPvtt7tGNZ4xyyyzTOpqLV+OkB1CXBDI8GI666yzGttgNC3z/CHEp78INJtvvnm20047NTjwhZAwRiIjl9LVV1/dZR4/hg0blj3wwAMTTG92Al5TqTlo2Fe8sfKM54M9I0j8a/mJTjvttAlCzbgfDznkkIzQp7xk3SSSJvwNbyKSA3eiqJrHQtNFQAREQAREQAREQAREQAR6J4G2CjQ0jml4EWpBD3nM6BkfPHhw1u5hqS08KVXAwIvmhBNOcIeEsHPyySe7cK4UgSfGobunIR5hSy65ZEs2RWjILbfc4srC+2nSSSctLBdhIJbE1V+JECySuOYZQsyHH36YvfXWWxkeFAw1jdHIZtQiWf8gcPHFFztvKMK0wjxAhFQi2mChQOXTwYNmiimmcDmjEFVlIiACIiACIiACIiACIiACItDdBNoq0HBwNMwJdSAPCKOu+LbEEktkG264YduH12af2Ley/DP+vq+99touqStJgTHyrWBVhCYEBzwW8Px47bXXMn7DZJtttnF5XVyB4//R6Lzoootc/hPCM/bff/8J8uTgzYPnwLbbbuvCSgjnueyyy5x4gYDB8NQYoVmPP/54NuOMM7rtuIlN/CMnCGIJNtNMM5WWQHLiMiMEJ2YcP8MsI8x88cUXsUUyRvnBswmBzBeCGArdcrsUhdBEC+1nE99//313xCRdboU98cQTySFTdi2VbZcQrTvuuMPlOwqTXXOdH3XUUU4MJoRrpZVWyi3u+uuvd+IMC9x3330uiXXKdZxboGaIgAiIgAiIgAiIgAiIgAiIQAmB1rS0SjZSNnuttdbK1lxzTSdEEJ6AEdaEmOE3psvK6a75iCzkn0EsSrVJJpkk22CDDbJrr722sco000yTIaCkGMmF8cBBuEB8wCPnvffec544jLZ0+eWXu9waeOfss88+zvOFkJEhQ4ZkCBnkfPGN8BQar4y2RGgH4TyMjIXoQ2gLhihDeeQZYXjhOkaSVTO+L7vssi6vh00LPxn5KpYPxF+OkZpihvjCsZnAQkjV7LPP7q4hxCZCdsaOHTtBkmLKIvcOf33NjAXnt1lD1DvppJNc8maG4LaQvZR8UL6YlrcPjz76aMZfK43QLEsovPPOOztxd/3113fiKmFNCKXTTjutC2XLe7ZwLTFSFsa19fnnn2dHH310hmdOmOi6lfuuskRABERABERABERABERABPo3gY4QaDgFNJbwDulEe/rpp12jj0S/VYw8H/TEW4Mx9N7IK4tcG/vuu68LsSD8y4SJeeaZxw35i9jCkMuIMIQRkQQVb4GnnnrKFYkniW8IOzQ6CTOiDAxvgGOPPdZ95/OVV17J1ltvPZfU102s8e+2225reKUgLPGbYa6vueaaXOGH/Wp2FCeunQMPPNAlvWX4bcQlGtIITwg0zM9rWO+1116NsC4a4ohdZhNPPLFroJcJR7Z8p3xy/eApgiGscK1wPeUJEnn7Te4VrgsTW6accspslVVWyRZaaKG8Vdx0vM1s+0xgdCWuMYQyjGTRsSTEbmbJv7JcMEceeWS24oorumuOHDLXXXed+0McJWk119jIkSOdGBnbFF42lIHARXgU+80Q8HhZISIi+shEQAREQAREQAREQAREQAREoDsIdIxA0x0H14oyaeTToMPy8uTkbWfAgAHOc8TCm1Lyz+DZctBBB7mwJbwXTJyxbVgDlTJpONMAPeOMM9zscePGuc9QSLIhhmlYIzqEZvNT9i9cN/yNRwT5djASA+O1wDGwj3j40PhtVZ4bf9uMxtSMsW+W1wb2vs0777xNe3jgiURjv8hMuOOzbFnKSzFC1BBHWB7vjy+//DK76qqrsjfffNMNo45gttxyyzVGrvLLRLQ788wzG2IWwhQCIGUh7pjw5a8TfidsCbGM40EM4dgefPDBjPAoEjDjvbLVVluFq7XsN9c3oUv8IVQOHTrUfSLOYIhECK54WMHHN/Im4bWG9xpi1IknnuiETMRFRNFRo0a5a0U5aXxq+i4CIiACIiACIiACIiACItAqAhJoIiQROgiJIayJ3C/WOL7ggguyRx55JJttttncKDFlngQUTY4dE2hS8s+wjY8//jhDHIiNfETuGIwefkKUdt11VzcSDQ1hG9o7HBLYEhyHwg3lkHsGDxsarmFCVeZXMYYupjHLvtD4pVGL0SAnYS/5dPBYWXfddR0XGsS9yfJCdWLHgEiRaohaKWFDZeUhwowYMcJdr4gwCGUkS95vv/2c0ESi5MMPP9yF6sWEOs4ZIXC+Vcm7gpcW5SPOcC0xWhb5gfbee283AhP5j7gmEOjMm8bfVqu+s81bb73ViZfcIxj7Q+geog3hS4RCMVLToEGDssknn9zlLjrssMOcxxXLH3PMMY3cSYRf4o1DaCH5nZhHjimZCIiACIiACIiACIiACIiACLSSgASaCM1LLrnEDcsczkJ4QITgL2zIhsvab3rbyTtD45Be+yLD2+H+++93i9jQz+Hyli+GcCVyxpBfA3v22WedYIOHQjjSlHnIkCQ3NBNvFlhggYy8Oc3a22+/nR1wwAHOYwNvCxq7M8wwQ6M4RmAijIlkxvfee6/780UC8ntMPfXUrrGM5wYNeJuPMMIfgg5iGQIAXi8WrtXYSM0vFhqWx8FGhcK7otMMwQ5xhCTJcCGsCI7kGyIZNKFbCDjkM0KQYJnpppvOebSwHIl/CQOzUDA+ud75g7v9wZ5t8Tl8+PBG2BTTEOcQR/C0Ofvss50XCgnAL730Urd9ctggcCAEIUDa9vG0qbt9touw+tBDD7mcQpYsmvA/wrsQLTkWEv5yf7/77rvuWiRx9rnnnuuu3ZdeesmdVgQtwqR8O/jgg524Q/gY+WhIWqyRwXxC+i4CIiACIiACIiACIiACIlCXgASaCEFEhNC7A4GABh4CAaFFqZ4FiBU0kFOMBiwNTSwUWWx9E1TI4WECBvPGjvf4wZZffvlGI5vfeMgQXoLgYaE8TDez8mLijS2T8omXEPlOOF6EgnXWWafLajT4adDiKUIuGhrTiFZmhOFUMcJNWmX33HOPC1/54IMPXJG+NwseSohP7L+FuPnz/X1AaCDkrDuMHCg2PHSsfJJGc/0gtuA5w6fZrLPO6pjD/aabbnJJb5955hmb3dQn1xLn2uyGG25w3mZwYvu+iEXCb+4BloEP14mNnGXrV/30t49YRL4nf6QnxNBNNtkk22yzzRreOuwbeZZISs7oXVeMz++E8EISa8QZRCLEl/DaZd8QlfBuQ3jk2j3vvPNcqBg5j2QiIAIiIAIiIAIiIAIiIAIi0AoCEmgiFPFOaaVNMcUUScXZCFY0fGPeIYhD5PjASNbqGz37WCgeWEMcTwo8Q8izgmjDb8wEGj/8CSGCnB2xfXArRf4RLoIXz9JLL+0axpFF3CTKJAwHsQvhiBAc9of9ouFOCBcNbo6VP4QyluWP7whlCFMLL7xw3iYqT6exzzFbiA9haWYIYSYm4A1CeFaemIUAUIWZbSPlk1CdorAgwshIEo1nF4JMaAgmhJfhQfPmeE8aQve43kiMjCgIa/NS8lmH5djvMFwPIYTkwBz//PPPb4s1PmG70047ZYMHD3aeKGwf5v727TxX3T5cKBuRao011nDhR3jo5BlCDOLNRhtt5IS3ueee23neHHrooYX5kbh/yKV0/PHHu3MhcSaPsKaLgAiIgAiIgAiIgAiIgAg0Q2Ci8Y2y5sfhbWaLWieXACPmbLPNNtlkk03mct2EC958881u5CaS+V544YVdPGXIiUGDFy8FSyTM+oxCQ+6M7bff3uUiIdwETwPCURBGGAocQejhhx92oS+sQ2JftuELFUwvMxrWiBSdYoTdEBLGPoUNdkJc8OAhBMb39gj3HVEIwQjDK6WTji/cV0Lk/NCwcH53/0bk4RrwvXe6e5tWPtvFmj0/nOMiAcy2Y59cW+04Ttu+PkVABERABERABERABERABPoegc5pTfc9tpWPiB55Rn7Co8G8aawQwlcIsSBvB6JL2BAlHw3mh50g2JDUGLPwpjFjxmQrr7yym0ZyYIyRjMhLghGqhFfLxhtv7H5X+RfuU5V1u2NZGtB4CoXiDNtCmGFekTjDcnjr4DnBX6cdH/vnG/voh73583riO54p7RItODd1zk8VcQaW7TrOnjiP2oYIiIAIiIAIiIAIiIAIiEB7CEigaQ/36FZp4DJEMg1tcmEQikJoy2233eaGqCas5/rrr3fJgcMCCO3AyKeBuMOoMwxrbeEm5FchOS+NWMKQMJIXsy3CTAg3wtOGPCennHKKGqCOkP6JgAiIgAiIgAiIgAiIgAiIgAiIQM8QUIhTz3CutBVGEyIJLsN8I9owRDBDEzOyk+8hExZKAlZEFobpRnwh5wijM5HQlMSmeMmQ/wUvHbMnn3zShUvhbUNiYkb7SU2AbGXoUwREQAREQAREQAREQAREQAREQAREoB4BCTT1+GltERABERABERABERABERABERABERABEahNQCFOtRGqABEQAREQAREQAREQAREQAREQAREQARGoR0ACTT1+WlsEREAEREAEREAEREAEREAEREAEREAEahOQQFMboQoQAREQAREQAREQAREQAREQAREQAREQgXoEJNDU46e1RUAEREAEREAEREAEREAEREAEREAERKA2AQk0tRGqABEQAREQAREQAREQAREQAREQAREQARGoR0ACTT1+WlsEREAEREAEREAEREAEREAEREAEREAEahOQQFMboQoQAREQAREQAREQAREQAREQAREQAREQgXoEJNDU46e1RUAEREAEREAEREAEREAEREAEREAERKA2AQk0tRGqABEQAREQAREQAREQAREQAREQAREQARGoR0ACTT1+WlsEREAEREAEREAEREAEREAEREAEREAEahOQQFMboQoQAREQAREQAREQAREQAREQAREQAREQgXoEJNDU46e1RUAEREAEREAEREAEREAEREAEREAERKA2AQk0tRGqABEQAREQAREQAREQAREQAREQAREQARGoR0ACTT1+WlsEREAEREAEREAEREAEREAEREAEREAEahOQQFMboQoQAREQAREQAREQAREQAREQAREQAREQgXoEJNDU46e1RUAEREAEREAEREAEREAEREAEREAERKA2AQk0tRGqABEQAREQAREQAREQAREQAREQAREQARGoR0ACTT1+WlsEREAEREAEREAEREAEREAEREAEREAEahOQQFMboQoQAREQAREQAREQAREQAREQAREQAREQgXoEJNDU46e1RUAEREAEREAEREAEREAEREAEREAERKA2AQk0tRGqABEQAREQAREQAREQAREQAREQAREQARGoR0ACTT1+WlsEREAEREAEREAEREAEREAEREAEREAEahOQQFMboQoQAREQAREQAREQAREQAREQAREQAREQgXoEJNDU46e1RUAEREAEREAEREAEREAEREAEREAERKA2AQk0tRGqABEQAREQAREQAREQAREQAREQAREQARGoR0ACTT1+WlsEREAEREAEREAEREAEREAEREAEREAEahOQQFMboQoQAREQAREQAREQAREQAREQAREQAREQgXoEJNDU46e1RUAEREAEREAEREAEREAEREAEREAERKA2AQk0tRGqABEQAREQAREQAREQAREQAREQAREQARGoR0ACTT1+WlsEREAEREAEREAEREAEREAEREAEREAEahOQQFMboQoQAREQAREQAREQAREQAREQAREQAREQgXoEJNDU46e1RaBjCHzwwQfZZ5991jH7ox1pjsCf//zn7G9/+1vSyv/4xz+y3//+99m//vWvpOX7wkIvvfRS9uijj2Z8dpf9+9//zj788EP3l7KNjz/+OPviiy9SFtUyIiACIiACIiACIiACIpBL4Gu5czRDBPohgf/85z/ZX//615Yd+Te/+c3sa1/r/tts4403zn73u99lu+++e7brrru2bP/zCnrqqaey/fbbz83+0Y9+lE077bR5i/bI9AsvvDB76623skknnTQ75JBD3GeVDf/973/PaGR3l8HnG9/4RlLxxx57bPbYY49lG220UTZs2LDCdX76059mBxxwgLvGHnrooWyyySYrXL4VMz/99NPsxBNPdEVxrc0555ytKNaVgdD0xBNPOIFqtdVWi5Z7+eWXZ2PHjs1WWmml7PTTT59gGc7lEUcckS299NLZmmuumU0xxRQTLONP+PLLL7Nx48Zl888/f/bd737Xzfroo4+ydddd131nf+zcvfDCC060Ydv/939f9W9cdNFF2e233550zvxt67sIiIAIiIAIiIAIiIAI+AS6v+Xob03fRaDDCfzxj3/M1lprrZbt5XHHHZetvfbaheXttttuGd4vZUYD0G8U+ssvtdRSTqB5+OGHe0SgQchqlddGyvHTEJ977rn9Q258v+qqq7LLLrus8ZsG90knndT4nfKFhjf70V02atSobNFFFy0tHs+NX/3qVxl8F1hggdLln3zySbcMbHpCnGFj8B0zZozb7qabbtpSgQZOnMvJJ588W3LJJbMpp5zSbafKv2uvvdYJOAgriDRlAg3LI/Ctv/762THHHJO7Ka537uff/va3GYLM4osv3lj2nXfeceesbFuNFfTnouOnAABAAElEQVRFBERABERABERABERABCIEJNBEoGhS5xOgF/9Pf/qTa3xNPfXU2UQTTdTynaaRmCeIlG2MUCMa2Sn23nvvZfzVsdVXXz275ZZbst/85jcu5MU8AeqU2VPrphw/XhExw9PkvPPOc7Pw5KDx/OMf/9h5Q2y33XaxVaLTaFgjCKTYm2++6bwopp9++my22WZLWaVUJLBCXnvttYxrG1tmmWVscu6nCTSp+55bUIfMGDx4cHbvvfdm77//vhNq8A6qYn/4wx+y0aNHu1V22WWXbMCAAaWrDxo0KLvuuuuy++67L2OdmWeeObrOjTfe6K4vvGd8cYaF8V7DUq8Ht7D+iYAIiIAIiIAIiIAIiEBAQAJNAKSv/0Q0uPLKK7O7777bHerIkSOzWWedteMPm/wOd911l8s98ctf/jLzG+xf//rXsyFDhmRbbrllS4+DnvxmwzcQTD755JNK+7P55pu7Hn9/pccffzy77bbbsnnnnbdQLFpkkUVcmBFhOoR/bL311n4xveI7+7zYYos19vWNN95w4gvhJbGG7+uvv54deeSRGV4nCy20kPNqwNMGXueee65jlipc4IFywQUXNLZd9OXkk092YtgKK6yQHXbYYUWLVp73zDPPuHXYHwSgIsNrw4SB1OMsKq8T5hGidvjhh2f7779/dvPNN2dbbbVVNuOMMybv2vnnn+9CFGefffYsVaDD82j77bd31wz3/NFHHz3B9vCsu/jiizNCFocOHdplPnmAzAMudp12WVg/REAEREAEREAEREAERKCAgASaAjh9bRZeHbjwk2DTjMZFpxthO6eddtoECTvxmkFw4hj6QoLOeeaZJ1txxRW7nA7EBmyDDTZwSVHxEMkzev4RaO65555cj43pppsu++EPf5hXRFunf//73+9y/HiTYISphOE7JNLFu+Ivf/mLyxtyxhlnuDwh5J/BwwWhgzwkhD+VeRO98sorLn9N6sGbKMLngw8+mLpa9r3vfc+JRkUr/OIXv3CzU7xnCOHBELAGDhzovvfGf+TOwRvON84ZyY/JdRPeE0zH+Lz11lsbq3EtcO1jP/jBD5yg25g5/guedquuuqo/qfEdcZdQJzxwEPxCe/nll7OJJ57YiT7h9cT1Zusg5JjIFpbBb9atIjjFytA0ERABERABERABERCBvktAAk3fPbddjozQFxqv9LoTtmMNii4LdeCPO+64IzvhhBOcEMN+kziVxuhcc82V0UtOo4yGcjO5KsoO94EHHsi+853vlC0WnZ86Ck905f9NpNFKElg8hMiLg+cTgkOZca5JNBuzJZZYolSgIUGqhc6st956hZ47sW20apoJiWGyWBrEXMvvvvuuy1Vy1llnZdNMM43bLAmZTznlFOcRQegUITPkDSFHT54RUkOIS1UjUTJ/qYaHEJ5QoeHtg+CEPf300+6TEYqOP/54993+kfCW82fGtYHhdXL22Wfb5NxP2ITeH7kL9+AMvFa4ZmOGCGVCVDifdfJyDeEhaF6Cth4CaJ5AM8kkkzivqLznyLLLLusEH0sWbGXy+fzzzzd+HnzwwY3vsS977bVXttNOO8VmaZoIiIAIiIAIiIAIiIAIZBJo+sFFQGgQjVZEAwSHbbfdNiO0qdPtZz/7WUOcYb9HjBjRpYHK/tMrzl93GKPFtNPIpUJiUnJeTDXVVO7Pz4/xz3/+sxFaMcMMMySNFpUiOBFaBGsMUYCwjp42PBEQKWgQ+x4UJKdl3xhpC48Grus55pijy+4h1uBRs/POOzuPon322Sfbcccdsz322KNQbEI8WWeddbqUFfuBx8dzzz3nwqryGvz+euQ2wUsnz/DCCXMQce3z5xthTybQkKPFBBrEnZtuuslfNPodlp0o0NjOcm2G3ik2r84nnjaIjjFjBLKjjjoqNqsxLebNRFioebeRYBrjekRM9Y1QTMRwpjOfP5kIiIAIiIAIiIAIiIAI5BGQQJNHpg9MJ/yHEAFG/8EYRpYcHRY60smHSNgSuT44Bnq18XAwL4me2m/yX3z7299uanN4BdQNu6LxiBHehO2www7uz/0Y/4/zSIJT7JJLLumWxq0rvA3/8J7h3Ft4E0IVXiLm6UICZ4SaPM8YvCXIGUKOGBroiG2EnnA/5OV2IX/INttsU3q0eGwh0LCNlOURmooEGtsgxxrLYXL//fdPEALEsdH4594oyz+DOPHss88mJ9LGc6uu6IkoTLhWnieXHbP/Sd6m7hCQzjzzzMZ142+vVd9NoDnwwAOzLbbYokuxJB1mVC6uVY5PJgIiIAIiIAIiIAIiIAJFBCTQFNHp5fPI0UJDFmOoZ3qK6UV/8cUXax8ZDWY8LWh4sg1691vZ+433yFtvveX2k2SfPS3OsGHCqZpNEkw+izoCzauvvupEALwK8nLG+GFU7fByqX0RFRRAeBlGo5Ywtv3228+JDEzjWlt55ZUzkgTzV2QkfyVs6Cc/+YlrKCO6XX311YXXKmEzv/71rycolrC6WAJZRE8Em9BIXHzQQQeFk3N/470T8+BBWPJztJCHiLAsjJCZzTbbLLdMZjzyyCMZ4kHqSGfcb+QqwuMoTwAr2iCjiSGuEpK4++67F7IuKqcn5hE6uMYaazQ2xXncc889nXeU5ZIZNmxYFob6GcsPP/zQPQcpgLw3oZHTBsPDTSYCIiACIiACIiACIiACZQQk0BQQQiCgsUGDiHwXGAkeaSAy4g5JPzvdCO8gdIOGiJk/ApJNS/0ktITGF6EmYTmIKHgspIR9lG0PrwGMnvxWj85Utu1OmM8INti6666bG5bjCzTk0OgrRqOXxjFiIiMlfetb32qEb8GD5L/77rtvYTJWY0FI0IUXXpgxRDIeOHiRlQmJCI4xDxITO61s+6y6vK3X7CfDihM2gwfPJptsUlqM5ZsyUaFoBbyDbNhzwqiaMc4ZSb0RcXl+Iq5VNbxe6gjJ5KdihK8yg4mFHSGmMIIUCanx5CEUFCMHFsfByFKhtxLiF55eGII115dvJtAoMbBPRd9FQAREQAREQAREQATyCHSMQEPCR3q6zWsC8YPKMI2QnjYaNCToJMmkVb5tHxBqcN2nwTd4fALSvffe22YlfeIZEOudL1t5iimmcDk1ypYL59P48MUZ5luDje8pjTaWw/BWsFFy+I0oQP4PcmAQRsKw0oceeqjzPKHXuUrZlGeGCGTJV8mBQgO9HUbvvzXeqm7fkr5WXY/lP//888zCm9Zff/3cInyBhkSx7TKS3JYJRIgtjLqUYtwjXKN4DtnoTYw+Rs4VEyQWXXTRLiIKIirPDq4VQoXM8HrBEPkWXnjhaMiaPWvMWwrxp4rhaVJklMuzrBWCLkPMP/bYY25zeOfgpVJm9gxLuR/9vDc+x7Jt+PMJISNvErl67rzzTueJw/mvYjxrCMtq1sjPVMXwUCLBL4IK15rvsYfoTCJqvJVIFoxQY3mPGGHOjPcXAqIZ9/GXX37pniF4JMlEQAREQAREQAREQAREoIxA2wUawkAIOWC4VBKD+kb+j0033dQNbdqTDVDEGXIoYAgjCyywgHNfJy8KjQZySuA9Mnr06GymmWZqNBr9fc/7/vjjj2ckDa1qNHpIetouQwxAjCKfBY1mGjOEY1gDkYYN4R80Uhh5icZwkbhQdBzkVqH3HQsbtXCnIU6Dx29EFZXX7Dw/rKTZMppZj6GCuS8IkQmP3y/PBBoav3Ye/Pk99T0cLSe2XYSTVIHGxCl/9Ca8XkycofxQFEEkYpQrQklOPfXU2C5kDOMdM54x/JmR3yXmPYIXBKJdaGyXkaVCs+UZtadVI/eYaEFYDiJVitm9lLIs9y+GB0qdsBxysSDQIFSSBJkQoTy76KKLMgSVmMi38cYbO2/FvHXD6YRG8lz2DS9CzlvePfLzn//chX/ybEOA4bn1wQcfNIogBxSsEWp4fiMe84wj8a8Ni87CvrjFb/OeIUwxb9ssJxMBERABERABERABERABI9B2gYbG0DXXXGP70+UTwWbUqFFuxJYhQ4Z0mdddPwivMHGG3vdLL720kcfFtolAQ8JWeqYZ9thvONoyeZ+LL764GxY3b37edISidtoNN9zgxBl64elNXmSRRbrsDoIJoReEfiGgnH/++S7UqRnvFz+JMQIFwhiNOBpA5GbhN4ZAQ44MwhGmnXbaLvvT7A9EQRveudky/PWayQ1jeVUQiGi4MjxyzD7++GM3meuQ5LdlBqdYI7hsvbL5jLJUdpxl820beByYFx2eVO0wQmvsHPjbx2sC0WHcuHFuMtcjnn/kYYrloDEvC7+Mut/JD4MogBcHhmDJ9VEkAKR60MDehrTOy3uUuv+LLbaY8zKBIyNMFQk0eUNbsy3u8SpelCTkDQ0BM8+Dh/cPCb3x2CJPVyzHEOVxLnnWI/4R0ob4Rugc4hceUpwHwsMQ6mYbn2was5GjFN7kcOifCIiACIiACIiACIhAAoF4yy9hxVYsQp6RlOFhWYbe7zBUpxX7EJbh94iyvVjeCfIMkJiTxKN4Orz99tsZw66mGL2xNipPyvKdsMxnn33mvBPYF0KOQnHG9pFGIp4ChAjQezx27Nho0lNbPu+TcCkzhB/EOQt5wnuHaXg4EFLFNfTkk09mxx13XBYbDtfKSf1EgGpGVEotP2U5evwRAbiuyH1hIzWF6yImYghWNuRvuIz/2xr1/rRWfCecrVUCGQISiX0ZlYqGM94MeY3rVux7rIxzzjlngsnkxGE6IXx4TnCtIWawr4i1w4cP75H9JOSOXDrca3h+IMwtv/zyhd5J5kFTFq6HMGmiGHlk6hpiLcOgI2jzF+ZnqVt+K9bneBFnGG0p9MoKy+faRMBhebzX8PrEGMIdoQ4BBw8kE2gQkzEJNA6D/omACIiACIiACIiACCQQaKtAQ4OAnscyYxmW7QmBxnJesE+xXnTbVxpq/PUHYxjZTz/91B0quSWKzG+ExcI+ita1eYzaY0aiT/KLEKLAyD30ZNM4RRgjVIzGKmEUNJwQKYp6461M/5PwHBqPPWV4AxC2UWQcA8dNclWECvJaxDyoTKAh/A3PrJghlFnYSp4nTmy9dk5D9CB3CcdHsmSGsqZRzLnOM3KzYHjdjRw5Mm+xQiEjthLPAMKnLO8Lwgy5XxBkEWgQZhCSGFWJhjriKwJOM4YAxHDgofmCJfPMWwYBABGPEcNIBB4bAYrlTaApO/8Wesn1lBo+Rfl5xnULO0QQRHZYVTU8lki+m2qWzD11eZ4rhLD6IzlxrRHixL4jPIbnE/5cZ4g0AwYMcOvOPPPMTqAhnMuG2iZnElYUppi6n1pOBERABERABERABESgfxBoq0BDaECqVVk2tczYcoz6Qo89ohCNAxrT5FOxRlFsnb4+Ddd9MxorRYIGYRJmNB6bMV+gocHFiC7LLbdcl6LISUTeEBo/9HwTDkRYFaOwVDHEC8t5UmW9ZpddZZVVSgUaykYIIEwEjy4a7THvFxNoEK7ICRQzPI9MoCnzoIit345pnFu8iBDdrrjiCseLexIhoswQEouWwxurLFkuIUGELN1+++1OBKTBTgOcoapJnGsJoDlHJAvn+sSTi+G5OVcISogTU001VdnudpmPmGZ5S7rMyPnBkOHci1y/5M3Cc8MXSG01E2iKzj+CA55oGEJ4K553eKIR2oQ4Q24YEoxX9U4j3M1C3ux4WvnJ/vjiDGUTuka+LcR6BJfY9UJOpBEjRjjhGlYMsY2wRYgVwjTzbZhu7k+ZCIiACIiACIiACIiACKQQaKtAU6UxUmXZlAPPW4bGId4LuOYjFOy6667OK4OeUozKNj3lzRrHwegeVY3eb9uHquvWXf6dd95pFEEjNdVMQGB5RJ6iHnTy+PgjoNg2tt566wnEGZvHJ54j5MugcYmXVVWBhlCOqslQORbEO4ycIEUNX7eQ989GCvIm5X4lXAyBhjAnGoyhBwRhFRjDvucZ4oJZuL5N78RP8oGQ64g8O4R7kTCYXDd5hpcFgiANbkTWPIs1tm1ZGtZ4kSC2mNcKuXO43/HqQehAOCJH0lFHHeWeBeRIIbyO6xQPH8KOEGzwvlhpvLfZhhtu6EZwShE8ON+x3C8IAb5IavvLp3mYcS3g2XPdddd1Gd2KZVIEGvKA2XKx+5BymjEEbgQavE0Y8Si1bDhzb8WMvDEIaCTRjiVtZp1YaGqsLPLEhGzJt4XNN998uUN9E3LrCy9cV/xGsMP7i/OIWI1oZiOJxbavaSIgAiIgAiIgAiIgAiLgE2irQENCVt9bwt+x8DvL9pQRKkDeldNOO81tkl558xrJGwkmdd8IY7BQgtR1WI7e2WbWq7KNvGV9oaVKrhE/LIeQJBuBJrYdRk8x83M2rLrqqjY595OGGgINjS3CKar00q+++uoZf6HRAKTxjedE2Lgm3MUEGrx3UhPghtso+43QwD6Qa4eh2RdccMHGKoTeWJLgoiSqJtCEYRqNgjr0Cw1evBIQ3bhu8HI444wzcvcWQcRGcSpaLiwAwZRhvRFlYGyGaEe4EgID9x6GZw2C3vPPP+88lhAVESw5/zTmSWSNtxINfEQlvEb4I2QNDzByxdBwzxMPaMzH8jsVjWDHtk8//fRs2223dSFh5KQJR7GypNp5QiIeQZZPBW/BKiKi8cr7RDykPMIU8fRJFWiKnrOEvWE8i0gSXscQjUJeVh5iG38x41ojNMo3PPoQaBiFzcQufyQyf1l9FwEREAEREAEREAEREIEYgbYKNDRWUsNgYj3LsQOqOw0x5thjj80eeeQRVxSNXxpfltvEbyQ3sy0annkNpaLymlmnqLwq8xgm1oze8Kmnntp+Jn8S7rHRRhvlLu+LDIQHmKV4tyCimOHt45dl06t8IoggvBDmhidVikhUpfzUZRGGaLCTjJocK/61Zw1HQn+KGtSMAoV1x+hNqcfR7HI0gBFoYiMkpZZZNAoW5xfvmPfee88Vxz2GAMN1yvMmFOa4dxFCEM6OOOIIl/MILwk8XMyWXHJJ5zFDaB73CqIEQhriKn+IibE8M7Z+M5/cLwwBzT5xrbBNPJDMTCzI86AiJMySA+PF02pjXxjhDfGKUKo8sZ3E37YfRftgy/BZlCfMyuC485K482xDlDLDE4t3AInI/eeKzUecQ/SMJa4mPxYhcOSeMRFJAo2R06cIiIAIiIAIiIAIiEAKgbYKNLiEjxkzxlXai3aWCr3vTl60bN15DJ1q4gw9olVDZsq2j/jDX28yv3FDGMjAgQMr7z5CC+EYKTbTTDM1FmPI4zJxznKCsFIz4lFjY//7Qu4RGu94J5BnpJ1mAhW5LQizMTOBhv0r8uAx74kiLwwrs9M+bZhqwncQGUykxHsJsWO33XZzyXFj+01IDcl7ESwQIGKMaGQTqnTyySe7UCRGjMIrg7LLrlVyHyEu47WFMBIaXjJMJ3cQ4hqeNI8//rjbXrhsK37jYTR2/Khp5EzBIwSPHfNg41rGYgzI70J4E4aw6XuyuYkt+MfIb+SHQtjAW4lwsJghhloy5tj8cBqCjyXkDef5vwkNveOOO/xJje+8V+zdgnhkCbzxnvQFUVbgWiKPDoJ9Xlghx4ZAw33HNaLwpgZqfREBERABERABERABEUgg0FaBhvwh9NiSCJSGTszo4Rw8eHDuKDWxdepMM3GGMrbccsvCokhcbCFarRj1pHBjbZzpj0JCGEgzAk2V3Z999tmd9wINOkLLygQaG7mF0CYLR6myPX9ZhAByvmBst0zY4BrBs6LIyFFCuE4z5g/7buuTHwXPEqysh94Emt7oQWNJVjmvJs5wfmjsI45wTCeccIJh6fLJcjTK8V7BY2XPPffsMt9+4PESDlH+8ssvO6HDlin6JKFszAhNQ6DBC4dkz/x1t+FFgwcIeVlMnGGbJtCE1wAhW1ybNh/BqzsMwRUvFURGQsnyBBrbNuF4MQ8Vm4/Xkgl24THZMnxy7dux+dPzvpPbBq8cxK5QnOE5byGvRV5GeNDAnhDZuuFXefup6SIgAiIgAiIgAiIgAn2XQFsFGrDSwCX8hcSKYWOHUAKSbPbE8Np2ik1woYHgCxM23z7pod9ll13ccM/kS7BeaJvflz4ZGYZzhKfKVVdd5UJAyoSLOsePyEIjicYc18Xmm2/eCDELy6UBZqJa0fkK18v7TU4Ky7nje/LkLe8nUM5bhmsl1RBeGJGKMCvEGUsE7OfkYOhtQne4RgnJKTIbVctvsBct3+55eLvQ+CZnCV4nGB4LZlwPiDMINoSh5RmiDolmCT/imiX3ie8Jlrce0zfbbLPCxNSxdTkfCEGIEHhxMapSTxthmCQJDgVDu/5CMQMhysLHSMBMUuPuMsKcYIPgyvkrOhfk9skblYz9Ixky3kLk9CH/Tp4htOIdlWKESiHoIaiFYh5CD55WdCJwHxZxuv766504wzbxxCLRccpzJGUftYwIiIAIiIAIiIAIiEDfJ9B2gQbECDC4wRO2gZs5RlgTHjZhY8PN7MZ/9Jziok7DnyGK80JcSKpJ4lvMXOS7cbfaWjThGowiRAJSGik0iuitL0o8i/cL567Z87fzzjs7Lwa8RQgzIwlsmBMEKAhjlkOkrGc+BSJJPs34TsgHveJ5Nnr06MLeftabZZZZ8lafYDohZCSS9o1QH4ZuxghJuffee913wjvKEiJbvo6qQz67DbThHyFthOmY8RzYd9993U/ut1GjRrnv5Ikp42pDPCNEED6D502KIR4UCQhhGXiVEbbI6E48P9hWXU+ucBupv2P3mz2nQoEG4QuvEO7rQw89NHUTTS2HpxfJmwcNGtSRgsXVV1/tQrA4OJ49vJMIeZttfOJmwpoIvSL8jWdfjDHrIfLYNcZ9yWh9DBWPZ07s2cU6MhEQAREQAREQAREQARHwCXSEQMMOUektGh7X3+nu/E5YCwINhghBg4LEnjS88EIgkeXdd9/t8luwDA1fRn3q60aDmNwsNEbxYqAhTSgFeSvoIcZTA/EGAYHebTxB7rrrrlIBIY8bYU40sCkDoYxGEj3biBWEZtALj2cE8zFCzPzEqHnlFk0n1IV8IRjiB78JU0EE8hMX+2Vw/LHcHv4yVb7TO4/nCKF9NPLJJYJIZI1Cy+VBYxEPrjKz/DyE3PQGo1GMFxu5d8jzwUhKxhfhg1GX+J1y7DSKGWVp1113ddcQOUsIaUo1rjOESbxjSBSNEOsLL3hW4M3EiD54/fCsGDJkyATDoaduDw+cWK6UcBjo1PJsOYQCLCbS4TmDED7ZZJPZ4t3yybYZ3aqK8NUtO5JTKDmHYME9z/MfTyT+bBQ1rrmRI0dm/ghzflFcC5SBsM+7AsEO7xmeJ4i4iD4yERABERABERABERABESgj0DECTdmO9tT8rbbaKqPHnZFQ8D7wR1yhwYdniBlhPmeffXZH9gjbPrbqk2PnWAkZIFkm3gIWhkC4CQ3UVhsNHsJFEGIQffjDC4Bz4OeWYLSf4cOH19o8gpKFQ+A1hSCEhwa9/oTSsC9VGvfN7gwNWHrzY4ZHD+wxxKq84Zr9dV944QX3MzYijb9cp3xHII3lHCJchOGLMTxq/JHFivadUbDIBYLId8EFF1Q6h4SYEQKE+Eg+HLwnyCW0yiqruJGzzjrrLOc1gbcEITCx4dqL9i2ch/cUf602cmVheSJdd4szdjw9Lc5Y+GHe6FW2X3zyDFtpvDjKHyLz0KFD3Sehhhjeggh8CMeh1xrPPnIhEY5ImBkeSYjWiLvDhg1zXl9cN8pJ41DqnwiIgAiIgAiIgAiIQAEBCTQBHIQIej+pUJPDgKSbZibOUEHHu4Me855udNi+tOMTrw1GiMHDA68B2JDfwhdnaMggZOBxEIZUVN1nzsV+++3nvHTofacBZDlVKAtvBjxdGN2IZZs1hs6lMcX55dzSqMIQ6xA4GHlmr732cnlMyJnkH2+z26y6HgIBPfgYeTDIzVRmiAs0KrF55503uvi4ceMaIWK2gC8S4FEQa+D69wVeTKmNfBqueAVVMbylfPEslry76JzgvYBAw7kkz1Wqpx6eJYwyByM+GYWJa4U/M64XRovKG9XHlkv5xFsIb73Q8NL54IMPwslJv/EGIZ8PRrhOK8w//ti10YptNFMGYsqZZ57pnjt4jnHesFRhBM8tQlfxnMFTC8MbhmG3EW3wXkM8JZSSZz8CKeFjeFpybWDHHHNMQ7AnbBf+eFwymhfz6nr5uY3onwiIgAiIgAiIgAiIQJ8lIIEmcmpp7NMI5I/GIWFNjAZDDzShF4S7FI0yEimyoybRSKjTUMBTgD8EDXqpGUWJBjoCDp4NFpLSqoMmHwR/hJq8+uqrzntmzjnnTPIgKdsHzu8BBxzghB/CiGhs2dDWrMsoN4QxXXTRRS73C/lfbEQh5pNfAi8fGmtcEwhUNp8QGf4QD9h3wiAQ/iivipG0mP2iDEJFCPUJBSmOg3AKRDH4I+iYxwmjbuUlE7755psbjcvYPuFBVGbnnXde2SKN+YRrVRVoEOI4/yRwppHLeeK641rgePn9xBNPuG2QsyY0wt/wimLbiC5VjPLJn8If4iDbQaDEm4vziZcdYVAksia5cJ6XSso22bdYuORNN92UJNDgBYZIwTXI9YEYZR5XXJMxz6Si/ULgQ3jAU9D+eBZaWCHrdpJnFuzJY+aPCMg9WfSsQ5RByGHo9ieffLKRV4zjwlOL885zDg8uhDKedTwL4EpeLJ4dJD7GEJMJk/INL0PEHViSj4Z7eYcddvAX0XcREAEREAEREAEREAERaBCQQNNAEf+Ch0x/8pKJU4hPpRHYk3zorfdH9InvVbWpJP9k1CQa+SQjDhvIHCMNKhq35KKhMUePuhnhV1XMktxWWYfwKgRCjp+krrFGMY1yRg5CEPKNdfAO4vhihtg411xzxWZ1y7S8XD5FG0Mk4RgI6zIBhEa4hdj56+YJUYQjhaKWv17Kd/aD8Cb+SGaOcIKXHecGoY5cI1w/7FcrRUpEQjw1ytghTuD9ETNy46SGhdn6CBN4B+UZopefkydvudTpeHkRujhbDU8fRu4yjyGEUK6HMCTJ9geBDWHNRm1jOiFMjCKF2MY9hXHd4DGJSIg4dcUVV7hzTMgh4gz3GOJL+OxgXbZNaB0CK88OxEwESgRmmQiIgAiIgAiIgAiIgAiEBCTQhET0u18RIFzh2WefdSM10TDLMxp7DNlMoxUvAkJ8GGGKUAoEHjwpaPDh5cIfXjMsyx/fEU7wYlh44YXzNpE7HWGCBjYJb/EGiRmhQ4Q94VVCUlga4yS1DRPbhut29+g94fbq/DZxhjLIO4RQZaFN5P7A24EkwzGrK86EZeKpw3nZaaednGcVw4PjKQH7quIM4g7HEfP+YbupjXmEI65LxBxCD/F6GTBgQLbxxhu7UJ3wGMp+zz///E6wMMa2POcBr6xWJ74tGjbdtl32yXDqqYYAw/kjz9gaa6zhPG3yQgEpEyGGZwQJ07meCGvD84Z7qCg/FcIenmgIqGwz9XymHoeWEwEREAEREAEREAER6DsEJhrfcOza5d53jk1HIgJJBBBRWt2AT9rw/xZiZCw8B0hKTJhYzPAYqeoBESunE6fZ8eON5YswnbivefvEY5RwIESNvHOYt66mVyOACEkoF9dK3dw/3PtYs/c/oqx52qQcBfd5bw6PTTlGLSMCIiACIiACIiACItA8AQk0zbPTmiIgAiIgAiIgAiIgAiIgAiIgAiIgAiLQEgLND33Tks2rEBEQAREQAREQAREQAREQAREQAREQAREQAQk0ugZEQAREQAREQAREQAREQAREQAREQAREoM0EJNC0+QRo8yIgAiIgAiIgAiIgAiIgAiIgAiIgAiIggUbXgAiIgAiIgAiIgAiIgAiIgAiIgAiIgAi0mYAEmjafAG1eBERABERABERABERABERABERABERABCTQ6BoQAREQAREQAREQAREQAREQAREQAREQgTYTkEDT5hOgzYuACIiACIiACIiACIiACIiACIiACIiABBpdAyIgAiIgAiIgAiIgAiIgAiIgAiIgAiLQZgISaNp8ArR5ERABERABERABERABERABERABERABEZBAo2tABERABERABERABERABERABERABERABNpMQAJNm0+ANi8CIiACIiACIiACIiACIiACIiACIiACEmh0DYiACIiACIiACIiACIiACIiACIiACIhAmwlIoGnzCdDmRUAEREAEREAEREAEREAEREAEREAEREACja4BERABERABERABERABERABERABERABEWgzAQk0bT4B2rwIiIAIiIAIiIAIiIAIiIAIiIAIiIAISKDRNSACIiACIiACIiACIiACIiACIiACIiACbSYggabNJ0CbFwEREAEREAEREAEREAEREAEREAEREAEJNLoGREAEREAEREAEREAEREAEREAEREAERKDNBCTQtPkEaPMiIAIiIAIiIAIiIAIiIAIiIAIiIAIiIIFG14AIiIAIiIAIiIAIiIAIiIAIiIAIiIAItJmABJo2nwBtXgREQAREQAREQAREQAREQAREQAREQAQk0OgaEAEREAEREAEREAEREAEREAEREAEREIE2E5BA0+YToM2LgAiIgAiIgAiIgAiIgAiIgAiIgAiIgAQaXQMiIAIiIAIiIAIiIAIiIAIiIAIiIAIi0GYCEmjafAK0eREQAREQAREQAREQAREQAREQAREQARGQQKNrQAREQAREQAREQAREQAREQAREQAREQATaTEACTZtPgDYvAiIgAiIgAiIgAiIgAiIgAiIgAiIgAhJodA2IgAiIgAiIgAiIgAiIgAiIgAiIgAiIQJsJSKBp8wnQ5kVABERABERABERABERABERABERABERAAo2uAREQAREQAREQAREQAREQAREQAREQARFoMwEJNG0+Adq8CIiACIiACIiACIiACIiACIiACIiACEig0TUgAiIgAiIgAiIgAiIgAiIgAiIgAiIgAm0mIIGmzSdAmxcBERABERABERABERABERABERABERABCTS6BkRABERABERABERABERABERABERABESgzQQk0LT5BGjzItBTBH73u99lv/nNb7J///vfyZv89NNPs1/96lfZ3/72t+R1unPBzz77LPvwww8zPlttv//977P//Oc/TRULJ/66295///3stddey/jsr/bXv/618ND/9Kc/Zf/85z8Ll+nEmbo/i89KJ96ff//734t3uh/O7c77889//nPyu+gf//hHxjXzr3/9q2VngWc87x/2o7/aX/7yl0pMf/vb32Yff/xxf8Wl4xYBERCBpghIoGkKm1YKCYwbNy47+uijs/333z/bcccds0022SRbZZVVsssvvzxctN/+pvFP5aZVf1UboUcddVS29dZbZ4ccckjyObj22muzXXbZJdtggw0qCTvJG6iw4B/+8Idss802y9ZZZ51siy22yGiIt8o4N1tttZW7ZhGxqtjtt9/u1ltttdWyH//4x1VWrbzs6aefng0aNCjjsxWGWHfrrbfmNnqYT0Onzl/RdVq2ff8YaRwdccQRGZx/8Ytf+LO6fOf6XmONNbJLLrmky/RO/6H7M/8MdeL9ed9992XrrrtuNnr06Pwdrzmn7P7ob/fnsccemy233HLZCSecUEr2pz/9qXtvLbvssu6dW7pCwgJnnXWWe/8cd9xxCUu3ZxFEQ0Skl19+OXviiSeye++9N7v66quzc845JzvmmGOy/fbbL9t2222zjTbaqCkul112Wbbhhhtmd911V9IBHnzwwe55fN111yUtr4VEQAREQASy7GuC0DcJUKG9+eabs0cffTRbfvnlsy233LJbD/Smm25ylYFwI7PNNls4qd/+/uMf/5ittdZaLTt+Kolrr712UnkPP/xw9sILL7hlN91006R16AnlGsLWXHPN7P/+r316Lr2ghx12WAZD7KOPPnKC4Nlnn51NNNFEblqdf3gvIJxxjAMGDEgu6ic/+Ul20kknueVpLCFSTjXVVNmSSy6ZXEY7FxwxYkR2zz33ZIhMZ555Zjb99NN32Z0777wzqTHUZaXgxzTTTJMrXJVt3y9qyimnzD7//POMBgjn/corr5zg3HOdP/PMM261eeed11+9o7/r/iw+PZ12fyJYjhkzJvvkk0+y888/33m0HX744cUH0cTcsvujP92fPF/x5qRus8ACC5TSfPLJJ90yc889dzbZZJOVLl93AZ5N7777blPFsI9571e8Ra+55prsiy++yHgn82ff7dOm8btIEA93jmsYsSXVuO55X+ARwz2ZYtaRwntRJgIiIAIikEZAAk0ap163FA3rU0891e33U089la266qrZdNNN123HceKJJ7oQD0QAernNFl54Yfta65PK1uuvv+56xKaYYopaZXXCypNPPnluhaxs/6iwUUlNNSq2F1xwQWNxetGKRA3EvJ122im77bbbGmE79H6V9YB9//vfdxXJxobGf6Ei99hjj2VLLbVUNuOMM/qzKn2nQU7lfNJJJ82GDRuWIU7RO0jFdbvttqtUVmzhV155xU1GUPzWt74VW2SCaU8//XR25JFHOs+inXfe2bHivjvooIOyiy++OJtvvvkmWCdvwv3335/dcccd2Xe/+10n8uQtlzqdhh3u/fSSFomCK6ywgmto0ttKryqeOQsttFBjM9/4xjcyhJGqRiOBRgP27W9/O3f1su2HKx566KHOe+qll15y+7366qs3FmGb9BJjlMtfbzDdn+Vnqd33Z7iHX//617PTTjst4z7DQwEvNITdVjyL/G2V3R/96f4ktNPCSJdZZhkfU/S7CTQ9JZb/7Gc/y/AWacYeeughJ+zH1uV9xHuuLMyYa8Fs6qmnzhCo+UQgj30yjb8q9sgjj7h3OvUH3i3UReycxMqhY8XCkRF3igQsOge4r2QiIAIiIALyoOmz18DPf/7zxrHRwGqmkdUoIOELggN/eDaY0dgtapzZcmWfv/zlL13oFA0ZeogIuenthpvwnHPO2dRh0Cil5zbVzjvvvOyNN95oLF4WD44nCTlOWhGehkcJruazzz57wxunsSOJXxCKTByiPI7/yy+/zI4//viMY5tppplc2EticdHFfv3rX7vpP/jBD6Lzw4kIBAgxeHPgkbTnnns6oYYwLLwhcCPnHM8666zhqtHf7733XsY92+w1ERb64osvZsT+I4wVGWGIiEJDhw51bvF77bWX86SxRg0hHPyFhqBE4zEmZuHBQgjCW2+95QRVOOVZ2fZHjRrV8JqyMr7zne9k77zzTjZy5EjHzKZ/8MEHjV5dBEzzbLL5iy++uLt27HenfOr+LD8T7b4/Y3s48cQTZ8OHD3feGXiQnnvuuU6U5TprlZXdH/3p/jTPOLxNQk+/kDfPB/PwsGdZuExv+c11RocEAjQdFDxz7dP/znI8a8eOHeuezbwrW228izGYzjzzzNlVV13VEMXLtsX7usgQoejkkYmACIiACEig6bPXAL3meBjQmMFjwu9d6c6D9nNDLLbYYi3ZFLHOiDNYKwSfluxULymEChWVKGz77bd3+UsQN/bYYw/XICe3DN9941qhwU7P2LTTTuvEEXrh3nzzTedlQU8YFUbyfPgW88qhoowhQLBe1R4yGj70VGPsv3lM0HtHhZ08EHhsUXZquJcrbPw/PMxMrHruuefcZIQNQqlCo7JrYgSNRQQYPETIh4JXB4aLOpVQxBrK22effbKLLrrICSBheZ30m0ox4ULsL6LOAQcc4MSPvIYN3liIdwhjeDMtvfTS7nC4XvB04n6lZxZvnJVWWqn0UIu2/8ADDzihJ1YIeRbwXIgZXluh0YCx6yec167fuj/zyfeG+5NnHo1inhv88ZzgnE4yyST5B1ZxTtH9ESuqr96fVrdI8Z6h7oPxLhs4cGAMU8un8ayjMwLhGuEeAbloX/HwGTJkSIZHcJlXMEJdu413OV5C2MYbb+w+eaYWvdOpt1mS5qLlKCxWf3Ab0T8REAER6IcEvtYPj7lfHDIvdCoMeXHN3QXBKlGU36qeRHNVpsxUDweW7WSj4Yl41oyVuTpbmVQWTznlFPeTiiINcLseCM1BZCCenF5YX0wjTMQECxocFhqHdwfeSxdeeKETTWjAlwlmJIzGkwRBpayCZvttnyQoppKL2f7bPD7J+UAv6fPPP+9ESEQaBKdUI7E1YUC+IVDwF5rllyDnDEwQuTh+hCpjyjrf/OY3MxJJEiKGoIWohMC0yCKLhEV21G+uRc7rrrvu6gQRjoEeTf/YbIc333xzx52EyFxTMF900UVdTyqCFw0Uri/EvVTL2z5lm4gWK+uWW25xrv+Ek7EPRdZTDbWiffDn6f70aUz4vbfcn9wjJK/dZpttnOiN2Ln77rtPeEA1puTdH339/sQryUZMIqQUw3sx9MYgR9oSSyzRIMy9heFpgmhcZl/72tdcp0TZckXzERgoB49Env28R8j/l2fPPvusm8VzKXYe3377bXdd5a0fm26estw7hN1WMTryijw+CcHFM5HnOnVLjGuevzx78MEHXQcKHty8O2UiIAIiIAJpBCTQpHHqlUvFXvrdeSA0kK3SQWWlrMGUsi80wAkbwXjJtyoEJGXb3blMK8KHyvaPyiJuyFSqCDnxrwcEDxq/eDsgMpA7xQQURBcqtgg3jJjh2w477JARL89IR2eccUZG7qEiIwFhlSSElEWvG6Etl156qSv6hz/8ofPG8PefGewj4SH77ruvE5Q4Dnr5aBzRs1dm5NrB64N1EMzwEmL0sZghvHDOEDHgOf/887t9Mmb+Olyn7BfiBRV1PGoQeKpy8Mvsie9UvDk+rhVGFAp52z7QWCR8CNENAZBriD88jFiv2eOMbZ/rLc84b4h4GI0RazTkLd9p03V/Fp+R3nR/Es679957u/BAPBa5B+rk3IqRid0fseX60v1JAx/vS9/w4jBPDptO2JMJNITnmkCDuIMXZpmZ16i/HEnTCRfyzRLeUr7fGYDHoHmqkouI537ZaIAWspVXT8JD0+pT/j6kfEfULhK2Y2VYzrDYPDyCeMZjeGfz7Eoxwlwx7g+ZCIiACIhAOoG0p2x6eVqyHxOgZwvPAoycI2XeFSmoyD9jhpdHXqPRluktnwzp3CwfPFLIxVNmeDDdcMMNbjjqmAs1YUyMhkHYhy800COGBxaCRWhUzIYPH569+uqrbplwft3fVCrxvrDeUoQkQmXyQvQYnQMxhOHduVYQUfDiQmQoayBZzx9iEIbnB2JKaFRO6bElnAqjQg0HBIoi4xzTkOBYEI/oUcWlvZOvYXI7hD3OXEOWpDU8XsIvaBDBiBwJsCeZc2j0JKe46ce2H5Zlv0lYiRFOgojX20z3Z3HS8N52fyLucu/g4chzyE+W36prM3Z/9If7kzDKWCOfXFgmmhhjErTzPEIozwvTtGXJmYcIEguvIc9b6GFp61HP8edZvYf5s8wyi1usSKDhGqG+hPneq27C//5xvFdccYU/qfQ73q8IPzxvq3rQxPjaBmFqgk+s3gILcoCFhncrRmeKX5fzl1twwQWTBR9/PX0XAREQgb5MQAJNXz67PXxs3RHe5L/UyypbPXy4tTZH475ZbyC8BlIEGnYQYYPhLRFj8uzxxx/Pm1U4HU8aDI+VvCGNGRabyiiCRlliR5LkktPEhtJGMMFDwxePYjuE5wYVU7w36PGkwr311lu7UKQUrwrcwTG8hahoU3Gmwm5hSfTAmjiz3nrruX1EELIKa2yfmMZ+46JPLg1ypfA3aNCgjs9JEx4PAtOjjz4aTp7gN40i4xTOJEwuRaAJ17PfNHYtUaxNs+uEHAdwzTNEtzBfUt6yPT1d9+dKpch7y/3JaImWb4P7AA86RILutv5wf66zzjoZf6EhRvgCDSI4o2phJDzfbLPNwlW6/EbkPfDAA6MCDR5cK664YpflEeDw6MGDkvBVM78DAW8ejBAl3n14X4bGaJd4HPPuQuSOGcJz1ZBuu97oXKm6bmwfmEZupauvvjpvtptOqKl5EMUW5N7gL2aEysY6g2LLapoIiIAI9BcCEmgKzjShFoQ+0HCksUUvbfjC9ldn9BteZry8GdHINypsY8aMce6hKY0FGh80gHmR46aLezPeDoSd0BsRM+KPaUwSEkQlgQoGjfMqxjGT84WXKT3j3/ve95yHxTzzzFNaTEygobFLjzqNKxq9s43vFUKc4HhCY9tUNmnoWUXXH43q888/d3HMlEODnwZ1rOcrLLe//4ZlSgO7WU5bbLFF7qo0rLkuOO9U4mLGMJx4sdx4440uvAkPE3Kh0AMYeptQCeSeoPLpV5C5J/C0QbxCFCF0ieSdCDQkvSXUK2bcZ1ybXE+MeMQwoLvttpsTtizRJJV8xJX111/f5ZahnPPPP790qHPbd8KbOH6uVfIT9FajgRQ+u2isIKLBD/6hcb7MlT+cV+U3CYFtVJZwPRo6efNYludGJ5vuz75xf/J+N0Povf3227OiED1btlWfuj8z501JPYL6Sl64qs+bZbFYPYJ3jC9yILhYuBWdDSSIj5mFWlE2Q4NTbwvNnol5+WfC5anX0flQZni2Yry7EKjKDO9ZS/gbW5a62PDhwxuDNMSW8achOJV1xLA83paEqMpEQAREQATiBDpGoMEdlMa5xawiDOAxkSIMxA+t3lTEFhp2CAy8RBFeaGDSeOMvNHpKqIwRe8yL++STT24sQhw1iUUxxI+FF144m2GGGRrz/S9UAHAn/dGPfuQagLzc6X1GMLn77rudyyshLuH6CEkkeWM6jVWG+iWpGw3W1N4JwjEIDeHFSUw1+0liN8qgbHqnqChQ8SHBrG9h/pk55pjDrYMwxbmkYYpnA7+vGO+2S2Mu9Iih0kKvY57RKDajQYjo4Pdc2bze8JmaJyV2LJY0MTYvNg1GNtJQbL4/jXOE2zgCGiJJnnF/EFpUx6jAco0y6oj1gnKtEk6UNzw0yYupqFrFOtw+YRFct4gi3EssS2UVjxoS91KB9I0eVHLKUKkO59ly9GTSg+iLrlToY5V6Wyf8JNwpxdiXvGML1y9ajnLKjMp3rAyOK9bri8gU5iTimYAhRoXzmM5zLM/yts/yeaPgkHQ6r2EUbofErUVhBuHy7fqt+7P33J951wjXsong5J+588473bty2223TcqHFSs37/7Q/RmjlbkQGhu9DXHeBPL40v+das/JlGc5gpsZ9UE6sGJhtIxuR4cAYj+hoTGBxjyD8/LP2Hbsk3ox9eNUo5POcvcVrZPnvWPrUBe1xMOEE/PeLzI6MW1ggqLleDfT4SETAREQARGIE2i7QEOoBo0feqjNZd12lVjXTTfdNNtuu+1yvUZs2VZ/Ei5BjwniBAIDoReIIMSWU+kKG3O8PBFnsLBx43uWIGTwcg8FFtajsUpiOpK10fNPJcOvACDMkMSToXsRTMwoDwEIN39yXNBrQ4OQXmcElZQRJejpxvOACgs9L4MHD3YVHHp3EW04fjOrXNhvPhGyLA6b40fEIlkeI1rgUYTxcueljHcDeUYYQcgXWMhbY8dFwxFRCnELI06b8BIzEiH669r03vJpgkRP7C9iFiPvpBjLItCQs6ZoHcJ76gg0xKsjgPoNaPLNcF2k9MAVHQu9ntddd527VxBVaeggCiJwjh49uosXi5/4sKhMxBlCwfI8Nai8xiqcNNQQa/F849jK7PXXX59AuIytg/AUCpyx5YqmMby6jdblL4dIhtt5d1ve9tku3oMx7z+em3nhdOH+5ok84XLt/q37s/fcn3nXCkljeb/xDiP8kboCzzg+Y6E5eeX40/PuD92fPqWvvtO5gOHllyp8mKfuV6XEv1Fvo75iRu4a6knUyWIdYDybEXToAAg9eRBOrA6Vl3/GthN+rrzyyi4kK5xuv6mr0QmIiE1dMM9GjBhRKvjgqWqhTdR5eVfE3hd529B0ERABERCB5gm0XaBBoWc415gh2BD6gGBR9LKJrVtnGjHv9IYhhCDOYOY6imsm+xUKNDZqAMuaIMF3jF59GjwIE1isUsC2bNQaRgdAIAp7dRBd4GG91q6w8f8Yxpdtwoh1/J4TRKYyQ5whhweGZ4wfOsJoODSkEUpMgIn1CPkiFMvRk0JlwRdRaMTijQRbGvgIST4rBDm/kesnG1177bW7zCs7pk6cz/FZL2sr9i8UAltRZk+V4QtsJFUkR07RkKRV9wuB6ZBDDnGVY+4Prk96C/0QI64/KqFco1R8ywyxJW+oUHpNuXYRRUnaudBCCzmRFaGRyn3MU6Vse502n+MywdT2DfEL4xhjeWDoZW6lIWDRAEmxTg9tSjmGdi2j+7MaeQtvYoQb8oDwDqdzhLpNswJNtT3I3HOnP9+fdOTxnEcgw3g2IX4WedKketAgiJM0GKGe5wqiDHUrPH6pw/relWyb9wkCDd6beL9YPZJ5dB7wvKQ+MN988zEp2fCO9jvtwhWtTkD9NGW5cH37zf7hgch7C49URkos8qi19ehwiYW62nz7LPPEseX0KQIiIAL9lUBbBRp66qnElBnL0Lii8tMTRqWKETb4w2h0mZsnlS88Q0Lzh3205KK2zKyzzuo8Q0hGh4UvTsJ+TJwhjOCwww6bQJxhPfYBcYfGoBkVEhqZeNaYoOMnfS1LRMt+mycEPdP0lIRGYxdRxkQYGp+h2TymE97EqDW+OGPL+w1VeqGKzM8/k9oj5pdHJYDcQbH98JdL+Y7oxL6HwlzKurYM56fO+lZOM59UnCypb9H6NloPHj5cU3mWmqQ4b30qzXhLIVgRflSWCDivnLLpc801l6tAI5BS0fSN+w4jhBDxAbPEvwixeMtheGKwj2Y0vsyLg+sCzzMzxFEET/LW4AWXanjYpFzjhPkRCsiyDOtbZv6zIlyW/fbFYp4jYeiivw5sjI8/ne80dBC8qli4fXIRlQ3Rzbsg5Z1RZT86YVndn519fxZdI3S82Ihia665pluUThm89zivCIrNjDIW3h+6P4vOQuZCyUjiy7uFusOJJ57oRH86mPLMnn90RBUZYguiDKG31Ft5l/Bsvf76610HFnUoE0coh1GnqOchUCPIEHKLUSfBWxzjGkFAqmKMlsT284y6KkaYespyeeXAgzoAx3zSSSclh+nhYWrv0ryyNV0EREAERKCcQLW3Q3l5lZagcWY9sEUrsgzL9oRAwwsOscFCbdgvesesp4VGlwkhts941PgCDo3C0EguzAsdt2dfNKE3hh5+M3pkYoIC65GbA/OTutHIpIFprrJUOPzwhKJGInlzOE4TTQiFivU2hY0vvGB8o7fF3IuZjjiTF15gOYZYLhbmxXSMighxyhi9uYhcVYyeRI4NsYgwtTrGsdErR6WFMJlUkYVlCf3qKSNfk39t+NvlGjbBwZ+e9508N7hvd6cRDsBfTxjJEEPjvsG41siD4xv3hE2jkuoLNDS2rDw4+QKNX0aV74R1pYR22SgdfIaCU5XtsSwebb6FvcD+PL6TY8vnwDTCOnluILD5IQDMw6jc0/scs3D7sWXCaQhTsedruBy/ESTDsNnYcp0wTfdnZ9+fRdcInSs0vOnEsM4bcpDw7sXjjjCRZgSa8P7oz/cnHr6x9xfPbt+s/oLHs4WoI6bneTGZQFMklOAdTQg7Ocx872TqBISXE66Et+YZZ5zREFzYD8RmvGt4LhIORcgm4gzXCs/vshGm/OOy73gV+57FNj38RMS3RMThvJTf7P9K469fQqVS3ktWJnVDOJUZz2U8dGQiIAIiIAJxAm0VaKy3Pr5rXadWWbbrmtV+8eLERdNPUuq7DYejmFA6L28TcHhBWSUh3DJCA8KF38C/+eabM3qOMSpkxC7jSss0xBsaQHjE4CqL1wK9QfTOmJEnhBe9bZPKhDVKcJ9FoMgzKgvW44KXTF4lksqOJaalAhq+sKmkWPgTKiBLQgAAG6hJREFUrrzmXRBulzJInIchQvlCVbisX7kw8Slcpug3lSKEo1YYghfngmujrKfN3x7XRVGSVH/ZVnxnGOM8gcaEIs5fUe4ShEYqnDQGYtd6bD/D6yG2TCdOI6SK+8s3rlEa9txPjDaG+ferv2x/+87zCbd83yyXEqJ1OI/l/F5lf71mv3NNpjZsXn755cazsNnt9dR6uj8nJN0b7k8EAt7hGGG4vhFyg0DDe4BrsSwhq79uM9/78v2JMOKLI2V8CAfnnuL9S8cWnsl+OLWtbwJN3nud9z4dTrwPyIeI4GKGqEPZbIs6Gu8N86BiGTwtL7nkEjfUNnUtrgc8bjDCQZt5r3AMRR2V5FTDkxGx0N8Xt1HvH/kOCRctMuqaVfeRdwC55MrMOt/KltN8ERABEeivBNoq0FR54VZZts7JREDxh9JGwECAwBjZyIZQ9LeRGoqDOLHsssv6q7rRlmwCPSsrrLCC/XSfNHzojaM3hr/Q4yCs9Pm92H4+ly6F/u8HOTXMqAznhZn44UuxMAx/fpGYQiXGvHUIA8vbHvuUytT2P/wkwSKVlDBBX7hcym+GkSb2m96kKg1OzmWRl1Bs27gIWygSFbq8imNs3SLBi6GkMSqNRT1cuHIj0FDRYojsvmzkvgmPkfxO8KfyHc4zFoiglk+K/Fh1DO9AC1UivGjBBResU1yXdZ9//vlGbilCo2KeeV1WKPnBsYYhTibcIlCH8yguxUOyZLP9YrbuzwlPcyfcnxPuVdcphLbQEUA4SyiOcy/j5YYH5siRI7s07ruW0ppfffn+5J0V60Ai2W1e4naSsvM8J8yMARcINaIO51uZQMOgDXgv0/kRe5eT04yQdMIuzavSymd5RP7bbrvNzceDhrBuRI9Yvi5br+gToSn0YvSXp2MLgYa6QNFyhLaXCTRVxRn2g3sh9h7w95HvJuyH0/VbBERABETgvwTaKtDQCESUSLFY72zKenWXsWF4KYdhZGMNZt/lNE+gICYYzxa/kkGFyirmlI8Ag+cOIhG9YXi1UElFHEgxvG4sCS1CQlFPC7HRfrLhIq+KMrHEF2gsb09sf23fmBcbktdfxy8zJgr5y8a+09MU6zGLLVs2jfAqa0SXLevPp8IWVtqYz0gIhM0gvJnnk63HMKEm0CAyVRGErIzwk15ea0g3wzIsr7//Rtj0xc06PGgg2IgeJvrUKc9fl/KsbGuI+POrfmckLP5iRsU81eMqtn7qNIZwPfXUU5MWNzE4aeE2LqT7s7XwW3l/Fu0ZHhoWTkwS1dizes8998x4jvM+w7sBgby7rC/fnwgTYW4/OBbVjTgfeEOTV4+ONnLShM8O87KN1evoUOKc0UnmD5wQnj88p/AaCd/lLEdiXcLQ6WAkBAqj0whv3L5o1PF64j3QF9npmERABETAJ9BWgQaxImWUIXbYFzb8A+ju75b8j+0QkxsavSuWV4WwkLzwHoaMplfeD09CsLHQKMpNTRQa7oP9ZkhP8spgjCJQVAmwfbZ1GZo4ZjRyisKNqOD4Qy/mCVT0pNvoK1R46JHKMxos5gKLkOGPgJC3Tm+ZTvgaFXZ40NhcddVVu33XTQSkAokgist9nlkuJULWipYL18ezixC+/mC4uuOdhSGypoxa0Re4cH4tb48dD88bemK5p0NvPpbBa7CVwhO90IjXKUZvdW/w4NH9mXI205fpifuT9yINbt7fJM3PCyehw4L8JzTSzzrrLJe0lndad5juzwmpmocL3pCEmxHy5IeimXBN3cw3nlmW84+Os7z6ka3DcylmnBM8Wcifw7MIL8bYQAyxdWPTSPxrI4bF5pPcHsOTuihJsC0XK6PONDjMNl5MKzPqjRbWWbas5ouACIhAfyTQ9a3UwwQQEXjZWM6UvM3jPZMyDG7e+nWmW3gTZcTCm6xyzXwqarFeFOYh9CBe4BVjZmKK/Q7Dl2x66ie9PWZ+Tx2NSHqT/F4i38WUBk+eCIJ7sOXIobITjgrDS9byz/BizvN0Qpwxbyk4mbswFVym+wkQfe8Zes1o/PnGy52KVSwRMQIDHk24+MZGm/LLKftOwxMPBNzX6SEL96Ns/dh8QoioqHE+UmK1Y2VUnWYVIRoVNgRpWRkIjyQ2TLWjjz66W3uHU/ejVctxXXLv4z3G9UjjyoxGl3lG4ZnUXwQa8l2F4XF44W255ZYuXJFkqKENGzYsQzhulSFupuagYV998bhV+9DqcnR/Vifa7vuTe57QJd4JQ4cOLTyAIUOGZOPGjXNCJaFOhOV0h+n+jFPFo2Ps+ETl5BLEgwbvXauHmYAbej9R58HrBcEB76g65g+lTR1p2mmnrVwc+5uS6433EfVKhKCiDjrbAb/eZdPqfPJupOOpzOiAKwvBLytD80VABESgLxNoq0DDw5xKNK65eUMu0wMxePDgxpDXPXky6EUxcQLhIdZz68fxxnqQ2V/ca/GgGT58eJfdJ3wJQYeGMz04dXrWaChZRR8hxcQkekoQa4iFZoQoM/9ljwCRJz74YknMO8b3ruF85pm5gjOfXC5miEr0VCHUWS+Uv83YSDU00liW+HDfcG1n5CEqRCeccIILS9pxxx39RZK+I/4wshYNdMKkTj75ZJeXqG5DnHIZehXDI6zIPZtlaPjmnRfmYyQwLOvdozFTFNqEwGbXDnHnJuiZl8h/txT/jxhm1298ic6eChvuTzzKEPcYyhZDBGTUIpkIdDcB3Z/5hDvx/iQpsA31jjdG2fOXBjnvXkJs8KTBe3SliDduPgXNqUuAPDE83xlxzsQZyjSBJuzsIfyYOhSeUVYvaWYfyAfj1/vo8GIo8KKhv2Pboc7DX5mRawcxClGKThOZCIiACIhA7yTQVoEGZDRCeQHSuCZxmW+8IHEvLcql4i/f6u+Wt4NyEYpixshKZnm9ETTKEV/CcBZ6bRBpaBzSeKfnI+zJsbLtkx79a665xgkIfpJdKn5m8LKGPaM/4S0TJidO8dZBnPJzbcQEGstxwbZj85mOSERuFYz98sOb7r33Xie++ZUgX/QJBRoStNJzafHcrtDx/xCoRo0alV155ZXO7Zw8Loyc0IxAQ0JVKm6UhYCGuEalh2SEnK9m7eGHH26MmhV6IsXKJG9RmYVeWLHlST6bZ1zjVllkmG7C7OjlRbSDZ5nhBQSrugloy7bT6vl4bVFZ597z72F/O4hVeHBxXdv9xHxERbvurYLvr6fvXxEg1xUWhhB8tUS1bzzPUkOmEN5SjWURKsk31dOm+3NC4p16f/L+MaGe5yUN/xQjgfDdd9+dkbib5LWMBpQigKeUXWeZ3nJ/1jlG1sWbhCTB/nOc6fb+DAUa5uH5NPfcc/O1KeOZwr3NtUz55BfEk/raa691gz3YKIFNFd6hKzHiJwJUmcFEJgIiIAIikE+g7QINu4agQE8F4oOFO+GxgkdG+ELNP5TWz0GUoWGBwBCr7NM4I5GcGZ4HoeHKSW8byeJijVjc9S2WnaE4Q0HCLw/R4aijjnIeIiEXPxTLwi/ofcQ7idEkwgR7jGaAFwehR3gBkXnfd71F1CExru8hFHrI4DlhIQTsT55AQ6+RvZCp8Fh4E94KNHTxdvHNwq9g7+f0oWF20kknuf32R9pi3dGjR7tEfuTIsGHRwxEb/G3kfSdkDW8eekkRZ/CkINwHqxu3feONNzY2y3dEMz8nUWPm/75wTLFrxl+ujmBEY+GYY45xeaDwqCKMx7+e/e3kfYcPluJOnVdGO6YjvnBtm8CCMIpoyXMHBoifiHKxkEXuGcun1I59765tGgueG80aFXTuUXhyH/MbS8khZo0lls/bB5JQ+snGWbau8YxGrGNIXbzyBg4cWLfIlqyv+7Oz7s8333zTCTJ0ptjzMnWkG96PvOfwBuZdiyhOXpIBAwYkXyv99f5MBlSyYFhnYnET52MCDQJcs0ZdEIGHeiPvELxweQYSLkVuN37z7s6rM9l2EY3ppEw18/gmrLTKu5z6Tive4eSUjIW6pu6/lhMBERABEfgvgY4QaNgVXp4WltMpJ4eXNrlvCM+hUsWniR/sI/HMuLDSiKbyhIBCBcxe9ngnkIMBbwk8hWJG3DgvR15sF110kWskh140VAwvuOACl+SO7eO6GvZI+x4+5h1DjxHCzaWXXhrbtKtA4LWE8ECP3i677OLcf2l8XnjhhV3EGVx+8arwjWOnUYPNMcccXQQefznjwTTrNaQiQYWVXiWfKcuwHROGEIEwkuseeuihTjDxXYbdzPH/SCx84IEHup+WHK+ZvEU0ynFHt3PwyiuvuG1SeZltfPx4s8ZQm+Z1wbDd/CZxId5QhKTFjAqi7UdsfrPTYM/5xbMLvoSEEdLlh72llE2MvjWk64TnpWyr1cvwvOF6QdAjXxHngIo0nlhUbJkfE2fYD3Lz2KhnXP9+6CB5nmi0lQlrrT6euuUhtCL+Yggr55xzjmtMxBo1RdsilxX3jIkt3Dd4zJXlg+I5ZNunfJ6txx57rBPK+I33YV4IKfOLbK655iqa7UQ5yiaJKOeW7YbPpMICWjxT9+d/6wOddH9yfxxyyCHufcf9jZhd9XnJMwbvxN12283VJ/CuQKRJ6Ujoz/cntxec7rjjjgnutLwhtidYMGeC1V98D96cRZMnI84QakTHFEYd0EatRJihjkh97+CDD3ZeqmXPJxORUnbAOpH4rLJeStkpy/CcTwkNpj4ddsyllK9lREAERKC/EOgYgaZTgfOiJXYZMQLXZEJ1aITQi8sLmPwpNGLwRGC57bbbznkD4TGCJweNPBrDoaBix8t0GkO4StNIYX28Q6i04X6MVxG90IgWbCsv3Gu99dZzyThpcCPm0HimFwVRAw+amNEwZd8QCggHIpyJ/aHXht4e8pZYzpTQe4byfK+doh5yxBvKInSJ8CQEI0Ky8FJAbAkbgXgbsU9UMsixgmcP4hhiBSJWLBExFTiMFz9hEHAnXKeqMSyqbzaEeixZsb9c0XeuFSpmGCFBVPTpPcNzirhyritr8BeVU3cebHCv5pyaRxP5ibj2mhEUCNnCOH91PHnqHlez6zPaSzPGsVreCT8MkrLw+GrWw4Pr3TyS8vbLBEs+y5a1ynpeWTadewtxhOVpfHL/X3XVVRnCMPcfgiINDBNXbT0+EZ/xOjExi+uI64uyuC5M+PLXCb9zv9IY53i4xzk2np08/wgn4f7faqutwtVa9pt95v7kz4RTts2zuCdN92dX2p1yf3JNIGBzfXKdc500613BPUTDlHcAjXTEGsrOS9IPkf5+f8KAZxF/rTbEZKxVHQycU+qM1sHE+fU9YBCsEfcQafAI3nnnnZ0YTUdVzOjcqvI+sRw01H3akYOGjsLQuzl2XDZKZ2yepomACIiACIxPDSAIxQQQA2iskCsFDxlEFIQGBAdcWC10iAobnjAIKoSv8MKnF5behLKXP27OCAzXX3+9i1FHWKGRRO8+SWpxv6eBlCfycAS84GnwExbDvpr4UpQclvXYf0Kw6KGjsoJoQlkcD8dnFvNuwvOCfSdkqazXhH0777zznBcJFU6ECsSJWN4euNFoQkzAHZgGGqFgDFdZllgX7xkah4QOhR4/dixVPjmfWBnHvDIJU0BsotFJ45feNIwGJyFenGt67alQ4WWF+3wrDQ8XjoFhN+FubvLk2uD8rrDCCqWbw3sJcZBrw/6oYJlHEAKg7yVVWmA/WsA8jFIO2TzAUpal0l4kiqaUwTI0ehhVhnuGZwyNT4RmevfZBvf14Ycf7hoZ/ihwVj7XdHgNpeRXsvVpyFA+jV+uIxoviIeEV/JMYkha7hkETK697jIa3tynPO8vueQSl0eB504zIm+VfdT9WYVW65ctuj+5JhFPEGgwBgngXqk7+t5K4xMEE+LEO5HrHyGQjgo/N5sdqe7P/5KgIyHmhce9aiHIxiz1k3xCeExis9XwjrXt8bxEFDGvHN7nCDSh8e7l3PP+5VnHs5ZnnD/yZriOfouACIiACPQvAhJoEs43YgFJ/vjLM3rA6L1o1thGmchRVvbyyy+f8VfVGNWAfCh+ImEEBfMeobyYBw1hATG349j22QYNsVSjFyalJyYsz4Ya93utwmVSfyOWmAjRjEBDbxoVccQ2vAnwVLH8O+wD3gkIYXgFIarx5zeCCTvDkwoRi+uDBqrNp2HBH/tI45rGBF4dfs8uyY3ZhiWCZJuURSgblcfUBi8CI7l5YnmYcPMnJCTPOIa+bCQZxvIEKhsVqhXx/a3miFjHPYkrPNcNYUVcZwivjIZG6BYNRARirhuWQTRGuGA5BGOEDfOe4ZPnBn9cl/bHtcm2+KQhah5zTEMUoZGCpw3JJeFEuAFedmwf70GGhkcIwjvJto+nTd3tx3hyrOw3gjmeDnhLxRqGsXWrTuuE+7PqPve25Zu9P2lk03BGJMTwAi3zdKnCBoEeMRDhm5AYPGoQarjWzXR/Gon/1j/WWWedryb87xudSykCDeIJHQ2883hO0dFGSCPGO7WO2M17GKGIP77zbMRzuagOQscYy5OThryLCH8MCkBnjRkdfngcVzEbjZGRMPHMrWLkPyTkPtUQ0S3EzBK3Ex6cIjRRZzFDhLd6Dc/9qqGDVo4+RUAERKAvEZBA05fOZguPhYTF1hNE5ZSGUacbIgKhaDTyTNyhwkNF289fQeWARqJVCvKOi8oOjUcap36y4rzlw+mEw5HPg23REA4rmFQUEeWoHJKLZty4cV1GqMFzq4qFoy7hTk+jGKPXDlFm/fXXd43dKuWy7NChQ11j3RrdNJBhitdDJ4oPVY+v6vJ4JMHbGgd+BZ8QPcQ5zu9HH33kivbn+9uCI7miusMQF2lU5hkiBAIIDQo8Z/g043rhmuSPRhDPAn90NVuuyicCookzrHfDDTe4+xVObN+/jmi8IhKxDHy4j0wsrbJNf9lw+/48/zthjm+OF6ZowCG6M5pbFa8gv6yi77o/i+jUm1f3/kQQNAF7tdVWc54RTGulMRQySfMRZ/Ba4z7wTfenTyP+nQ4IBGYE3iLDizTvOYsni5/Dr6ic2DyeFVeMH4wBcYbnBEI3IneZIXjj8YwQzfsCj2HezxYujDho+fTKygrnv/vuuxl/VYxncxWBhg4bcv/5RmdUOM2fH/tu71DmUb+QiYAIiIAIKMSpX14DDPVIwwvhAZfcWAiW5RcBUDPJdtsBltGXMCrUNDbJEUQPqp+EDxGHBhi97+eee25hRcoPbworzynHR0gWPWCEW22yySa5q1BRowcNzwO8XaisU8khvwkNU3pYEVoQlvijEuN7KlAxRGwKRwDj/Fr4Cm75fuM4d2dyZsBU9hUBGvuILxbig/hlhnBlYgLeIITJWCikLWOfXFec/+4w8lBZIzNWPr34eHEQooQgExqCCQInXiU0QhA/6e1FrEG45Frk2rPrkU9+51nohUfYIj3ZHD+hnKHBdqeddnL5GriP2T7M/e3bfWBeO1W2H27PfnOfcN/QwOG+KmJo6zTz2Qn3p/Fq5vnWzDH31Dp170944BmISMdzvLts9vEjxyHEE948eHxeEt90f2Zu8AKeKwi2MSOUO8UIH+O9iphDAnNCpQnPxis6L0dfSrkswznEO5a8WXjdVUk4jLCEEEcHCJ4kJs5QLjmYikZ5ZJlWGgNBVDGekQgyrbS889zKbagsERABEegNBCYaX0HLr1H3hiPQPlYiQENr0KBBrnHFirjihr0miANUSmkIId7cfvvtTsyptKE2LMwIGfRCUXGgd5LGJT1S/JmRB4feLmyl8bkASEKaZ/RsEadO5anZSjoNx97U+CFRKW7L5iGTx6Zd0+ltQxwgH4QfLtaq/SGsgLwEnLPQa4oGO67cVGR9b49w2zQozHMJobCTzz8VbASIMm+y8Bhb9RuRh3vE995pVdl1y0GMQkThXugUa+X9CXeEV65p8o6df/75tQ9T92dthF0K0P3ZBUfbfyDw8Gyngyf0qKIq3WwnSG+oJyCS01nEe5cwV5kIiIAIiED3EVCIU/ex7ciScZulUWQWuu7TCCUOHnGGCgg5I2ik9AYj9pmRqHBlxkOIsBJfnOEYSITKMjTyEavyDEYW/x32/OetE5veyY3z2P5S8erkyld3iDI+B4SCPPd0hJmUXkbEjnYJHv6xpHzPy52Tsm4rlqGh06nWib25rbw/yVNhuSPwJmiF6f5sBcWvytD9+RWLTviG503eQAXNijMcV2+oJxSNNNYJ50b7IAIiIAJ9iUDn1o77EuUOOhbCYOgRxs2XsAZ6hAhnQpAhoSmJaum1I+/MiSee2CU8qIMOI7oruDuTtBgRimObLTIyw8CBA93IScR8H3zwwdFymEj+GdiQpJc8ATIREAER6M0ECPm84IIL3LOR0YMYIQ+jYVkUgtmbj1n7LgIiIAIiIAIiIAK9jYAEmt52xmruL70gZMonFIj8DwzviHstYQ4MS81ITsRl4/Jep0eo5m42vTqCSjjsb1gYvVUkR/Xj1y2PhuWbsPwzDC/eGzmEx6zfIiAC/ZsAgjOJyH3jWbjHHntMEM7nL6PvIiACIiACIiACIiACPUdAOWh6jnVHbglxxnJ69AY321ZBZPjrNddcM1trrbWyF1980YV1EZZC+BNhF+TlIRcLw0QvtthirdqsyhEBERCBthAgnOmBBx5wyVJ55iPWE/LZXUmq23KQ2qgIiIAIiIAIiIAI9HIC8qDp5Sew7u4jykwxxRR1i+lV648dO9YNa7nqqqu6/SYJMqMlkXMHb5kzzzzTiTPbbLONxJledWa1syIgAnkESGwdJoTPW1bTRUAEREAEREAEREAE2kNAHjTt4a6ttokAIzAwvO+pp57acOtneExCvUgOy0gMDHW92267qTHTpnOkzYqACIiACIiACIiACIiACIhAfyQggaY/nvV+fsyINJZrxlC89tprblSn6aef3rn8t3v0DNsvfYqACIiACIiACIiACIiACIiACPQPAhJo+sd51lGKgAiIgAiIgAiIgAiIgAiIgAiIgAh0MIH/6+B9066JgAiIgAiIgAiIgAiIgAiIgAiIgAiIQL8gIIGmX5xmHaQIiIAIiIAIiIAIiIAIiIAIiIAIiEAnE5BA08lnR/smAiIgAiIgAiIgAiIgAiIgAiIgAiLQLwhIoOkXp1kHKQIiIAIiIAIiIAIiIAIiIAIiIAIi0MkEJNB08tnRvomACIiACIiACIiACIiACIiACIiACPQLAhJo+sVp1kGKgAiIgAiIgAiIgAiIgAiIgAiIgAh0MgEJNJ18drRvIiACIiACIiACIiACIiACIiACIiAC/YKABJp+cZp1kCIgAiIgAiIgAiIgAiIgAiIgAiIgAp1MQAJNJ58d7ZsIiIAIiIAIiIAIiIAIiIAIiIAIiEC/ICCBpl+cZh2kCIiACIiACIiACIiACIiACIiACIhAJxOQQNPJZ0f7JgIiIAIiIAIiIAIiIAIiIAIiIAIi0C8I/D/YnlchwOypJwAAAABJRU5ErkJggg==;imageBorder=#3399FF;" vertex="1" parent="1">
          <mxGeometry x="139.5" y="1184" width="511" height="259.13" as="geometry" />
        </mxCell>
        <mxCell id="PU5UO4druXcTzNWO9ZJz-19" value="" style="html=1;shadow=0;dashed=0;align=center;verticalAlign=middle;shape=mxgraph.arrows2.arrow;dy=0.6;dx=40;direction=south;notch=0;" vertex="1" parent="1">
          <mxGeometry x="360" y="1124" width="70" height="60" as="geometry" />
        </mxCell>
        <mxCell id="PU5UO4druXcTzNWO9ZJz-20" value="" style="html=1;shadow=0;dashed=0;align=center;verticalAlign=middle;shape=mxgraph.arrows2.arrow;dy=0.6;dx=40;direction=south;notch=0;" vertex="1" parent="1">
          <mxGeometry x="360" y="1443.13" width="70" height="60" as="geometry" />
        </mxCell>
        <mxCell id="PU5UO4druXcTzNWO9ZJz-21" value="inp_flat(&lt;font color=&quot;#ff0000&quot;&gt;对input取绝对值&lt;/font&gt;)&lt;br&gt;*D =&amp;gt; 2D: [1, 4. 768] =&amp;gt; [4, 768]&lt;br&gt;num_elements(行数): int = 4&lt;br&gt;num_channels(列数): int = 768" style="rounded=1;whiteSpace=wrap;html=1;fontStyle=1" vertex="1" parent="1">
          <mxGeometry x="242.5" y="1503.13" width="305" height="147" as="geometry" />
        </mxCell>
        <mxCell id="PU5UO4druXcTzNWO9ZJz-22" value="x_mean: 按列取平均值" style="rounded=1;whiteSpace=wrap;html=1;fontStyle=1" vertex="1" parent="1">
          <mxGeometry x="240" y="1710.13" width="305" height="147" as="geometry" />
        </mxCell>
        <mxCell id="PU5UO4druXcTzNWO9ZJz-23" value="" style="html=1;shadow=0;dashed=0;align=center;verticalAlign=middle;shape=mxgraph.arrows2.arrow;dy=0.6;dx=40;direction=south;notch=0;" vertex="1" parent="1">
          <mxGeometry x="360" y="1650.13" width="70" height="60" as="geometry" />
        </mxCell>
      </root>
    </mxGraphModel>
  </diagram>
</mxfile>
